<?xml version="1.0" encoding="UTF-8"?>
<svg xmlns="http://www.w3.org/2000/svg" xmlns:xlink="http://www.w3.org/1999/xlink" version="1.2" >
<font id="Futura Medium Italic">
<font-face  font-family="Futura" units-per-em="2048" ascent="1689" descent="-532" font-style="italic" font-weight="500" font-stretch="normal" slope="-7" cap-height="1560" x-height="958" underline-position="-200" underline-thickness="160" />
<missing-glyph  horiz-adv-x="1024" d="M102 0 L922 0 L922 1092 L102 1092 L102 0 Z M204 102 L204 990 L820 990 L820 102 L204 102 Z " />
<glyph glyph-name=".null" d="" />
<glyph glyph-name="&amp;#x0;" horiz-adv-x="1024" d="" />
<glyph glyph-name="&amp;#xd;" unicode="&#xd;" horiz-adv-x="1024" d="" />
<glyph glyph-name="space" unicode="&#x20;" horiz-adv-x="632" d="" />
<glyph glyph-name="controlBS" unicode="&#x8;" d="" />
<glyph glyph-name="controlHT" unicode="&#x9;" horiz-adv-x="632" d="" />
<glyph glyph-name="controlGS" unicode="&#x1d;" d="" />
<glyph glyph-name="exclam" unicode="&#x21;" horiz-adv-x="638" d="M403 110 C403 130 399.5 148.5 392.5 165.5 C385.5 182.5 376 197.167 364 209.5 C352 221.833 337.833 231.5 321.5 238.5 C305.167 245.5 287.667 249 269 249 C232.333 249 200.333 236.333 173 211 C147.667 185.667 135 154.667 135 118 C135 78 148 44.6667 174 18 C200.667 -8.66667 233 -22 271 -22 C308.333 -22 339.667 -9.33333 365 16 C390.333 41.3333 403 72.6667 403 110 L403 110 Z M550 1544 L331 1544 L192 405 L410 405 L550 1544 Z " />
<glyph glyph-name="quotedbl" unicode="&#x22;" horiz-adv-x="825" d="M363 923 L482 1544 L234 1544 L200 923 L363 923 Z M721 923 L840 1544 L592 1544 L558 923 L721 923 Z " />
<glyph glyph-name="numbersign" unicode="&#x23;" horiz-adv-x="1264" d="M1261 1110 L1037 1110 L1116 1535 L943 1558 L859 1110 L595 1110 L674 1535 L501 1558 L418 1110 L175 1110 L154 934 L385 934 L332 647 L89 647 L68 475 L296 475 L211 16 L388 -7 L477 471 L743 471 L658 16 L832 -7 L921 471 L1155 471 L1176 647 L954 647 L1007 934 L1240 934 L1261 1110 Z M826 934 L774 647 L510 647 L563 934 L826 934 Z " />
<glyph glyph-name="dollar" unicode="&#x24;" horiz-adv-x="1264" d="M662 -26 C788 -11.3333 887.333 36.3333 960 117 C1032.67 195.667 1069 297.333 1069 422 C1069 523.333 1045.33 606.667 998 672 C951.333 736.667 862.333 805.333 731 878 C644.333 926.667 584.667 970.333 552 1009 C518.667 1048.33 502 1093.67 502 1145 C502 1207 525 1260 571 1304 C617 1348 672 1370 736 1370 C841.333 1370 928 1313.67 996 1201 L1147 1345 C1068.33 1457.67 971.667 1530 857 1562 L883 1776 L713 1776 L689 1573 C565.667 1559 466.333 1512.33 391 1433 C317 1353.67 280 1254.67 280 1136 C280 1044 302.667 966.333 348 903 C370.667 871 402.333 839.333 443 808 C483.667 776.667 533.333 744 592 710 C696.667 651.333 765 603.333 797 566 C829 530 845 482.333 845 423 C845 346.333 821.667 285.667 775 241 C730.333 196.333 668.333 174 589 174 C515 174 452.333 191.667 401 227 C376.333 244.333 352.667 267.5 330 296.5 C307.333 325.5 285.667 361 265 403 L91 285 C146.333 186.333 203.667 114.333 263 69 C324.333 23 401 -7 493 -21 L463 -262 L633 -262 L662 -26 Z " />
<glyph glyph-name="percent" unicode="&#x25;" horiz-adv-x="1642" d="M724 1224 C724 1326.67 701 1409.67 655 1473 C610.333 1535.67 550 1567 474 1567 C386 1567 312 1522.67 252 1434 C192 1344.67 162 1235 162 1105 C162 997.667 185 912.667 231 850 C277 788 339.333 757 418 757 C506.667 757 579.667 801 637 889 C695 977.667 724 1089.33 724 1224 L724 1224 Z M593 1229 C593 1129.67 575.667 1046.67 541 980 C506.333 913.333 463.667 880 413 880 C375 880 345.5 898.833 324.5 936.5 C303.5 974.167 293 1026.33 293 1093 C293 1189.67 310.667 1272.67 346 1342 C380.667 1410.67 423.667 1445 475 1445 C511.667 1445 540.5 1425.67 561.5 1387 C582.5 1348.33 593 1295.67 593 1229 L593 1229 Z M1448 1525 L1354 1590 L254 20 L347 -45 L1448 1525 Z M1536 444 C1536 546.667 1513 629.667 1467 693 C1421 755.667 1360.33 787 1285 787 C1197 787 1123 742.333 1063 653 C1003 563.667 973 454.333 973 325 C973 217.667 996 133 1042 71 C1088 9 1150.67 -22 1230 -22 C1318.67 -22 1391.67 21.6667 1449 109 C1507 197 1536 308.667 1536 444 L1536 444 Z M1405 448 C1405 349.333 1387.67 266.667 1353 200 C1318.33 133.333 1275.67 100 1225 100 C1187 100 1157.5 118.667 1136.5 156 C1115.5 193.333 1105 245.333 1105 312 C1105 409.333 1122.67 492.667 1158 562 C1192.67 630.667 1235.67 665 1287 665 C1323.67 665 1352.5 646 1373.5 608 C1394.5 570 1405 516.667 1405 448 L1405 448 Z " />
<glyph glyph-name="ampersand" unicode="&#x26;" horiz-adv-x="1444" d="M1153 303 L1352 475 L1209 640 L1032 475 L766 853 C970 945.667 1072 1069.33 1072 1224 C1072 1325.33 1037.67 1408 969 1472 C901 1536 813 1568 705 1568 C601 1568 516.667 1537.67 452 1477 C388 1417 356 1338.33 356 1241 C356 1144.33 394.667 1035.33 472 914 L432 889 C319.333 815 237.333 742.333 186 671 C136 599.667 111 518.667 111 428 C111 307.333 155 202 243 112 C332.333 22.6667 436 -22 554 -22 C670 -22 803 33 953 143 L985 166 L1100 0 L1363 0 L1153 303 Z M659 1014 C599 1106.67 569 1178.67 569 1230 C569 1274 583.667 1311.67 613 1343 C642.333 1374.33 678.333 1390 721 1390 C764.333 1390 800 1376 828 1348 C856.667 1320 871 1284.33 871 1241 C871 1195.67 855.333 1156.33 824 1123 C792 1089 737 1052.67 659 1014 L659 1014 Z M580 752 L871 332 C748.333 231.333 647.667 181 569 181 C502.333 181 445.667 205 399 253 C352.333 301.667 329 360.333 329 429 C329 489.667 348.333 544.333 387 593 C426.333 643.667 490.667 696.667 580 752 L580 752 Z " />
<glyph glyph-name="quotesingle" unicode="&#x27;" horiz-adv-x="466" d="M363 923 L482 1544 L234 1544 L200 923 L363 923 Z " />
<glyph glyph-name="parenleft" unicode="&#x28;" horiz-adv-x="698" d="M330 -428 L498 -362 C407.333 -94.6667 362 166.667 362 422 C362 628 390.667 826.667 448 1018 C506.667 1206.67 600.667 1407 730 1619 L572 1708 C308.667 1294.67 177 869.333 177 432 C177 123.333 228 -163.333 330 -428 L330 -428 Z " />
<glyph glyph-name="parenright" unicode="&#x29;" horiz-adv-x="698" d="M398 1708 L229 1641 C320.333 1368.33 366 1106.67 366 856 C366 647.333 337 448.667 279 260 C249 164.667 210.833 67.1667 164.5 -32.5 C118.167 -132.167 63 -234.667 -1 -340 L156 -428 C418.667 -17.3333 550 407.333 550 846 C550 1152.67 499.333 1440 398 1708 L398 1708 Z " />
<glyph glyph-name="asterisk" unicode="&#x2a;" horiz-adv-x="1264" d="M660 1427 L420 1556 L338 1380 L591 1279 L394 1091 L536 958 L710 1168 L829 923 L998 1017 L853 1247 L1123 1284 L1086 1474 L822 1407 L870 1675 L678 1699 L660 1427 Z " />
<glyph glyph-name="plus" unicode="&#x2b;" horiz-adv-x="1264" d="M127 695 L569 695 L569 260 L757 260 L757 695 L1199 695 L1199 880 L757 880 L757 1307 L569 1307 L569 880 L127 880 L127 695 Z " />
<glyph glyph-name="comma" unicode="&#x2c;" horiz-adv-x="632" d="M413 285 L242 380 L-74 -229 L62 -303 L413 285 Z " />
<glyph glyph-name="hyphen" unicode="&#x2d;" horiz-adv-x="432" d="M438 574 L5 574 L-15 399 L416 399 L438 574 Z " />
<glyph glyph-name="period" unicode="&#x2e;" horiz-adv-x="632" d="M401 109 C401 147 387 179.667 359 207 C331.667 234.333 298.333 248 259 248 C223.667 248 193.333 235.333 168 210 C144 184.667 132 153.333 132 116 C132 77.3333 145 44.6667 171 18 C197 -8.66667 228.333 -22 265 -22 C301 -22 332.667 -9 360 17 C387.333 43 401 73.6667 401 109 L401 109 Z " />
<glyph glyph-name="slash" unicode="&#x2f;" horiz-adv-x="981" d="M1040 1644 L885 1712 L-69 -377 L85 -448 L1040 1644 Z " />
<glyph glyph-name="zero" unicode="0" horiz-adv-x="1264" d="M1197 897 C1197 1101 1154 1263.67 1068 1385 C982 1506.33 866.667 1567 722 1567 C552.667 1567 409.333 1479.33 292 1304 C176 1128.67 118 912.667 118 656 C118 446.667 161.667 281.333 249 160 C337 38.6667 456.667 -22 608 -22 C764 -22 892.333 44.3333 993 177 C1053 257 1102 364 1140 498 C1178 632.667 1197 765.667 1197 897 L1197 897 Z M974 908 C974 810 962 708.667 938 604 C915.333 500.667 885.333 417.333 848 354 C780.667 240.667 697 184 597 184 C517 184 454 223 408 301 C362.667 380.333 340 489.333 340 628 C340 834 376.667 1007.67 450 1149 C524 1290.33 614.667 1361 722 1361 C800.667 1361 862.333 1320.67 907 1240 C951.667 1161.33 974 1050.67 974 908 L974 908 Z " />
<glyph glyph-name="one" unicode="1" horiz-adv-x="1264" d="M883 1544 L429 1544 L325 1331 L629 1331 L464 0 L693 0 L883 1544 Z " />
<glyph glyph-name="two" unicode="2" horiz-adv-x="1264" d="M1062 213 L509 213 L866 600 C924.667 664.667 973.167 720.667 1011.5 768 C1049.83 815.333 1077.67 855.333 1095 888 C1130.33 953.333 1148 1030 1148 1118 C1148 1253.33 1105.33 1362 1020 1444 C935.333 1526.67 822 1568 680 1568 C497.333 1568 362.333 1505.33 275 1380 C223 1306 191.333 1193 180 1041 L397 1041 C401.667 1097 410.667 1145.17 424 1185.5 C437.333 1225.83 455.167 1259 477.5 1285 C499.833 1311 527.333 1330.17 560 1342.5 C592.667 1354.83 630.667 1361 674 1361 C712.667 1361 747.667 1355.33 779 1344 C810.333 1332.67 836.833 1316.33 858.5 1295 C880.167 1273.67 896.833 1247.83 908.5 1217.5 C920.167 1187.17 926 1153 926 1115 C926 1053 912 999.667 884 955 C869.333 931.667 843 897.333 805 852 C767 806.667 716 749 652 679 L36 0 L1035 0 L1062 213 Z " />
<glyph glyph-name="three" unicode="3" horiz-adv-x="1264" d="M101 384 C107.667 318.667 123.167 260.833 147.5 210.5 C171.833 160.167 203.833 117.833 243.5 83.5 C283.167 49.1667 330.167 23 384.5 5 C438.833 -13 499.667 -22 567 -22 C718.333 -22 840.667 21 934 107 C1027.33 193 1074 306.667 1074 448 C1074 622 997 739.667 843 801 C930.333 838.333 993.833 886.667 1033.5 946 C1073.17 1005.33 1093 1081 1093 1173 C1093 1294.33 1056.67 1390.33 984 1461 C910.667 1532.33 813 1568 691 1568 C407 1568 255 1415.33 235 1110 L437 1110 C450.333 1277.33 526.667 1361 666 1361 C730.667 1361 781 1342.83 817 1306.5 C853 1270.17 871 1220.67 871 1158 C871 1074 849.5 1009.83 806.5 965.5 C763.5 921.167 702.667 899.333 624 900 L568 900 L543 697 C749 697 852 617.333 852 458 C852 376.667 825.667 310.667 773 260 C720.333 209.333 652 184 568 184 C495.333 184 437.333 201.167 394 235.5 C350.667 269.833 323.667 319.333 313 384 L101 384 Z " />
<glyph glyph-name="four" unicode="4" horiz-adv-x="1264" d="M955 286 L1099 286 L1123 483 L979 483 L1130 1713 L7 286 L726 286 L689 0 L918 0 L955 286 Z M751 483 L400 483 L818 1028 L751 483 Z " />
<glyph glyph-name="five" unicode="5" horiz-adv-x="1264" d="M1126 1544 L486 1544 L231 748 C357 820 468.333 856 565 856 C661 856 736.667 828 792 772 C848 716.667 876 641 876 545 C876 433.667 846.667 345.667 788 281 C728.667 215.667 650 183 552 183 C480.667 183 418.333 198.667 365 230 C313 262 257.667 318 199 398 L40 270 C162.667 75.3333 334.333 -22 555 -22 C717.667 -22 849 29.3333 949 132 C1049 234.667 1099 370 1099 538 C1099 692 1058.67 813.333 978 902 C897.333 990.667 786.667 1035 646 1035 C628.667 1035 609.833 1033.83 589.5 1031.5 C569.167 1029.17 547.333 1025.67 524 1021 L626 1331 L1100 1331 L1126 1544 Z " />
<glyph glyph-name="six" unicode="6" horiz-adv-x="1264" d="M597 1003 L948 1475 L775 1611 L295 963 C161.667 781.667 95 620.667 95 480 C95 335.333 143 215.667 239 121 C336.333 25.6667 457.333 -22 602 -22 C759.333 -22 892.667 34 1002 146 C1112 258.667 1167 396 1167 558 C1167 698 1126.67 809.333 1046 892 C965.333 976.667 859 1019 727 1019 C707.667 1019 687 1017.67 665 1015 C643 1012.33 620.333 1008.33 597 1003 L597 1003 Z M317 470 C317 567.333 350.667 651.667 418 723 C484.667 793.667 565 829 659 829 C742.333 829 810.667 801.333 864 746 C918 690.667 945 620.667 945 536 C945 436.667 912 353 846 285 C780.667 217 699.667 183 603 183 C516.333 183 447 209 395 261 C343 313 317 382.667 317 470 L317 470 Z " />
<glyph glyph-name="seven" unicode="7" horiz-adv-x="1264" d="M1349 1544 L235 1544 L209 1331 L952 1331 L108 82 L290 -27 L1349 1544 Z " />
<glyph glyph-name="eight" unicode="8" horiz-adv-x="1264" d="M909 822 C949.667 842 984.5 863.667 1013.5 887 C1042.5 910.333 1066.17 935.667 1084.5 963 C1102.83 990.333 1116.17 1020.5 1124.5 1053.5 C1132.83 1086.5 1137 1123 1137 1163 C1137 1284.33 1098 1382 1020 1456 C942 1530 838.667 1567 710 1567 C576.667 1567 467.333 1529.33 382 1454 C298 1378.67 256 1280.67 256 1160 C256 1029.33 315 924 433 844 C235.667 762.667 137 624.667 137 430 C137 296 182.667 187 274 103 C367.333 19.6667 486.333 -22 631 -22 C773 -22 890.667 21.6667 984 109 C1076.67 195.667 1123 306.667 1123 442 C1123 611.333 1051.67 738 909 822 L909 822 Z M915 1154 C915 1091.33 893.667 1040 851 1000 C807.667 960.667 753.667 941 689 941 C627.667 941 577 960 537 998 C497 1036 477 1084.67 477 1144 C477 1206 498.333 1257.33 541 1298 C584.333 1339.33 638 1360 702 1360 C765.333 1360 816.667 1341 856 1303 C895.333 1265 915 1215.33 915 1154 L915 1154 Z M901 461 C901 381 875.333 314.333 824 261 C772.667 209.667 707 184 627 184 C549.667 184 485.333 207.667 434 255 C384 301.667 359 362.667 359 438 C359 518 384.667 583 436 633 C486.667 683.667 553.667 709 637 709 C714.333 709 777.667 686 827 640 C876.333 594 901 534.333 901 461 L901 461 Z " />
<glyph glyph-name="nine" unicode="9" horiz-adv-x="1264" d="M702 541 L352 68 L524 -66 L1005 581 C1137.67 759.667 1204 920.333 1204 1063 C1204 1205.67 1156.33 1325.67 1061 1423 C965.667 1519 847 1567 705 1567 C545.667 1567 410.333 1511.33 299 1400 C189 1288.67 134 1152 134 990 C134 849.333 175.333 736.667 258 652 C340.667 568 452 526 592 526 C627.333 526 664 531 702 541 L702 541 Z M982 1065 C982 967.667 949 885 883 817 C817 749.667 736.333 716 641 716 C556.333 716 487.333 741.667 434 793 C382 843.667 356 911.333 356 996 C356 1098 388.667 1184.67 454 1256 C518.667 1326 599.667 1361 697 1361 C780.333 1361 848.667 1333.33 902 1278 C955.333 1222.67 982 1151.67 982 1065 L982 1065 Z " />
<glyph glyph-name="colon" unicode="&#x3a;" horiz-adv-x="632" d="M401 109 C401 147 387 179.667 359 207 C331.667 234.333 298.333 248 259 248 C223.667 248 193.333 235.333 168 210 C144 184.667 132 153.333 132 116 C132 77.3333 145 44.6667 171 18 C197 -8.66667 228.333 -22 265 -22 C301 -22 332.667 -9 360 17 C387.333 43 401 73.6667 401 109 L401 109 Z M490 835 C490 872.333 476 904.667 448 932 C420.667 959.333 387.667 973 349 973 C313 973 282.333 960.333 257 935 C233 909.667 221 878.333 221 841 C221 802.333 234 769.667 260 743 C286 715.667 317.333 702 354 702 C390.667 702 422.333 715.333 449 742 C476.333 769.333 490 800.333 490 835 L490 835 Z " />
<glyph glyph-name="semicolon" unicode="&#x3b;" horiz-adv-x="632" d="M479 835 C479 872.333 465 904.667 437 932 C409.667 959.333 376.667 973 338 973 C302.667 973 272.333 960.333 247 935 C223 909.667 211 878.333 211 841 C211 802.333 224 769.667 250 743 C276 715.667 307.333 702 344 702 C380 702 411.333 715.333 438 742 C465.333 769.333 479 800.333 479 835 L479 835 Z M413 285 L242 380 L-74 -229 L62 -303 L413 285 Z " />
<glyph glyph-name="less" unicode="&#x3c;" horiz-adv-x="1264" d="M1162 1372 L158 883 L158 686 L1162 196 L1162 424 L404 783 L1162 1142 L1162 1372 Z " />
<glyph glyph-name="equal" unicode="&#x3d;" horiz-adv-x="1264" d="M127 857 L1199 857 L1199 1027 L127 1027 L127 857 Z M127 548 L1200 548 L1200 718 L127 718 L127 548 Z " />
<glyph glyph-name="greater" unicode="&#x3e;" horiz-adv-x="1264" d="M158 195 L1161 684 L1161 881 L158 1371 L158 1143 L915 783 L158 425 L158 195 Z " />
<glyph glyph-name="question" unicode="&#x3f;" horiz-adv-x="994" d="M584 109 C584 146.333 571 178.667 545 206 C519 233.333 487.667 247 451 247 C431.667 247 413.833 243.5 397.5 236.5 C381.167 229.5 367 220 355 208 C343 196 333.5 181.667 326.5 165 C319.5 148.333 316 130.333 316 111 C316 72.3333 329 40.6667 355 16 C382.333 -9.33333 415.333 -22 454 -22 C490 -22 520.667 -9.33333 546 16 C571.333 41.3333 584 72.3333 584 109 L584 109 Z M683 697 C675.667 591.667 631.667 539 551 539 C509 539 475.333 551.5 450 576.5 C424.667 601.5 412 634.333 412 675 C412 726.333 431 769.667 469 805 C506.333 839 575 875.333 675 914 C775 952 846.333 996.333 889 1047 C931.667 1097.67 953 1162.67 953 1242 C953 1340 920 1418.67 854 1478 C788.667 1538 702.333 1568 595 1568 C473 1568 380.333 1533 317 1463 C253.667 1393 222 1291.33 222 1158 L420 1158 C420 1234.67 434.5 1292.67 463.5 1332 C492.5 1371.33 534.333 1391 589 1391 C631.667 1391 667.333 1376.67 696 1348 C725.333 1320 740 1285.33 740 1244 C740 1205.33 726 1174 698 1150 C684 1138.67 663 1125.83 635 1111.5 C607 1097.17 571.667 1081.67 529 1065 C415 1021 331 967.833 277 905.5 C223 843.167 196 768.667 196 682 C196 589.333 229.333 512 296 450 C362.667 388 446.333 357 547 357 C753.667 357 868.333 470.333 891 697 L683 697 Z " />
<glyph glyph-name="at" unicode="&#x40;" horiz-adv-x="1791" d="M1355 1176 L1208 1176 L1194 1065 C1125.33 1151.67 1035 1195 923 1195 C801 1195 699.667 1151.67 619 1065 C538.333 980.333 498 872.333 498 741 C498 619 534 518.667 606 440 C679.333 360.667 771 321 881 321 C981.667 321 1073 363 1155 447 C1185.67 366.333 1243.67 326 1329 326 C1435.67 326 1528.67 381 1608 491 C1686.67 599.667 1726 730 1726 882 C1726 1078.67 1653.67 1242.33 1509 1373 C1363.67 1505 1183.33 1571 968 1571 C734 1571 537.333 1494.33 378 1341 C218.667 1187.67 139 998 139 772 C139 644.667 167.667 522.667 225 406 C283 292 363.667 198.333 467 125 C607.667 24.3333 782.333 -26 991 -26 C1179.67 -26 1361 16 1535 100 L1547 106 L1495 245 L1480 238 C1314.67 158 1151 118 989 118 C821.667 118 682.333 158.667 571 240 C489 299.333 424.333 376 377 470 C331 564 308 665.333 308 774 C308 960.667 371.667 1117.67 499 1245 C625.667 1373 782.667 1437 970 1437 C1148.67 1437 1295.33 1383.67 1410 1277 C1525.33 1169.67 1583 1034 1583 870 C1583 766.667 1559 673.667 1511 591 C1464.33 508.333 1411.33 467 1352 467 C1306.67 467 1284 493.333 1284 546 C1284 561.333 1284.5 577.833 1285.5 595.5 C1286.5 613.167 1288.33 631.667 1291 651 L1355 1176 Z M1160 790 C1160 708.667 1132.67 638.667 1078 580 C1024 520 961.333 490 890 490 C834 490 788 512.667 752 558 C716.667 603.333 699 661.333 699 732 C699 813.333 721 880 765 932 C809.667 984.667 866 1011 934 1011 C998 1011 1051.67 990 1095 948 C1138.33 906 1160 853.333 1160 790 L1160 790 Z " />
<glyph glyph-name="A" unicode="A" horiz-adv-x="1446" d="M435 363 L1034 363 L1146 0 L1385 0 L852 1654 L-2 0 L247 0 L435 363 Z M534 561 L804 1110 L970 561 L534 561 Z " />
<glyph glyph-name="B" unicode="B" horiz-adv-x="1193" d="M310 1544 L120 0 L527 0 C581 0 627.667 1.5 667 4.5 C706.333 7.5 740 11.6667 768 17 C821.333 27.6667 870.333 49.3333 915 82 C971 122.667 1014.33 176 1045 242 C1077 308.667 1093 379.667 1093 455 C1093 637.667 1002 751.667 820 797 C970 879 1045 998 1045 1154 C1045 1256.67 1014.67 1344.33 954 1417 C916 1463 869.667 1495.67 815 1515 C759 1534.33 686 1544 596 1544 L310 1544 Z M512 1331 L591 1331 C740.333 1331 815 1268.33 815 1143 C815 960.333 717 869 521 869 L456 869 L512 1331 Z M433 686 L571 686 C623 686 667.5 682 704.5 674 C741.5 666 771.667 653.333 795 636 C818.333 618.667 835.5 596.5 846.5 569.5 C857.5 542.5 863 510 863 472 C863 371.333 830.333 299.333 765 256 C722.333 227.333 643.667 213 529 213 L375 213 L433 686 Z " />
<glyph glyph-name="C" unicode="C" horiz-adv-x="1413" d="M1423 1406 C1250.33 1518.67 1077 1575 903 1575 C682.333 1575 499 1496.33 353 1339 C207.667 1181.67 135 983.667 135 745 C135 511 203.333 323.667 340 183 C476.667 41 657 -30 881 -30 C1003.67 -30 1136 -3.66667 1278 49 L1311 320 C1198.33 229.333 1068.33 184 921 184 C744.333 184 607.667 232.333 511 329 C413.667 426.333 365 561.667 365 735 C365 920.333 415.667 1070.67 517 1186 C617.667 1302 749.667 1360 913 1360 C1098.33 1360 1258 1292 1392 1156 L1423 1406 Z " />
<glyph glyph-name="D" unicode="D" horiz-adv-x="1466" d="M310 1544 L120 0 L511 0 C581.667 0 643.333 1.66667 696 5 C748.667 8.33333 794 13.3333 832 20 C903.333 34 971.667 59.6667 1037 97 C1093 131 1142.67 172.167 1186 220.5 C1229.33 268.833 1267.33 325 1300 389 C1365.33 518.333 1398 659 1398 811 C1398 954.333 1369 1084 1311 1200 C1253 1316 1173.67 1403 1073 1461 C1018.33 1493 958.667 1514.67 894 1526 C830.667 1538 740 1544 622 1544 L310 1544 Z M512 1331 L640 1331 C772 1331 871.667 1314 939 1280 C1009.67 1243.33 1065.67 1184 1107 1102 C1147.67 1021.33 1168 927.333 1168 820 C1168 647.333 1122.67 503.667 1032 389 C980 321.667 919 275.667 849 251 C777 225.667 677 213 549 213 L375 213 L512 1331 Z " />
<glyph glyph-name="E" unicode="E" horiz-adv-x="1089" d="M1105 1544 L310 1544 L120 0 L915 0 L942 213 L375 213 L439 733 L1006 733 L1030 931 L463 931 L512 1331 L1079 1331 L1105 1544 Z " />
<glyph glyph-name="F" unicode="F" horiz-adv-x="1010" d="M1073 1544 L311 1544 L120 0 L349 0 L439 735 L974 735 L998 933 L464 933 L513 1331 L1047 1331 L1073 1544 Z " />
<glyph glyph-name="G" unicode="G" horiz-adv-x="1644" d="M954 718 L929 520 L1312 520 C1290 416 1240.67 334 1164 274 C1086.67 214 993.333 184 884 184 C729.333 184 603.667 236.333 507 341 C410.333 445.667 362 580.667 362 746 C362 926 413.667 1073.67 517 1189 C619.667 1303 753.333 1360 918 1360 C1117.33 1360 1280 1277.33 1406 1112 L1555 1264 C1387.67 1471.33 1176.67 1575 922 1575 C714 1575 539.667 1510.67 399 1382 C315 1306 249.667 1211.33 203 1098 C155.667 982 132 863 132 741 C132 516.333 201.333 331.667 340 187 C478.667 42.3333 655.333 -30 870 -30 C1124.67 -30 1316.67 75.6667 1446 287 C1514.67 399 1556.67 542.667 1572 718 L954 718 Z " />
<glyph glyph-name="H" unicode="H" horiz-adv-x="1466" d="M1405 1544 L1176 1544 L1102 939 L464 939 L538 1544 L310 1544 L120 0 L349 0 L441 754 L1079 754 L986 0 L1215 0 L1405 1544 Z " />
<glyph glyph-name="I" unicode="I" horiz-adv-x="600" d="M539 1544 L310 1544 L120 0 L349 0 L539 1544 Z " />
<glyph glyph-name="J" unicode="J" horiz-adv-x="873" d="M812 1544 L584 1544 L467 595 C447 431 423.667 322 397 268 C371 211.333 330.667 183 276 183 C216.667 183 152.333 217.667 83 287 L-34 119 C60 19.6667 166.333 -30 285 -30 C384.333 -30 465.667 -3 529 51 C550.333 69.6667 568.833 90.5 584.5 113.5 C600.167 136.5 613.333 162 624 190 C635.333 218.667 645.167 253.333 653.5 294 C661.833 334.667 669.333 381.333 676 434 L812 1544 Z " />
<glyph glyph-name="K" unicode="K" horiz-adv-x="1380" d="M538 1544 L310 1544 L120 0 L349 0 L441 753 L1023 0 L1299 0 L651 826 L1371 1544 L1082 1544 L458 888 L538 1544 Z " />
<glyph glyph-name="L" unicode="L" horiz-adv-x="882" d="M538 1544 L310 1544 L120 0 L786 0 L812 213 L375 213 L538 1544 Z " />
<glyph glyph-name="M" unicode="M" horiz-adv-x="1990" d="M1690 1690 L984 391 L593 1653 L59 0 L293 0 L601 984 L932 -108 L1530 984 L1599 0 L1817 0 L1690 1690 Z " />
<glyph glyph-name="N" unicode="N" horiz-adv-x="1684" d="M1622 1544 L1394 1544 L1258 434 L321 1628 L120 0 L349 0 L483 1090 L1420 -106 L1622 1544 Z " />
<glyph glyph-name="O" unicode="O" horiz-adv-x="1816" d="M1746 802 C1746 1034 1673.33 1220.67 1528 1362 C1382.67 1504 1191.67 1575 955 1575 C718.333 1575 522.333 1498.33 367 1345 C212.333 1192.33 135 999 135 765 C135 530.333 208 339 354 191 C500 43.6667 688.667 -30 920 -30 C1064.67 -30 1196.67 0.666672 1316 62 C1435.33 123.333 1532 210.333 1606 323 C1699.33 466.333 1746 626 1746 802 L1746 802 Z M1516 804 C1516 625.333 1459.67 477.667 1347 361 C1235 243 1094.67 184 926 184 C764 184 630 238.667 524 348 C418 458 365 597 365 765 C365 935 422 1076.67 536 1190 C651.333 1303.33 793.667 1360 963 1360 C1131.67 1360 1266 1309.67 1366 1209 C1466 1107.67 1516 972.667 1516 804 L1516 804 Z " />
<glyph glyph-name="P" unicode="P" horiz-adv-x="1142" d="M311 1544 L120 0 L349 0 L426 625 L595 625 C793 625 938 687.333 1030 812 C1092 896 1123 993.333 1123 1104 C1123 1180 1106.33 1252.33 1073 1321 C1039.67 1387.67 993.667 1439.33 935 1476 C863.667 1521.33 760 1544 624 1544 L311 1544 Z M513 1331 L610 1331 C798 1331 892 1257.33 892 1110 C892 1018.67 866.833 948.833 816.5 900.5 C766.167 852.167 694 828 600 828 L451 828 L513 1331 Z " />
<glyph glyph-name="Q" unicode="Q" horiz-adv-x="1817" d="M1655 -62 L1451 158 C1643 328 1739 539 1739 791 C1739 1020.33 1666.33 1208.67 1521 1356 C1376.33 1502.67 1189.33 1576 960 1576 C720 1576 522.667 1498.67 368 1344 C212 1190 134 995.333 134 760 C134 527.333 206.667 337.333 352 190 C498 43.3333 687 -30 919 -30 C1057 -30 1180.67 -2.66667 1290 52 L1397 -62 L1655 -62 Z M847 531 L1138 216 C1068.67 194 997.333 183 924 183 C756 183 620.667 239 518 351 C415.333 461.667 364 598 364 760 C364 934 421 1077.67 535 1191 C650.333 1304.33 795 1361 969 1361 C1130.33 1361 1260.67 1309.33 1360 1206 C1459.33 1102.67 1509 966.667 1509 798 C1509 592 1442.33 429.333 1309 310 L1101 531 L847 531 Z " />
<glyph glyph-name="R" unicode="R" horiz-adv-x="1220" d="M730 651 C989.333 714.333 1119 865.667 1119 1105 C1119 1235.67 1078.67 1342.33 998 1425 C955.333 1469.67 905.333 1500.33 848 1517 C790 1535 711.667 1544 613 1544 L310 1544 L120 0 L349 0 L427 635 L510 635 L876 0 L1118 0 L730 651 Z M512 1331 L608 1331 C704.667 1331 775.5 1313 820.5 1277 C865.5 1241 888 1184 888 1106 C888 1039.33 869.333 981.333 832 932 C804.667 896.667 770.667 871.667 730 857 C692 842.333 634.333 835 557 835 L452 835 L512 1331 Z " />
<glyph glyph-name="S" unicode="S" horiz-adv-x="1145" d="M1121 1347 C1055.67 1430.33 992 1489.33 930 1524 C869.333 1558.67 796 1576 710 1576 C578 1576 468.667 1534.67 382 1452 C295.333 1370 252 1266.67 252 1142 C252 1048.67 274 971 318 909 C364 847 445 781.667 561 713 C611.667 683 653.5 656 686.5 632 C719.5 608 744.333 586.333 761 567 C794.333 529.667 811 484 811 430 C811 351.333 788.167 290.667 742.5 248 C696.833 205.333 633.667 184 553 184 C480.333 184 421.333 199.667 376 231 C330.667 262.333 284.333 319.667 237 403 L63 285 C95 228.333 128.333 180.167 163 140.5 C197.667 100.833 235 68.6667 275 44 C354.333 -5.33333 451.333 -30 566 -30 C708 -30 822.333 11.3333 909 94 C997 176.667 1041 284.667 1041 418 C1041 520.667 1018.33 603.667 973 667 C928.333 729.667 839.667 799.667 707 877 C662.333 903.667 625.167 928 595.5 950 C565.833 972 543.333 991.667 528 1009 C497.333 1045.67 482 1089.33 482 1140 C482 1203.33 504.333 1256 549 1298 C593.667 1340 650 1361 718 1361 C812 1361 895.333 1307.67 968 1201 L1121 1347 Z " />
<glyph glyph-name="T" unicode="T" horiz-adv-x="982" d="M712 1331 L1065 1331 L1091 1544 L140 1544 L114 1331 L483 1331 L319 0 L548 0 L712 1331 Z " />
<glyph glyph-name="U" unicode="U" horiz-adv-x="1524" d="M1463 1544 L1235 1544 L1127 662 C1105.67 492.667 1065 370.333 1005 295 C945 220.333 857 183 741 183 C641.667 183 563 212.667 505 272 C447.667 331.333 419 412.333 419 515 C419 534.333 419.833 555.333 421.5 578 C423.167 600.667 425.667 625.333 429 652 L538 1544 L310 1544 L204 681 C199.333 643 195.833 607 193.5 573 C191.167 539 190 506.667 190 476 C190 332 242.667 211.333 348 114 C454 18 586.333 -30 745 -30 C943 -30 1097.67 42.6667 1209 188 C1278.33 281.333 1325.67 428.667 1351 630 L1463 1544 Z " />
<glyph glyph-name="V" unicode="V" horiz-adv-x="1368" d="M1477 1544 L1230 1544 L664 468 L344 1544 L112 1544 L598 -70 L1477 1544 Z " />
<glyph glyph-name="W" unicode="W" horiz-adv-x="2130" d="M2239 1544 L1994 1544 L1489 517 L1178 1597 L635 489 L346 1544 L112 1544 L586 -84 L1125 1014 L1431 -66 L2239 1544 Z " />
<glyph glyph-name="X" unicode="X" horiz-adv-x="1254" d="M789 804 L1311 1544 L1041 1544 L680 1013 L442 1544 L199 1544 L538 828 L-48 0 L220 0 L647 614 L934 0 L1174 0 L789 804 Z " />
<glyph glyph-name="Y" unicode="Y" horiz-adv-x="1195" d="M732 691 L1304 1544 L1041 1544 L636 930 L351 1544 L105 1544 L506 707 L418 0 L647 0 L732 691 Z " />
<glyph glyph-name="Z" unicode="Z" horiz-adv-x="1277" d="M1176 213 L412 213 L1323 1544 L301 1544 L275 1331 L925 1331 L12 0 L1149 0 L1176 213 Z " />
<glyph glyph-name="bracketleft" unicode="&#x5b;" horiz-adv-x="718" d="M70 -410 L534 -410 L554 -240 L276 -240 L493 1519 L771 1519 L791 1689 L328 1689 L70 -410 Z " />
<glyph glyph-name="backslash" unicode="&#x5c;" horiz-adv-x="981" d="M217 1675 L656 -448 L824 -408 L386 1712 L217 1675 Z " />
<glyph glyph-name="bracketright" unicode="&#x5d;" horiz-adv-x="718" d="M675 1689 L212 1689 L191 1519 L469 1519 L253 -240 L-24 -240 L-45 -410 L418 -410 L675 1689 Z " />
<glyph glyph-name="asciicircum" unicode="&#x5e;" horiz-adv-x="1158" d="M308 812 L606 1367 L904 812 L1150 812 L758 1551 L454 1551 L63 812 L308 812 Z " />
<glyph glyph-name="underscore" unicode="&#x5f;" horiz-adv-x="1158" d="M28 -129 L28 -339 L1186 -339 L1186 -129 L28 -129 Z " />
<glyph glyph-name="grave" unicode="&#x60;" horiz-adv-x="1158" d="M481 1378 L726 1092 L834 1160 L643 1488 L481 1378 Z " />
<glyph glyph-name="a" unicode="a" horiz-adv-x="1233" d="M1130 942 L909 942 L894 818 C844 872 795 910 747 932 C699.667 954 642.333 965 575 965 C432.333 965 315.333 915.333 224 816 C134 716.667 89 589.333 89 434 C89 299.333 128.333 189.667 207 105 C285.667 20.3333 387.333 -22 512 -22 C613.333 -22 711.333 19.3333 806 102 L793 0 L1014 0 L1130 942 Z M861 498 C861 406.667 831.333 327.333 772 260 C712.667 194 642.333 161 561 161 C487.667 161 427.667 187.333 381 240 C334.333 292.667 311 360.333 311 443 C311 537.667 339 617.667 395 683 C451 747.667 520.333 780 603 780 C679 780 741 753.667 789 701 C837 649 861 581.333 861 498 L861 498 Z " />
<glyph glyph-name="b" unicode="b" horiz-adv-x="1256" d="M519 1689 L298 1689 L90 0 L311 0 L327 126 C423 27.3333 535 -22 663 -22 C800.333 -22 916.667 28 1012 128 C1106.67 226.667 1154 350.333 1154 499 C1154 634.333 1112.33 745.667 1029 833 C945.667 921 840 965 712 965 C660 965 611.667 957.333 567 942 C524.333 927.333 474 898.333 416 855 L519 1689 Z M932 494 C932 402 902 323.667 842 259 C783.333 194.333 711 162 625 162 C547 162 483.667 188 435 240 C386.333 290.667 362 357.667 362 441 C362 540.333 390.333 621.333 447 684 C503.667 748 575.333 780 662 780 C742 780 807 753.333 857 700 C907 646.667 932 578 932 494 L932 494 Z " />
<glyph glyph-name="c" unicode="c" horiz-adv-x="939" d="M902 851 C798.667 932.333 690.333 973 577 973 C438.333 973 322.333 923.333 229 824 C136.333 725.333 90 602.333 90 455 C90 311.667 133 195 219 105 C305.667 15 418 -30 556 -30 C633.333 -30 714.667 -12.6667 800 22 L829 255 C745.667 187.667 665 154 587 154 C505.667 154 439.333 181.667 388 237 C337.333 291.667 312 364.667 312 456 C312 553.333 339 633 393 695 C447 757 516 788 600 788 C655.333 788 703.333 775.667 744 751 C785.333 725.667 828.667 684 874 626 L902 851 Z " />
<glyph glyph-name="d" unicode="d" horiz-adv-x="1274" d="M1246 1689 L1025 1689 L916 799 C860.667 859.667 807.667 902.667 757 928 C708.333 952.667 648.333 965 577 965 C437.667 965 322 916 230 818 C138 720 92 597 92 449 C92 310.333 134 197 218 109 C302 21.6667 410 -22 542 -22 C600 -22 648.667 -14 688 2 C728 19.3333 775.333 52.3333 830 101 L818 0 L1038 0 L1246 1689 Z M882 512 C882 413.333 852.667 330.667 794 264 C736 196 665 162 581 162 C500.333 162 435.667 187 387 237 C338.333 287.667 314 354.667 314 438 C314 536.667 342.333 618.333 399 683 C455.667 747.667 527.333 780 614 780 C694 780 758.667 755.333 808 706 C857.333 656.667 882 592 882 512 L882 512 Z " />
<glyph glyph-name="e" unicode="e" horiz-adv-x="1149" d="M316 392 L1044 392 C1046 428 1047 454 1047 470 C1047 623.333 1006 745.667 924 837 C843.333 927.667 733 973 593 973 C448.333 973 328.667 922.667 234 822 C138.667 720.667 91 594.667 91 444 C91 300 134.333 185 221 99 C307.667 13 424 -30 570 -30 C662 -30 738.667 -14.3333 800 17 C860.667 47.6667 919.667 101.667 977 179 L812 270 C756.667 192.667 677.333 154 574 154 C498.667 154 436.667 176.333 388 221 C340 265.667 316 322.667 316 392 L316 392 Z M823 570 L328 570 C367.333 715.333 452 788 582 788 C719.333 788 799.667 715.333 823 570 L823 570 Z " />
<glyph glyph-name="f" unicode="f" horiz-adv-x="629" d="M416 737 L617 737 L642 942 L442 942 L486 1302 C495.333 1375.33 509 1425.67 527 1453 C546.333 1480.33 576 1494 616 1494 C650.667 1494 688.667 1477.33 730 1444 L754 1638 C682.667 1672 620.333 1689 567 1689 C479 1689 411.333 1662.67 364 1610 C316.667 1557.33 286.333 1475 273 1363 L221 942 L77 942 L52 737 L196 737 L105 0 L326 0 L416 737 Z " />
<glyph glyph-name="g" unicode="g" horiz-adv-x="1256" d="M1152 942 L931 942 L917 825 C866.333 877.667 817.333 914 770 934 C726.667 954.667 670 965 600 965 C454 965 332.333 915.333 235 816 C138.333 717.333 90 593 90 443 C90 309.667 131.667 198.333 215 109 C298.333 21.6667 404 -22 532 -22 C634.667 -22 732.667 13.6667 826 85 L810 -44 C797.333 -149.333 767.333 -226.167 720 -274.5 C672.667 -322.833 603.667 -347 513 -347 C429 -347 367 -326.833 327 -286.5 C287 -246.167 264.333 -181.667 259 -93 L45 -93 C45 -175 54.3333 -238.667 73 -284 C91.6667 -333.333 124.333 -377.333 171 -416 C262.333 -493.333 381.667 -532 529 -532 C671.667 -532 787.667 -492 877 -412 C923 -370 957.667 -319.667 981 -261 C992.333 -232.333 1002.5 -197 1011.5 -155 C1020.5 -113 1028.67 -63.6667 1036 -7 L1152 942 Z M898 495 C898 399 868.333 319.333 809 256 C750.333 193.333 675.333 162 584 162 C502 162 436 187.667 386 239 C336.667 292.333 312 361 312 445 C312 541 340.667 620.667 398 684 C456 748 528.667 780 616 780 C700 780 768 753.667 820 701 C872 649 898 580.333 898 495 L898 495 Z " />
<glyph glyph-name="h" unicode="h" horiz-adv-x="1131" d="M519 1689 L298 1689 L90 0 L311 0 L372 493 C395.333 684.333 477.667 780 619 780 C717.667 780 767 738 767 654 C767 629.333 765 601.667 761 571 L691 0 L912 0 L981 559 C984.333 589 987 615.833 989 639.5 C991 663.167 992 684.333 992 703 C992 781 963.667 844 907 892 C852.333 940.667 779 965 687 965 C595.667 965 505.667 930.667 417 862 L519 1689 Z " />
<glyph glyph-name="i" unicode="i" horiz-adv-x="529" d="M495 1390 C495 1423.33 482.667 1452 458 1476 C434 1500.67 405.667 1513 373 1513 C341 1513 313.333 1501.33 290 1478 C267.333 1455.33 256 1427.67 256 1395 C256 1362.33 267.667 1333.33 291 1308 C315 1284 343.333 1272 376 1272 C408.667 1272 436.667 1283.67 460 1307 C483.333 1330.33 495 1358 495 1390 L495 1390 Z M426 942 L205 942 L89 0 L310 0 L426 942 Z " />
<glyph glyph-name="j" unicode="j" horiz-adv-x="540" d="M492 1389 C492 1423 479.667 1452 455 1476 C431 1500.67 402.333 1513 369 1513 C337 1513 309.333 1501.33 286 1478 C262.667 1454.67 251 1427 251 1395 C251 1361.67 263 1332.67 287 1308 C311 1284 339.333 1272 372 1272 C405.333 1272 433.667 1283.67 457 1307 C480.333 1330.33 492 1357.67 492 1389 L492 1389 Z M426 942 L205 942 L23 -539 L244 -539 L426 942 Z " />
<glyph glyph-name="k" unicode="k" horiz-adv-x="1056" d="M519 1689 L298 1689 L90 0 L311 0 L366 448 L709 0 L976 0 L579 512 L1073 942 L778 942 L382 576 L519 1689 Z " />
<glyph glyph-name="l" unicode="l" horiz-adv-x="530" d="M518 1689 L298 1689 L90 0 L311 0 L518 1689 Z " />
<glyph glyph-name="m" unicode="m" horiz-adv-x="1626" d="M434 942 L206 942 L90 0 L311 0 L376 525 C396.667 695 468.333 780 591 780 C675.667 780 718 741 718 663 C718 644.333 715 609.667 709 559 L640 0 L861 0 L925 526 C931 570.667 939.5 609.167 950.5 641.5 C961.5 673.833 975.5 700.167 992.5 720.5 C1009.5 740.833 1030 755.833 1054 765.5 C1078 775.167 1106.33 780 1139 780 C1221.67 780 1263 739 1263 657 C1263 633 1260 595.667 1254 545 L1186 0 L1407 0 L1471 519 C1476.33 565 1480.5 603.667 1483.5 635 C1486.5 666.333 1488 690.667 1488 708 C1488 879.333 1394.67 965 1208 965 C1100 965 999.333 915.333 906 816 C880.667 873.333 852 912.333 820 933 C788 955 742.333 966 683 966 C585 966 498.667 928.667 424 854 L434 942 Z " />
<glyph glyph-name="n" unicode="n" horiz-adv-x="1127" d="M426 942 L206 942 L90 0 L311 0 L367 454 C371.667 492 377 525.5 383 554.5 C389 583.5 396.333 608 405 628 C421 667.333 445.667 700.667 479 728 C519.667 762.667 568.333 780 625 780 C717 780 763 737.333 763 652 C763 639.333 762.5 625 761.5 609 C760.5 593 758.667 574.667 756 554 L688 0 L908 0 L971 506 C979 572.667 983 630 983 678 C983 766.667 956 836.667 902 888 C846.667 939.333 773 965 681 965 C591.667 965 503.333 928.333 416 855 L426 942 Z " />
<glyph glyph-name="o" unicode="o" horiz-adv-x="1232" d="M1130 480 C1130 626 1082.67 744.333 988 835 C894 927 772.333 973 623 973 C471 973 344.333 924.333 243 827 C142.333 730.333 92 609 92 463 C92 320.333 140.667 202.333 238 109 C334.667 16.3333 459.333 -30 612 -30 C758 -30 880.667 19 980 117 C1080 215 1130 336 1130 480 L1130 480 Z M907 491 C907 392.333 878.667 311.667 822 249 C766 185.667 694.667 154 608 154 C521.333 154 450.667 183 396 241 C341.333 297.667 314 372.667 314 466 C314 558.667 343 635.667 401 697 C459 757.667 532.333 788 621 788 C706.333 788 775.333 760.667 828 706 C880.667 653.333 907 581.667 907 491 L907 491 Z " />
<glyph glyph-name="p" unicode="p" horiz-adv-x="1254" d="M426 942 L205 942 L23 -539 L244 -539 L327 135 C381 75.6667 432 34.6667 480 12 C526 -10.6667 585 -22 657 -22 C797.667 -22 915.333 28.3333 1010 129 C1105.33 230.333 1153 355 1153 503 C1153 636.333 1111.33 746.667 1028 834 C944.667 921.333 840.333 965 715 965 C609.667 965 509.333 924.333 414 843 L426 942 Z M932 494 C932 402 903.333 323.333 846 258 C788.667 194 718 162 634 162 C554 162 488.667 188 438 240 C387.333 290.667 362 357.667 362 441 C362 536.333 392 616.667 452 682 C512 747.333 586.667 780 676 780 C750.667 780 812 753 860 699 C908 645.667 932 577.333 932 494 L932 494 Z " />
<glyph glyph-name="q" unicode="q" horiz-adv-x="1259" d="M1155 942 L934 942 L918 807 C864.667 866.333 814.333 907.333 767 930 C716.333 953.333 656.333 965 587 965 C445 965 326.333 915.333 231 816 C135.667 716.667 88 593.333 88 446 C88 310.667 129.667 198.333 213 109 C297 21.6667 403.667 -22 533 -22 C640.333 -22 739 14 829 86 L752 -539 L973 -539 L1155 942 Z M886 496 C886 404 856.333 325.333 797 260 C737.667 194.667 666.667 162 584 162 C504 162 438.333 188.667 387 242 C335.667 297.333 310 366 310 448 C310 540 339.667 618.667 399 684 C457.667 748 530.333 780 617 780 C693.667 780 757.667 753 809 699 C860.333 645.667 886 578 886 496 L886 496 Z " />
<glyph glyph-name="r" unicode="r" horiz-adv-x="783" d="M427 942 L206 942 L90 0 L311 0 L369 470 C375 522 383.167 566.667 393.5 604 C403.833 641.333 416.833 671.833 432.5 695.5 C448.167 719.167 466.667 736.5 488 747.5 C509.333 758.5 534 764 562 764 C602.667 764 643.333 746.667 684 712 L825 894 C770.333 942.667 709.667 967 643 967 C567 967 491.667 931.667 417 861 L427 942 Z " />
<glyph glyph-name="s" unicode="s" horiz-adv-x="827" d="M767 838 C677 928 578.667 973 472 973 C375.333 973 295.667 945 233 889 C170.333 833 139 762.333 139 677 C139 620.333 152.667 572.333 180 533 C207.333 495.667 256.333 457.333 327 418 C367 396.667 398.667 378.333 422 363 C445.333 347.667 461.667 335.667 471 327 C490.333 309.667 500 287 500 259 C500 227 488.5 201 465.5 181 C442.5 161 412 151 374 151 C306.667 151 243.333 186.667 184 258 L39 157 C129.667 32.3333 244 -30 382 -30 C483.333 -30 565.667 -3.33333 629 50 C691 104 722 175.667 722 265 C722 327 706.667 377.333 676 416 C647.333 455.333 590.667 498.667 506 546 C446.667 578.667 407.667 604.667 389 624 C370.333 642.667 361 665.667 361 693 C361 721 372.167 744.5 394.5 763.5 C416.833 782.5 445 792 479 792 C529 792 583.333 765.667 642 713 L767 838 Z " />
<glyph glyph-name="t" unicode="t" horiz-adv-x="601" d="M417 737 L621 737 L646 942 L442 942 L496 1379 L275 1379 L221 942 L96 942 L71 737 L196 737 L105 0 L326 0 L417 737 Z " />
<glyph glyph-name="u" unicode="u" horiz-adv-x="1121" d="M1017 942 L797 942 L728 383 C718 301 698 243.667 668 211 C638 178.333 591.333 162 528 162 C411.333 162 353 211.667 353 311 C353 322.333 353.667 336.5 355 353.5 C356.333 370.5 358.333 390.333 361 413 L426 942 L205 942 L143 433 C139.667 406.333 137.167 382.667 135.5 362 C133.833 341.333 133 323.333 133 308 C133 207.333 167.667 127 237 67 C306.333 7.66667 399 -22 515 -22 C637 -22 735.333 7.33333 810 66 C854 100.667 885.333 140.333 904 185 C913.333 208.333 922 237.333 930 272 C938 306.667 944.667 347.333 950 394 L1017 942 Z " />
<glyph glyph-name="v" unicode="v" horiz-adv-x="998" d="M1034 942 L781 942 L443 340 L281 942 L51 942 L386 -122 L1034 942 Z " />
<glyph glyph-name="w" unicode="w" horiz-adv-x="1490" d="M1526 942 L1275 942 L966 367 L786 968 L450 367 L284 942 L51 942 L393 -99 L730 509 L920 -99 L1526 942 Z " />
<glyph glyph-name="x" unicode="x" horiz-adv-x="1109" d="M684 506 L1079 942 L797 942 L572 672 L405 942 L152 942 L433 524 L-45 0 L240 0 L544 358 L767 0 L1023 0 L684 506 Z " />
<glyph glyph-name="y" unicode="y" horiz-adv-x="1078" d="M1113 942 L860 942 L519 340 L286 942 L50 942 L387 117 L8 -539 L260 -539 L1113 942 Z " />
<glyph glyph-name="z" unicode="z" horiz-adv-x="1062" d="M975 205 L418 205 L1053 942 L165 942 L140 737 L613 737 L-18 0 L950 0 L975 205 Z " />
<glyph glyph-name="braceleft" unicode="&#x7b;" horiz-adv-x="732" d="M747 1501 L772 1702 L714 1704 L642 1706 C549.333 1706 478.5 1680.17 429.5 1628.5 C380.5 1576.83 349 1494 335 1380 L281 934 C268.333 828 217.333 764.333 128 743 L104 550 C142 540.667 171.167 522.5 191.5 495.5 C211.833 468.5 219.667 437.667 215 403 L155 -89 C151 -121 149 -153.333 149 -186 C149 -228.667 153.5 -265.333 162.5 -296 C171.5 -326.667 185.667 -351.667 205 -371 C224.333 -390.333 249.167 -404.667 279.5 -414 C309.833 -423.333 346 -428 388 -428 L454 -424 L511 -424 L535 -222 L507 -223 C422.333 -223 380 -190.333 380 -125 C380 -99.6667 382 -70.3333 386 -37 L442 416 C453.333 509.333 415.667 583.333 329 638 C389 672 430.333 707.333 453 744 C477.667 784 494.333 842 503 918 L553 1320 C561.667 1394 576.667 1442.67 598 1466 C619.333 1489.33 659.667 1501 719 1501 L747 1501 Z " />
<glyph glyph-name="bar" unicode="&#x7c;" horiz-adv-x="1158" d="M491 1544 L491 -385 L723 -385 L723 1544 L491 1544 Z " />
<glyph glyph-name="braceright" unicode="&#x7d;" horiz-adv-x="732" d="M13 -222 L-11 -425 L46 -425 L118 -428 C164 -428 204.5 -421.667 239.5 -409 C274.5 -396.333 304.5 -376.667 329.5 -350 C354.5 -323.333 374.667 -289.5 390 -248.5 C405.333 -207.5 416.667 -158.667 424 -102 L479 344 C491.667 450 542.667 513.667 632 535 L656 727 C618 736.333 588.833 754.5 568.5 781.5 C548.167 808.5 540 839.333 544 874 L605 1368 C609 1400 611 1432.33 611 1465 C611 1550.33 592.167 1612 554.5 1650 C516.833 1688 456 1707 372 1707 L306 1703 L249 1703 L224 1501 L253 1502 C337.667 1502 380 1469.33 380 1404 C380 1378 378 1348.67 374 1316 L318 861 C307.333 768.333 345 694.667 431 640 C371 606.667 329.333 571 306 533 C282.667 491 266 433 256 359 L207 -41 C198.333 -115 183 -164 161 -188 C139.667 -211.333 99.6667 -223 41 -223 L13 -222 Z " />
<glyph glyph-name="asciitilde" unicode="&#x7e;" horiz-adv-x="1544" d="M240 1409 L360 1316 C365.333 1323.33 375.333 1336.83 390 1356.5 C404.667 1376.17 423.667 1402.33 447 1435 C454.333 1445.67 469.333 1455.33 492 1464 C514.667 1474 534.333 1479 551 1479 C602.333 1479 670 1460.33 754 1423 C868 1371 955 1345 1015 1345 C1087.67 1345 1150.67 1366.67 1204 1410 C1256.67 1454 1308.67 1526.67 1360 1628 L1240 1721 C1238 1718.33 1234.67 1714 1230 1708 C1225.33 1702 1219.33 1694.33 1212 1685 L1151 1609 C1130.33 1582.33 1092 1569 1036 1569 C988 1569 917.333 1590.33 824 1633 C720.667 1679.67 636.333 1703 571 1703 C502.333 1703 443.667 1683 395 1643 C346.333 1603 300 1536.67 256 1444 L240 1409 Z " />
<glyph glyph-name="nonbreakingspace" unicode="&#xa0;" horiz-adv-x="632" d="" />
<glyph glyph-name="exclamdown" unicode="&#xa1;" horiz-adv-x="638" d="M252 1079 C252 1059 255.333 1040.5 262 1023.5 C268.667 1006.5 278 991.833 290 979.5 C302 967.167 316.167 957.5 332.5 950.5 C348.833 943.5 366.667 940 386 940 C404.667 940 422.167 943.333 438.5 950 C454.833 956.667 469 965.833 481 977.5 C493 989.167 502.5 1003 509.5 1019 C516.5 1035 520 1052.67 520 1072 C520 1111.33 506.667 1144.33 480 1171 C454 1198.33 421.667 1212 383 1212 C345.667 1212 314.667 1199 290 1173 C264.667 1147.67 252 1116.33 252 1079 L252 1079 Z M105 -354 L323 -354 L463 784 L245 784 L105 -354 Z " />
<glyph glyph-name="cent" unicode="&#xa2;" horiz-adv-x="1264" d="M725 287 C757 288.333 790.5 293.5 825.5 302.5 C860.5 311.5 898 323.667 938 339 L967 572 C886.333 497.333 804.333 460 721 460 C639 460 572 489 520 547 C468.667 606.333 443 681.667 443 773 C443 871 470.667 952.667 526 1018 C582 1082.67 652.333 1115 737 1115 C791.667 1115 840 1102 882 1076 C924 1050 967.333 1005.67 1012 943 L1040 1167 C974 1219.67 909.333 1254.67 846 1272 L877 1521 L707 1521 L678 1288 C553.333 1282 448.333 1229.33 363 1130 C278.333 1031.33 236 911.667 236 771 C236 651.667 263 552.667 317 474 C371 395.333 451 339 557 305 L523 23 L693 23 L725 287 Z " />
<glyph glyph-name="sterling" unicode="&#xa3;" horiz-adv-x="1264" d="M1101 294 C1025 217.333 946 179 864 179 C807.333 179 745 194.333 677 225 L601 259 C585 266.333 568.333 272.833 551 278.5 C533.667 284.167 515.667 289.333 497 294 C531 396 548 480 548 546 C548 552 547.833 559.667 547.5 569 C547.167 578.333 546.667 589.333 546 602 L888 602 L906 762 L534 762 C514 864.667 504 952.333 504 1025 C504 1129.67 529.333 1212.33 580 1273 C630.667 1335 698.667 1366 784 1366 C941.333 1366 1027.67 1246.33 1043 1007 L1246 1071 C1212.67 1402.33 1060.33 1568 789 1568 C641 1568 519.667 1517.67 425 1417 C330.333 1316.33 283 1188 283 1032 C283 1008.67 284.5 977.667 287.5 939 C290.5 900.333 295.333 854 302 800 L307 754 L126 754 L107 594 L330 594 C331.333 576 332.5 560.5 333.5 547.5 C334.5 534.5 335 524 335 516 C335 446.667 318 372.667 284 294 C186 271.333 98.3333 212.333 21 117 L142 -39 C216 51 293.333 96 374 96 C413.333 96 505 71.3333 649 22 C735.667 -8 808.333 -23 867 -23 C984.333 -23 1096.67 23.6667 1204 117 L1101 294 Z " />
<glyph glyph-name="currency" unicode="&#xa4;" horiz-adv-x="1264" d="M18 301 L144 174 L372 400 C482.667 327.333 593 291 703 291 C818.333 291 928 328 1032 402 L1261 174 L1387 301 L1157 531 C1229.67 635.667 1266 743 1266 853 C1266 961 1229 1069.67 1155 1179 L1382 1405 L1255 1533 L1026 1307 C920.667 1379 812.667 1415 702 1415 C588.667 1415 478.667 1378 372 1304 L142 1534 L14 1406 L245 1176 C171.667 1070.67 135 963.333 135 854 C135 738.667 171.667 630.333 245 529 L18 301 Z M1054 847 C1054 751.667 1019.33 669.333 950 600 C881.333 531.333 798.333 497 701 497 C603 497 519.333 531.667 450 601 C381.333 669.667 347 753.333 347 852 C347 951.333 381.333 1035.33 450 1104 C519.333 1173.33 602.667 1208 700 1208 C799.333 1208 883 1173 951 1103 C1019.67 1034.33 1054 949 1054 847 L1054 847 Z " />
<glyph glyph-name="yen" unicode="&#xa5;" horiz-adv-x="1264" d="M152 872 L484 872 L557 703 L131 703 L112 547 L538 547 L470 0 L698 0 L766 547 L1156 547 L1175 703 L791 703 L899 872 L1196 872 L1215 1028 L998 1028 L1325 1544 L1062 1544 L688 930 L433 1544 L188 1544 L414 1028 L171 1028 L152 872 Z " />
<glyph glyph-name="brokenbar" unicode="&#xa6;" horiz-adv-x="1158" d="M491 1544 L491 758 L723 758 L723 1544 L491 1544 Z M491 355 L491 -385 L723 -385 L723 355 L491 355 Z " />
<glyph glyph-name="section" unicode="&#xa7;" horiz-adv-x="1264" d="M1188 1218 C1188 1370.67 1148.33 1490.67 1069 1578 C989.667 1665.33 881 1709 743 1709 C612.333 1709 505.667 1670 423 1592 C340.333 1514 299 1414.33 299 1293 C299 1175 351.333 1074 456 990 C286 912.667 201 786.333 201 611 C201 437.667 294.667 310.333 482 229 L621 168 C729 120.667 783 52.6667 783 -36 C783 -98.6667 761.667 -149.333 719 -188 C676.333 -226.667 620.333 -246 551 -246 C478.333 -246 422 -224.667 382 -182 C342 -139.333 322.333 -78.6667 323 0 L323 47 L116 47 L116 15 C116 -128.333 154.167 -238.333 230.5 -315 C306.833 -391.667 416.667 -430 560 -430 C690.667 -430 797.667 -394.333 881 -323 C964.333 -251.667 1006 -159.333 1006 -46 C1006 17.3333 995 69 973 109 C962.333 128.333 945.667 151 923 177 C900.333 203 871.667 232.333 837 265 C1013.67 343 1102 465.667 1102 633 C1102 748.333 1064.67 843 990 917 C940.667 964.333 850.667 1014.67 720 1068 C682.667 1082.67 650.833 1097.83 624.5 1113.5 C598.167 1129.17 576.667 1145.83 560 1163.5 C543.333 1181.17 531.333 1200.33 524 1221 C516.667 1241.67 513 1264.33 513 1289 C513 1350.33 535 1402 579 1444 C623.667 1486.67 678.333 1508 743 1508 C815 1508 873 1486 917 1442 C961 1399.33 982.667 1341.67 982 1269 L982 1218 L1188 1218 Z M878 628 C878 567.333 856 516.667 812 476 C769.333 435.333 714.667 415 648 415 C581.333 415 526.667 435 484 475 C441.333 515.667 420 567 420 629 C420 689.667 441.333 740.333 484 781 C527.333 822.333 581 843 645 843 C713.667 843 769.333 822.667 812 782 C856 740.667 878 689.333 878 628 L878 628 Z " />
<glyph glyph-name="dieresis" unicode="&#xa8;" horiz-adv-x="1158" d="M605 1267 C605 1299.67 593 1328.67 569 1354 C545 1378.67 516.667 1391 484 1391 C451.333 1391 423.333 1379.33 400 1356 C377.333 1333.33 366 1305.33 366 1272 C366 1240 377.667 1211.33 401 1186 C425 1162 453.333 1150 486 1150 C519.333 1150 547.333 1161.33 570 1184 C593.333 1207.33 605 1235 605 1267 L605 1267 Z M966 1267 C966 1299.67 954 1328.67 930 1354 C906 1378.67 877.333 1391 844 1391 C812 1391 784.333 1379.33 761 1356 C737.667 1332.67 726 1304.67 726 1272 C726 1240 737.667 1211.33 761 1186 C785 1162 813.333 1150 846 1150 C879.333 1150 907.333 1161.33 930 1184 C954 1206.67 966 1234.33 966 1267 L966 1267 Z " />
<glyph glyph-name="copyright" unicode="&#xa9;" horiz-adv-x="1699" d="M1238 1149 L1231 1153 C1122.33 1219.67 1012 1253 900 1253 C759.333 1253 642.667 1206 550 1112 C457.333 1019.33 411 901.667 411 759 C411 619 455 506 543 420 C631.667 334 747.667 291 891 291 C964.333 291 1048 306.667 1142 338 L1153 342 L1177 543 C1171 538.333 1165.67 534.167 1161 530.5 C1156.33 526.833 1152.33 523.667 1149 521 C1083.67 471 1007 446 919 446 C811 446 728.333 472.667 671 526 C613.667 579.333 585 656 585 756 C585 858.667 614.333 941.333 673 1004 C731.667 1066.67 808.667 1098 904 1098 C1015.33 1098 1111.33 1059.67 1192 983 C1194.67 980.333 1197.83 977.333 1201.5 974 C1205.17 970.667 1209.67 966.667 1215 962 L1238 1149 Z M1680 774 C1680 930 1636.33 1075.67 1549 1211 C1462.33 1345.67 1348 1444 1206 1506 C1102.67 1552.67 991 1576 871 1576 C685 1576 517.333 1514.33 368 1391 C276 1315 204.667 1223 154 1115 C103.333 1009.67 78 896.667 78 776 C78 552 156 361.667 312 205 C469.333 47.6667 658.667 -31 880 -31 C1101.33 -31 1290 47.3333 1446 204 C1602 360.667 1680 550.667 1680 774 L1680 774 Z M874 1459 C1020.67 1459 1153 1417 1271 1333 C1354.33 1273.67 1421.67 1192.67 1473 1090 C1524.33 984 1550 878.667 1550 774 C1550 583.333 1484.67 420.667 1354 286 C1222.67 152 1064.67 85 880 85 C693.333 85 534.667 152.333 404 287 C272.667 422.333 207 585 207 775 C207 961 272.667 1121.67 404 1257 C534.667 1391.67 691.333 1459 874 1459 L874 1459 Z " />
<glyph glyph-name="ordfeminine" unicode="&#xaa;" horiz-adv-x="788" d="M835 1544 L667 1544 L660 1491 C609.333 1535.67 547.333 1558 474 1558 C381.333 1558 305.667 1527.67 247 1467 C188.333 1408.33 159 1331.33 159 1236 C159 1153.33 184.667 1085.33 236 1032 C288 979.333 354.333 953 435 953 C485 953 538.667 970.333 596 1005 L596 967 L764 967 L835 1544 Z M637 1270 C637 1220 620.667 1177.67 588 1143 C556 1108.33 517 1091 471 1091 C449.667 1091 430.333 1094.83 413 1102.5 C395.667 1110.17 380.667 1120.67 368 1134 C355.333 1147.33 345.5 1163.5 338.5 1182.5 C331.5 1201.5 328 1222 328 1244 C328 1294.67 343.333 1336.33 374 1369 C405.333 1402.33 444 1419 490 1419 C532.667 1419 567.667 1405 595 1377 C623 1349 637 1313.33 637 1270 L637 1270 Z " />
<glyph glyph-name="guillemotleft" unicode="&#xab;" horiz-adv-x="931" d="M335 61 L452 133 L242 480 L542 843 L436 934 L72 486 L335 61 Z M670 61 L790 137 L576 480 L877 843 L773 934 L407 484 L670 61 Z " />
<glyph glyph-name="logicalnot" unicode="&#xac;" horiz-adv-x="1158" d="M877 0 L1109 0 L1109 618 L105 618 L105 402 L877 402 L877 0 Z " />
<glyph glyph-name="softhyphen" unicode="&#xad;" horiz-adv-x="432" d="M438 574 L5 574 L-15 399 L416 399 L438 574 Z " />
<glyph glyph-name="registered" unicode="&#xae;" horiz-adv-x="1699" d="M954 693 L968 696 C1001.33 704.667 1031.17 717.333 1057.5 734 C1083.83 750.667 1106.33 770.667 1125 794 C1143.67 817.333 1157.83 843.5 1167.5 872.5 C1177.17 901.5 1182 932.667 1182 966 C1182 1046 1155.33 1111.67 1102 1163 C1050.67 1211 967.667 1235 853 1235 L650 1235 L536 309 L708 309 L754 677 L782 677 L1012 309 L1201 309 L954 693 Z M803 1081 L847 1081 C954.333 1081 1008 1041.33 1008 962 C1008 870 946 824 822 824 L772 824 L803 1081 Z M1680 774 C1680 930 1636.33 1075.67 1549 1211 C1462.33 1345.67 1348 1444 1206 1506 C1102.67 1552.67 991 1576 871 1576 C685 1576 517.333 1514.33 368 1391 C276 1315 204.667 1223 154 1115 C103.333 1009.67 78 896.667 78 776 C78 552 156 361.667 312 205 C469.333 47.6667 658.667 -31 880 -31 C1101.33 -31 1290 47.3333 1446 204 C1602 360.667 1680 550.667 1680 774 L1680 774 Z M874 1459 C1020.67 1459 1153 1417 1271 1333 C1354.33 1273.67 1421.67 1192.67 1473 1090 C1524.33 984 1550 878.667 1550 774 C1550 583.333 1484.67 420.667 1354 286 C1222.67 152 1064.67 85 880 85 C693.333 85 534.667 152.333 404 287 C272.667 422.333 207 585 207 775 C207 961 272.667 1121.67 404 1257 C534.667 1391.67 691.333 1459 874 1459 L874 1459 Z " />
<glyph glyph-name="&amp;#xaf;" unicode="&#xaf;" horiz-adv-x="1158" d="M349 1341 L330 1181 L971 1181 L991 1341 L349 1341 Z " />
<glyph glyph-name="&amp;#x2c9;" unicode="&#x2c9;" horiz-adv-x="1158" d="M349 1341 L330 1181 L971 1181 L991 1341 L349 1341 Z " />
<glyph glyph-name="degree" unicode="&#xb0;" horiz-adv-x="1313" d="M750 1567 C662.667 1567 588.667 1537 528 1477 C467.333 1418.33 437 1345.33 437 1258 C437 1173.33 467 1100.67 527 1040 C587.667 980 660.667 950 746 950 C831.333 950 904 980 964 1040 C1024.67 1100.67 1055 1173.67 1055 1259 C1055 1343.67 1025 1416 965 1476 C905 1536.67 833.333 1567 750 1567 L750 1567 Z M748 1413 C792.667 1413 830.333 1397.67 861 1367 C892.333 1337 908 1300.33 908 1257 C908 1210.33 892 1170.67 860 1138 C829.333 1105.33 791.333 1089 746 1089 C702 1089 664 1105.33 632 1138 C600 1170.67 584 1210.33 584 1257 C584 1301 599.667 1338 631 1368 C663 1398 702 1413 748 1413 L748 1413 Z " />
<glyph glyph-name="plusminus" unicode="&#xb1;" horiz-adv-x="1264" d="M127 695 L569 695 L569 260 L757 260 L757 695 L1199 695 L1199 880 L757 880 L757 1307 L569 1307 L569 880 L127 880 L127 695 Z M127 0 L1199 0 L1199 186 L127 186 L127 0 Z " />
<glyph glyph-name="twosuperior" unicode="&#xb2;" horiz-adv-x="896" d="M776 759 L441 759 L649 975 C685 1011.67 714.833 1044.17 738.5 1072.5 C762.167 1100.83 779.667 1125.33 791 1146 C813.667 1184.67 825 1230.67 825 1284 C825 1366.67 797.333 1433 742 1483 C686.667 1533 614.333 1558 525 1558 C423.667 1558 347.333 1531.67 296 1479 C244.667 1426.33 215.667 1344 209 1232 L358 1232 C367.333 1357.33 421.667 1420 521 1420 C621 1420 671 1373.67 671 1281 C671 1245.67 662.667 1215.67 646 1191 C632 1169 585 1115.67 505 1031 L114 618 L758 618 L776 759 Z " />
<glyph glyph-name="threesuperior" unicode="&#xb3;" horiz-adv-x="896" d="M161 860 C170.333 774.667 200 710.667 250 668 C300 625.333 369.667 604 459 604 C555 604 632.667 630 692 682 C751.333 735.333 781 804.333 781 889 C781 991.667 737 1061.67 649 1099 C743 1141 790 1213.67 790 1317 C790 1391 766.667 1449.33 720 1492 C672.667 1536 610 1558 532 1558 C348.667 1558 252 1463 242 1273 L382 1273 C390 1371 434.667 1420 516 1420 C596.667 1420 637 1382.33 637 1307 C637 1210.33 589 1162.67 493 1164 L451 1164 L434 1029 C563.333 1029 628 983.667 628 893 C628 871 623.833 850.667 615.5 832 C607.167 813.333 595.667 797.333 581 784 C566.333 770.667 548.667 760.333 528 753 C507.333 745.667 485 742 461 742 C371.667 742 320.667 781.333 308 860 L161 860 Z " />
<glyph glyph-name="acute" unicode="&#xb4;" horiz-adv-x="1158" d="M1004 1383 L839 1488 L571 1157 L684 1092 L1004 1383 Z " />
<glyph glyph-name="mu" unicode="&#xb5;" horiz-adv-x="1121" d="M244 -539 L289 40 C361 -2 439.333 -23 524 -23 C637.333 -23 732.667 6.66667 810 66 C852.667 100 883.667 139.667 903 185 C913.667 208.333 922.833 237.333 930.5 272 C938.167 306.667 944.667 347.333 950 394 L1017 942 L796 942 L728 383 C718 301 698 243.667 668 211 C638 178.333 591.333 162 528 162 C411.333 162 353 211.667 353 311 C353 322.333 353.667 336.5 355 353.5 C356.333 370.5 358.333 390.333 361 413 L426 942 L205 942 L23 -539 L244 -539 Z " />
<glyph glyph-name="paragraph" unicode="&#xb6;" horiz-adv-x="1264" d="M546 -220 L736 1328 L908 1328 L718 -220 L931 -220 L1122 1328 L1183 1328 L1337 1544 L621 1544 C297.667 1544 136 1404 136 1124 C136 1019.33 162.667 934.333 216 869 C270 805.667 341.333 774 430 774 L455 775 L332 -220 L546 -220 Z " />
<glyph glyph-name="periodcentered" unicode="&#xb7;" horiz-adv-x="632" d="M177 773 C177 733 190.333 699.667 217 673 C243.667 646.333 276.667 633 316 633 C354.667 633 387.333 646.333 414 673 C441.333 700.333 455 733.333 455 772 C455 810 441.333 842.667 414 870 C386.667 897.333 354 911 316 911 C278 911 245.333 897.333 218 870 C190.667 842.667 177 810.333 177 773 L177 773 Z " />
<glyph glyph-name="cedilla" unicode="&#xb8;" horiz-adv-x="1158" d="M690 -205 L504 -107 L304 -413 L422 -480 L690 -205 Z " />
<glyph glyph-name="onesuperior" unicode="&#xb9;" horiz-adv-x="896" d="M659 1544 L365 1544 L293 1403 L485 1403 L388 618 L545 618 L659 1544 Z " />
<glyph glyph-name="ordmasculine" unicode="&#xba;" horiz-adv-x="788" d="M486 945 C580.667 945 660 975 724 1035 C788 1095 820 1169.67 820 1259 C820 1345.67 789 1417 727 1473 C666.333 1529.67 587.667 1558 491 1558 C393.667 1558 311.333 1528.33 244 1469 C178.667 1409.67 146 1335.67 146 1247 C146 1159 178 1086.67 242 1030 C304.667 973.333 386 945 486 945 L486 945 Z M651 1261 C651 1234.33 647 1210 639 1188 C631 1166 619.667 1147.33 605 1132 C590.333 1116.67 572.667 1104.67 552 1096 C531.333 1087.33 508.667 1083 484 1083 C458.667 1083 435.667 1087.17 415 1095.5 C394.333 1103.83 376.667 1115.5 362 1130.5 C347.333 1145.5 335.833 1163.33 327.5 1184 C319.167 1204.67 315 1227.67 315 1253 C315 1301 331 1340.67 363 1372 C396.333 1403.33 437.333 1419 486 1419 C536 1419 576 1404.67 606 1376 C636 1347.33 651 1309 651 1261 L651 1261 Z " />
<glyph glyph-name="guillemotright" unicode="&#xbb;" horiz-adv-x="931" d="M586 912 L468 840 L679 493 L379 130 L485 39 L849 486 L586 912 Z M251 912 L131 836 L344 493 L44 130 L148 39 L514 489 L251 912 Z " />
<glyph glyph-name="onequarter" unicode="&#xbc;" horiz-adv-x="2059" d="M628 1544 L334 1544 L262 1403 L454 1403 L357 618 L514 618 L628 1544 Z M1656 1525 L1562 1590 L462 20 L556 -45 L1656 1525 Z M1824 169 L1913 169 L1930 301 L1841 301 L1932 1043 L1214 169 L1667 169 L1645 0 L1802 0 L1824 169 Z M1684 301 L1488 301 L1719 589 L1684 301 Z " />
<glyph glyph-name="onehalf" unicode="&#xbd;" horiz-adv-x="2059" d="M628 1544 L334 1544 L262 1403 L454 1403 L357 618 L514 618 L628 1544 Z M1656 1525 L1562 1590 L462 20 L556 -45 L1656 1525 Z M1893 141 L1559 141 L1767 357 C1803.67 395 1833.67 428.333 1857 457 C1880.33 485.667 1897.67 509.667 1909 529 C1931 567.667 1942 613.667 1942 667 C1942 749 1914.67 815 1860 865 C1805.33 915.667 1733 941 1643 941 C1541 941 1464.5 914.5 1413.5 861.5 C1362.5 808.5 1333.67 726 1327 614 L1476 614 C1484.67 740 1539 803 1639 803 C1739 803 1789 756.333 1789 663 C1789 627.667 1780.67 597.667 1764 573 C1746.67 547.667 1699.67 494.667 1623 414 L1232 0 L1875 0 L1893 141 Z " />
<glyph glyph-name="threequarters" unicode="&#xbe;" horiz-adv-x="2059" d="M130 860 C139.333 774.667 169 710.667 219 668 C269 625.333 338.667 604 428 604 C524 604 601.667 630 661 682 C720.333 735.333 750 804.333 750 889 C750 991.667 706 1061.67 618 1099 C712 1141 759 1213.67 759 1317 C759 1391 735.667 1449.33 689 1492 C641.667 1536 579 1558 501 1558 C317.667 1558 221 1463 211 1273 L351 1273 C359 1371 403.667 1420 485 1420 C565.667 1420 606 1382.33 606 1307 C606 1210.33 558 1162.67 462 1164 L420 1164 L403 1029 C532.333 1029 597 983.667 597 893 C597 871 592.833 850.667 584.5 832 C576.167 813.333 564.667 797.333 550 784 C535.333 770.667 517.667 760.333 497 753 C476.333 745.667 454 742 430 742 C340.667 742 289.667 781.333 277 860 L130 860 Z M1657 1525 L1563 1590 L463 20 L556 -45 L1657 1525 Z M1825 169 L1914 169 L1930 301 L1841 301 L1932 1043 L1215 169 L1668 169 L1646 0 L1803 0 L1825 169 Z M1684 301 L1489 301 L1719 589 L1684 301 Z " />
<glyph glyph-name="questiondown" unicode="&#xbf;" horiz-adv-x="994" d="M426 1080 C426 1041.33 439 1008.67 465 982 C491 955.333 522.333 942 559 942 C577.667 942 595.333 945.5 612 952.5 C628.667 959.5 643 969 655 981 C667 993 676.5 1007.33 683.5 1024 C690.5 1040.67 694 1058.67 694 1078 C694 1116.67 680.667 1148.33 654 1173 C628 1199 595.333 1212 556 1212 C519.333 1212 488.667 1199 464 1173 C438.667 1147.67 426 1116.67 426 1080 L426 1080 Z M327 492 C334.333 597.333 378.333 650 459 650 C501 650 534.667 637.5 560 612.5 C585.333 587.5 598 554.667 598 514 C598 461.333 578.667 417.667 540 383 C502 347.667 433.667 311.667 335 275 C235 237 163.667 192.667 121 142 C78.3333 91.3333 57 26.6667 57 -52 C57 -150 89.6667 -228.667 155 -288 C221 -348 307.667 -378 415 -378 C536.333 -378 628.833 -342.833 692.5 -272.5 C756.167 -202.167 788 -101 788 31 L590 31 C590 -123.667 533.667 -201 421 -201 C377.667 -201 341.667 -186.667 313 -158 C284.333 -130 270 -95.3333 270 -54 C270 -16 284 14.6667 312 38 C340.667 62.6667 397 91.3333 481 124 C595.667 168 679.833 221 733.5 283 C787.167 345 814 419.333 814 506 C814 599.333 780.667 677 714 739 C646.667 801 563 832 463 832 C256.333 832 141.667 718.667 119 492 L327 492 Z " />
<glyph glyph-name="Agrave" unicode="&#xc0;" horiz-adv-x="1446" d="M435 363 L1034 363 L1146 0 L1385 0 L852 1654 L-2 0 L247 0 L435 363 Z M534 561 L804 1110 L970 561 L534 561 Z M598 1967 L849 1690 L969 1763 L772 2078 L598 1967 Z " />
<glyph glyph-name="Aacute" unicode="&#xc1;" horiz-adv-x="1446" d="M435 363 L1034 363 L1146 0 L1385 0 L852 1654 L-2 0 L247 0 L435 363 Z M534 561 L804 1110 L970 561 L534 561 Z M1193 1980 L1019 2091 L745 1776 L865 1703 L1193 1980 Z " />
<glyph glyph-name="Acircumflex" unicode="&#xc2;" horiz-adv-x="1446" d="M435 363 L1034 363 L1146 0 L1385 0 L852 1654 L-2 0 L247 0 L435 363 Z M534 561 L804 1110 L970 561 L534 561 Z M888 1859 L1044 1687 L1167 1790 L909 2070 L547 1792 L646 1684 L888 1859 Z " />
<glyph glyph-name="Atilde" unicode="&#xc3;" horiz-adv-x="1446" d="M435 363 L1034 363 L1146 0 L1385 0 L852 1654 L-2 0 L247 0 L435 363 Z M534 561 L804 1110 L970 561 L534 561 Z M1230 1903 L1113 1990 C1086.33 1921.33 1051 1887 1007 1887 C978.333 1887 939.667 1901.33 891 1930 C825.667 1967.33 777.333 1986 746 1986 C708.667 1986 674.667 1973.67 644 1949 C629.333 1937.67 611.833 1920.5 591.5 1897.5 C571.167 1874.5 548 1845.33 522 1810 L638 1722 C682 1786 716.667 1818 742 1818 C758 1818 786 1807 826 1785 C902.667 1743 963 1722 1007 1722 C1093.67 1722 1168 1782.33 1230 1903 L1230 1903 Z " />
<glyph glyph-name="Adieresis" unicode="&#xc4;" horiz-adv-x="1446" d="M435 363 L1034 363 L1146 0 L1385 0 L852 1654 L-2 0 L247 0 L435 363 Z M534 561 L804 1110 L970 561 L534 561 Z M1186 1854 C1186 1890.67 1173.67 1921.33 1149 1946 C1125 1971.33 1095.33 1984 1060 1984 C1024.67 1984 994.667 1971.67 970 1947 C945.333 1923 933 1893.33 933 1858 C933 1822 945.333 1791.67 970 1767 C995.333 1741.67 1025.33 1729 1060 1729 C1094.67 1729 1124.33 1741.33 1149 1766 C1173.67 1790.67 1186 1820 1186 1854 L1186 1854 Z M809 1851 C809 1869.67 806 1887.17 800 1903.5 C794 1919.83 785.5 1933.83 774.5 1945.5 C763.5 1957.17 750.5 1966.33 735.5 1973 C720.5 1979.67 704 1983 686 1983 C648 1983 617 1971.33 593 1948 C569 1924.67 557 1895 557 1859 C557 1841 560.333 1824 567 1808 C573.667 1792 582.667 1778.33 594 1767 C605.333 1755.67 619 1746.67 635 1740 C651 1733.33 668 1730 686 1730 C720.667 1730 749.667 1741.67 773 1765 C797 1789 809 1817.67 809 1851 L809 1851 Z " />
<glyph glyph-name="Aring" unicode="&#xc5;" horiz-adv-x="1446" d="M435 363 L1034 363 L1146 0 L1385 0 L852 1654 L-2 0 L247 0 L435 363 Z M534 561 L804 1110 L970 561 L534 561 Z M1086 1904 C1086 1965.33 1064.33 2017.67 1021 2061 C977.667 2104.33 925.333 2126 864 2126 C803.333 2126 751.333 2104.33 708 2061 C665.333 2018.33 644 1966.67 644 1906 C644 1844.67 665.667 1792.33 709 1749 C752.333 1705.67 804.333 1684 865 1684 C925.667 1684 977.667 1705.67 1021 1749 C1064.33 1792.33 1086 1844 1086 1904 L1086 1904 Z M956 1905 C956 1879 947.167 1857.17 929.5 1839.5 C911.833 1821.83 890.333 1813 865 1813 C852.333 1813 840.5 1815.5 829.5 1820.5 C818.5 1825.5 808.833 1832.17 800.5 1840.5 C792.167 1848.83 785.667 1858.67 781 1870 C776.333 1881.33 774 1893.33 774 1906 C774 1930.67 782.833 1951.83 800.5 1969.5 C818.167 1987.17 839.333 1996 864 1996 C890 1996 911.833 1987.17 929.5 1969.5 C947.167 1951.83 956 1930.33 956 1905 L956 1905 Z " />
<glyph glyph-name="AE" unicode="&#xc6;" horiz-adv-x="2172" d="M1590 1544 L880 1544 L-18 0 L232 0 L454 380 L1094 380 L1214 0 L2091 0 L2028 213 L1381 213 L1210 729 L1853 729 L1790 926 L1147 926 L1012 1331 L1653 1331 L1590 1544 Z M570 578 L867 1100 L1031 578 L570 578 Z " />
<glyph glyph-name="Ccedilla" unicode="&#xc7;" horiz-adv-x="1413" d="M1423 1406 C1250.33 1518.67 1077 1575 903 1575 C682.333 1575 499 1496.33 353 1339 C207.667 1181.67 135 983.667 135 745 C135 511 203.333 323.667 340 183 C476.667 41 657 -30 881 -30 C1003.67 -30 1136 -3.66667 1278 49 L1311 320 C1198.33 229.333 1068.33 184 921 184 C744.333 184 607.667 232.333 511 329 C413.667 426.333 365 561.667 365 735 C365 920.333 415.667 1070.67 517 1186 C617.667 1302 749.667 1360 913 1360 C1098.33 1360 1258 1292 1392 1156 L1423 1406 Z M909 -209 L714 -107 L509 -421 L634 -492 L909 -209 Z " />
<glyph glyph-name="Egrave" unicode="&#xc8;" horiz-adv-x="1089" d="M1105 1544 L310 1544 L120 0 L915 0 L942 213 L375 213 L439 733 L1006 733 L1030 931 L463 931 L512 1331 L1079 1331 L1105 1544 Z M492 1966 L743 1689 L863 1762 L666 2077 L492 1966 Z " />
<glyph glyph-name="Eacute" unicode="&#xc9;" horiz-adv-x="1089" d="M1105 1544 L310 1544 L120 0 L915 0 L942 213 L375 213 L439 733 L1006 733 L1030 931 L463 931 L512 1331 L1079 1331 L1105 1544 Z M1064 1979 L890 2090 L616 1775 L736 1702 L1064 1979 Z " />
<glyph glyph-name="Ecircumflex" unicode="&#xca;" horiz-adv-x="1089" d="M1105 1544 L310 1544 L120 0 L915 0 L942 213 L375 213 L439 733 L1006 733 L1030 931 L463 931 L512 1331 L1079 1331 L1105 1544 Z M770 1859 L926 1687 L1049 1790 L791 2070 L429 1792 L528 1684 L770 1859 Z " />
<glyph glyph-name="Edieresis" unicode="&#xcb;" horiz-adv-x="1089" d="M1105 1544 L310 1544 L120 0 L915 0 L942 213 L375 213 L439 733 L1006 733 L1030 931 L463 931 L512 1331 L1079 1331 L1105 1544 Z M1050 1854 C1050 1890.67 1037.67 1921.33 1013 1946 C989 1971.33 959.333 1984 924 1984 C888.667 1984 858.667 1971.67 834 1947 C809.333 1923 797 1893.33 797 1858 C797 1822 809.333 1791.67 834 1767 C859.333 1741.67 889.333 1729 924 1729 C958.667 1729 988.333 1741.33 1013 1766 C1037.67 1790.67 1050 1820 1050 1854 L1050 1854 Z M673 1851 C673 1869.67 670 1887.17 664 1903.5 C658 1919.83 649.5 1933.83 638.5 1945.5 C627.5 1957.17 614.5 1966.33 599.5 1973 C584.5 1979.67 568 1983 550 1983 C512 1983 481 1971.33 457 1948 C433 1924.67 421 1895 421 1859 C421 1841 424.333 1824 431 1808 C437.667 1792 446.667 1778.33 458 1767 C469.333 1755.67 483 1746.67 499 1740 C515 1733.33 532 1730 550 1730 C584.667 1730 613.667 1741.67 637 1765 C661 1789 673 1817.67 673 1851 L673 1851 Z " />
<glyph glyph-name="Igrave" unicode="&#xcc;" horiz-adv-x="600" d="M539 1544 L310 1544 L120 0 L349 0 L539 1544 Z M205 1961 L439 1683 L560 1756 L378 2071 L205 1961 Z " />
<glyph glyph-name="Iacute" unicode="&#xcd;" horiz-adv-x="600" d="M539 1544 L310 1544 L120 0 L349 0 L539 1544 Z M753 1958 L579 2068 L336 1753 L456 1680 L753 1958 Z " />
<glyph glyph-name="Icircumflex" unicode="&#xce;" horiz-adv-x="599" d="M539 1544 L310 1544 L120 0 L349 0 L539 1544 Z M475 1859 L616 1687 L739 1790 L497 2070 L150 1792 L249 1684 L475 1859 Z " />
<glyph glyph-name="Idieresis" unicode="&#xcf;" horiz-adv-x="600" d="M539 1544 L310 1544 L120 0 L349 0 L539 1544 Z M756 1854 C756 1890 743.667 1920.33 719 1945 C695 1970.33 665.333 1983 630 1983 C594.667 1983 564.667 1971 540 1947 C515.333 1923 503 1893.67 503 1859 C503 1823 515.333 1792.67 540 1768 C565.333 1742.67 595.333 1730 630 1730 C664 1730 693.667 1742 719 1766 C743.667 1790.67 756 1820 756 1854 L756 1854 Z M410 1851 C410 1869.67 407 1887.17 401 1903.5 C395 1919.83 386.5 1933.83 375.5 1945.5 C364.5 1957.17 351.5 1966.33 336.5 1973 C321.5 1979.67 305 1983 287 1983 C249 1983 218 1971.33 194 1948 C170 1924.67 158 1894.67 158 1858 C158 1822 170.333 1791.67 195 1767 C219.667 1742.33 250.667 1730 288 1730 C322 1730 350.667 1741.67 374 1765 C398 1789 410 1817.67 410 1851 L410 1851 Z " />
<glyph glyph-name="Eth" unicode="&#xd0;" horiz-adv-x="1466" d="M311 1544 L235 931 L96 931 L73 746 L212 746 L120 0 L512 0 C582.667 0 644.167 1.66667 696.5 5 C748.833 8.33333 794 13.3333 832 20 C905.333 33.3333 974 59 1038 97 C1094 131 1143.67 172.167 1187 220.5 C1230.33 268.833 1268.33 325 1301 389 C1365.67 517.667 1398 658.333 1398 811 C1398 954.333 1369 1084 1311 1200 C1254.33 1314.67 1175 1401.67 1073 1461 C1017 1493.67 957.667 1515.33 895 1526 C831.667 1538 740.667 1544 622 1544 L311 1544 Z M513 1331 L641 1331 C773 1331 872.667 1314 940 1280 C1010.67 1243.33 1066.67 1184 1108 1102 C1148.67 1021.33 1169 927.333 1169 820 C1169 650 1123.33 506.333 1032 389 C980 321.667 919 275.667 849 251 C777 225.667 677.333 213 550 213 L376 213 L441 746 L796 746 L819 931 L464 931 L513 1331 Z " />
<glyph glyph-name="Ntilde" unicode="&#xd1;" horiz-adv-x="1684" d="M1622 1544 L1394 1544 L1258 434 L321 1628 L120 0 L349 0 L483 1090 L1420 -106 L1622 1544 Z M1340 1903 L1223 1990 C1196.33 1921.33 1161 1887 1117 1887 C1088.33 1887 1049.67 1901.33 1001 1930 C935.667 1967.33 887.333 1986 856 1986 C818.667 1986 784.667 1973.67 754 1949 C739.333 1937.67 721.833 1920.5 701.5 1897.5 C681.167 1874.5 658 1845.33 632 1810 L748 1722 C792 1786 826.667 1818 852 1818 C868 1818 896 1807 936 1785 C1012.67 1743 1073 1722 1117 1722 C1203.67 1722 1278 1782.33 1340 1903 L1340 1903 Z " />
<glyph glyph-name="Ograve" unicode="&#xd2;" horiz-adv-x="1816" d="M1746 802 C1746 1034 1673.33 1220.67 1528 1362 C1382.67 1504 1191.67 1575 955 1575 C718.333 1575 522.333 1498.33 367 1345 C212.333 1192.33 135 999 135 765 C135 530.333 208 339 354 191 C500 43.6667 688.667 -30 920 -30 C1064.67 -30 1196.67 0.666672 1316 62 C1435.33 123.333 1532 210.333 1606 323 C1699.33 466.333 1746 626 1746 802 L1746 802 Z M1516 804 C1516 625.333 1459.67 477.667 1347 361 C1235 243 1094.67 184 926 184 C764 184 630 238.667 524 348 C418 458 365 597 365 765 C365 935 422 1076.67 536 1190 C651.333 1303.33 793.667 1360 963 1360 C1131.67 1360 1266 1309.67 1366 1209 C1466 1107.67 1516 972.667 1516 804 L1516 804 Z M807 1965 L1058 1688 L1178 1761 L981 2076 L807 1965 Z " />
<glyph glyph-name="Oacute" unicode="&#xd3;" horiz-adv-x="1816" d="M1746 802 C1746 1034 1673.33 1220.67 1528 1362 C1382.67 1504 1191.67 1575 955 1575 C718.333 1575 522.333 1498.33 367 1345 C212.333 1192.33 135 999 135 765 C135 530.333 208 339 354 191 C500 43.6667 688.667 -30 920 -30 C1064.67 -30 1196.67 0.666672 1316 62 C1435.33 123.333 1532 210.333 1606 323 C1699.33 466.333 1746 626 1746 802 L1746 802 Z M1516 804 C1516 625.333 1459.67 477.667 1347 361 C1235 243 1094.67 184 926 184 C764 184 630 238.667 524 348 C418 458 365 597 365 765 C365 935 422 1076.67 536 1190 C651.333 1303.33 793.667 1360 963 1360 C1131.67 1360 1266 1309.67 1366 1209 C1466 1107.67 1516 972.667 1516 804 L1516 804 Z M1374 1966 L1200 2077 L926 1762 L1046 1689 L1374 1966 Z " />
<glyph glyph-name="Ocircumflex" unicode="&#xd4;" horiz-adv-x="1816" d="M1746 802 C1746 1034 1673.33 1220.67 1528 1362 C1382.67 1504 1191.67 1575 955 1575 C718.333 1575 522.333 1498.33 367 1345 C212.333 1192.33 135 999 135 765 C135 530.333 208 339 354 191 C500 43.6667 688.667 -30 920 -30 C1064.67 -30 1196.67 0.666672 1316 62 C1435.33 123.333 1532 210.333 1606 323 C1699.33 466.333 1746 626 1746 802 L1746 802 Z M1516 804 C1516 625.333 1459.67 477.667 1347 361 C1235 243 1094.67 184 926 184 C764 184 630 238.667 524 348 C418 458 365 597 365 765 C365 935 422 1076.67 536 1190 C651.333 1303.33 793.667 1360 963 1360 C1131.67 1360 1266 1309.67 1366 1209 C1466 1107.67 1516 972.667 1516 804 L1516 804 Z M1089 1859 L1245 1687 L1368 1790 L1110 2070 L748 1792 L847 1684 L1089 1859 Z " />
<glyph glyph-name="Otilde" unicode="&#xd5;" horiz-adv-x="1816" d="M1746 802 C1746 1034 1673.33 1220.67 1528 1362 C1382.67 1504 1191.67 1575 955 1575 C718.333 1575 522.333 1498.33 367 1345 C212.333 1192.33 135 999 135 765 C135 530.333 208 339 354 191 C500 43.6667 688.667 -30 920 -30 C1064.67 -30 1196.67 0.666672 1316 62 C1435.33 123.333 1532 210.333 1606 323 C1699.33 466.333 1746 626 1746 802 L1746 802 Z M1516 804 C1516 625.333 1459.67 477.667 1347 361 C1235 243 1094.67 184 926 184 C764 184 630 238.667 524 348 C418 458 365 597 365 765 C365 935 422 1076.67 536 1190 C651.333 1303.33 793.667 1360 963 1360 C1131.67 1360 1266 1309.67 1366 1209 C1466 1107.67 1516 972.667 1516 804 L1516 804 Z M1422 1903 L1305 1990 C1278.33 1921.33 1243 1887 1199 1887 C1170.33 1887 1131.67 1901.33 1083 1930 C1017.67 1967.33 969.333 1986 938 1986 C900.667 1986 866.667 1973.67 836 1949 C821.333 1937.67 803.833 1920.5 783.5 1897.5 C763.167 1874.5 740 1845.33 714 1810 L830 1722 C874 1786 908.667 1818 934 1818 C950 1818 978 1807 1018 1785 C1094.67 1743 1155 1722 1199 1722 C1285.67 1722 1360 1782.33 1422 1903 L1422 1903 Z " />
<glyph glyph-name="Odieresis" unicode="&#xd6;" horiz-adv-x="1816" d="M1746 802 C1746 1034 1673.33 1220.67 1528 1362 C1382.67 1504 1191.67 1575 955 1575 C718.333 1575 522.333 1498.33 367 1345 C212.333 1192.33 135 999 135 765 C135 530.333 208 339 354 191 C500 43.6667 688.667 -30 920 -30 C1064.67 -30 1196.67 0.666672 1316 62 C1435.33 123.333 1532 210.333 1606 323 C1699.33 466.333 1746 626 1746 802 L1746 802 Z M1516 804 C1516 625.333 1459.67 477.667 1347 361 C1235 243 1094.67 184 926 184 C764 184 630 238.667 524 348 C418 458 365 597 365 765 C365 935 422 1076.67 536 1190 C651.333 1303.33 793.667 1360 963 1360 C1131.67 1360 1266 1309.67 1366 1209 C1466 1107.67 1516 972.667 1516 804 L1516 804 Z M1382 1854 C1382 1890.67 1369.67 1921.33 1345 1946 C1321 1971.33 1291.33 1984 1256 1984 C1220.67 1984 1190.67 1971.67 1166 1947 C1141.33 1923 1129 1893.33 1129 1858 C1129 1822 1141.33 1791.67 1166 1767 C1191.33 1741.67 1221.33 1729 1256 1729 C1290.67 1729 1320.33 1741.33 1345 1766 C1369.67 1790.67 1382 1820 1382 1854 L1382 1854 Z M1005 1851 C1005 1869.67 1002 1887.17 996 1903.5 C990 1919.83 981.5 1933.83 970.5 1945.5 C959.5 1957.17 946.5 1966.33 931.5 1973 C916.5 1979.67 900 1983 882 1983 C844 1983 813 1971.33 789 1948 C765 1924.67 753 1895 753 1859 C753 1841 756.333 1824 763 1808 C769.667 1792 778.667 1778.33 790 1767 C801.333 1755.67 815 1746.67 831 1740 C847 1733.33 864 1730 882 1730 C916.667 1730 945.667 1741.67 969 1765 C993 1789 1005 1817.67 1005 1851 L1005 1851 Z " />
<glyph glyph-name="multiply" unicode="&#xd7;" horiz-adv-x="1264" d="M198 1134 L535 794 L201 457 L339 319 L673 659 L1004 326 L1129 446 L794 781 L1129 1118 L991 1256 L657 917 L323 1253 L198 1134 Z " />
<glyph glyph-name="Oslash" unicode="&#xd8;" horiz-adv-x="1817" d="M367 170 C465 96.6667 554 45 634 15 C716.667 -15 811.667 -30 919 -30 C1157.67 -30 1355 49 1511 207 C1667.67 363.667 1746 563.667 1746 807 C1746 991.667 1699.67 1144.33 1607 1265 L1802 1438 L1690 1561 L1498 1393 C1406.67 1460.33 1320.33 1507.33 1239 1534 C1155 1561.33 1061.33 1575 958 1575 C718.667 1575 521.667 1498.67 367 1346 C211.667 1192.67 134 998.667 134 764 C134 674.667 143.333 598.667 162 536 C171.333 502 184.667 464.833 202 424.5 C219.333 384.167 240.667 340 266 292 L78 123 L180 3 L367 170 Z M546 327 L1435 1112 C1488.33 1030.67 1515 928.333 1515 805 C1515 627.667 1459 479.667 1347 361 C1235.67 243 1095.67 184 927 184 C778.333 184 651.333 231.667 546 327 L546 327 Z M444 452 C390.667 568.667 364 672.333 364 763 C364 933.667 420.667 1075.67 534 1189 C648 1303 790 1360 960 1360 C1117.33 1360 1238.67 1319 1324 1237 L444 452 Z " />
<glyph glyph-name="Ugrave" unicode="&#xd9;" horiz-adv-x="1524" d="M1463 1544 L1235 1544 L1127 662 C1105.67 492.667 1065 370.333 1005 295 C945 220.333 857 183 741 183 C641.667 183 563 212.667 505 272 C447.667 331.333 419 412.333 419 515 C419 534.333 419.833 555.333 421.5 578 C423.167 600.667 425.667 625.333 429 652 L538 1544 L310 1544 L204 681 C199.333 643 195.833 607 193.5 573 C191.167 539 190 506.667 190 476 C190 332 242.667 211.333 348 114 C454 18 586.333 -30 745 -30 C943 -30 1097.67 42.6667 1209 188 C1278.33 281.333 1325.67 428.667 1351 630 L1463 1544 Z M665 1965 L916 1688 L1036 1761 L839 2076 L665 1965 Z " />
<glyph glyph-name="Uacute" unicode="&#xda;" horiz-adv-x="1524" d="M1463 1544 L1235 1544 L1127 662 C1105.67 492.667 1065 370.333 1005 295 C945 220.333 857 183 741 183 C641.667 183 563 212.667 505 272 C447.667 331.333 419 412.333 419 515 C419 534.333 419.833 555.333 421.5 578 C423.167 600.667 425.667 625.333 429 652 L538 1544 L310 1544 L204 681 C199.333 643 195.833 607 193.5 573 C191.167 539 190 506.667 190 476 C190 332 242.667 211.333 348 114 C454 18 586.333 -30 745 -30 C943 -30 1097.67 42.6667 1209 188 C1278.33 281.333 1325.67 428.667 1351 630 L1463 1544 Z M1212 1966 L1038 2077 L764 1762 L884 1689 L1212 1966 Z " />
<glyph glyph-name="Ucircumflex" unicode="&#xdb;" horiz-adv-x="1524" d="M1463 1544 L1235 1544 L1127 662 C1105.67 492.667 1065 370.333 1005 295 C945 220.333 857 183 741 183 C641.667 183 563 212.667 505 272 C447.667 331.333 419 412.333 419 515 C419 534.333 419.833 555.333 421.5 578 C423.167 600.667 425.667 625.333 429 652 L538 1544 L310 1544 L204 681 C199.333 643 195.833 607 193.5 573 C191.167 539 190 506.667 190 476 C190 332 242.667 211.333 348 114 C454 18 586.333 -30 745 -30 C943 -30 1097.67 42.6667 1209 188 C1278.33 281.333 1325.67 428.667 1351 630 L1463 1544 Z M944 1859 L1100 1687 L1223 1790 L965 2070 L603 1792 L702 1684 L944 1859 Z " />
<glyph glyph-name="Udieresis" unicode="&#xdc;" horiz-adv-x="1524" d="M1463 1544 L1235 1544 L1127 662 C1105.67 492.667 1065 370.333 1005 295 C945 220.333 857 183 741 183 C641.667 183 563 212.667 505 272 C447.667 331.333 419 412.333 419 515 C419 534.333 419.833 555.333 421.5 578 C423.167 600.667 425.667 625.333 429 652 L538 1544 L310 1544 L204 681 C199.333 643 195.833 607 193.5 573 C191.167 539 190 506.667 190 476 C190 332 242.667 211.333 348 114 C454 18 586.333 -30 745 -30 C943 -30 1097.67 42.6667 1209 188 C1278.33 281.333 1325.67 428.667 1351 630 L1463 1544 Z M1233 1854 C1233 1890.67 1220.67 1921.33 1196 1946 C1172 1971.33 1142.33 1984 1107 1984 C1071.67 1984 1041.67 1971.67 1017 1947 C992.333 1923 980 1893.33 980 1858 C980 1822 992.333 1791.67 1017 1767 C1042.33 1741.67 1072.33 1729 1107 1729 C1141.67 1729 1171.33 1741.33 1196 1766 C1220.67 1790.67 1233 1820 1233 1854 L1233 1854 Z M856 1851 C856 1869.67 853 1887.17 847 1903.5 C841 1919.83 832.5 1933.83 821.5 1945.5 C810.5 1957.17 797.5 1966.33 782.5 1973 C767.5 1979.67 751 1983 733 1983 C695 1983 664 1971.33 640 1948 C616 1924.67 604 1895 604 1859 C604 1841 607.333 1824 614 1808 C620.667 1792 629.667 1778.33 641 1767 C652.333 1755.67 666 1746.67 682 1740 C698 1733.33 715 1730 733 1730 C767.667 1730 796.667 1741.67 820 1765 C844 1789 856 1817.67 856 1851 L856 1851 Z " />
<glyph glyph-name="Yacute" unicode="&#xdd;" horiz-adv-x="1195" d="M732 691 L1304 1544 L1041 1544 L636 930 L351 1544 L105 1544 L506 707 L418 0 L647 0 L732 691 Z M1043 1966 L869 2077 L595 1762 L715 1689 L1043 1966 Z " />
<glyph glyph-name="Thorn" unicode="&#xde;" horiz-adv-x="1143" d="M311 1544 L120 0 L349 0 L399 409 L568 409 C766 409 911 471.333 1003 596 C1065 680 1096 777.333 1096 888 C1096 964 1079.33 1036.33 1046 1105 C1012.67 1171.67 966.667 1223.33 908 1260 C836.667 1305.33 733 1328 597 1328 L512 1328 L538 1544 L311 1544 Z M486 1115 L584 1115 C772 1115 866 1041.33 866 894 C866 802.667 840.833 732.667 790.5 684 C740.167 635.333 667.667 611 573 611 L424 611 L486 1115 Z " />
<glyph glyph-name="germandbls" unicode="&#xdf;" horiz-adv-x="1202" d="M105 0 L326 0 L478 1234 C490.667 1344.67 513 1422 545 1466 C577 1508.67 627.667 1530 697 1530 C759.667 1530 808.5 1513 843.5 1479 C878.5 1445 896 1397.67 896 1337 C896 1281 883 1228 857 1178 C831.667 1128 798.667 1091.67 758 1069 C718.667 1047 660.667 1036 584 1036 L563 1036 L540 846 C760 846 870 751.333 870 562 C870 444.667 842 350.667 786 280 C730 209.333 655.667 174 563 174 C536.333 174 502 179.667 460 191 L436 0 C490 -6 535 -9 571 -9 C733 -9 859.667 44 951 150 C1045 260 1092 394 1092 552 C1092 733.333 1017.33 862.667 868 940 C1028 1024.67 1108 1152.33 1108 1323 C1108 1443 1069.67 1538.33 993 1609 C915.667 1680.33 814.333 1716 689 1716 C548.333 1716 440.333 1671.33 365 1582 C313.667 1520.67 279 1416.67 261 1270 L221 942 L115 942 L90 737 L195 737 L105 0 Z " />
<glyph glyph-name="agrave" unicode="&#xe0;" horiz-adv-x="1233" d="M1130 942 L909 942 L894 818 C844 872 795 910 747 932 C699.667 954 642.333 965 575 965 C432.333 965 315.333 915.333 224 816 C134 716.667 89 589.333 89 434 C89 299.333 128.333 189.667 207 105 C285.667 20.3333 387.333 -22 512 -22 C613.333 -22 711.333 19.3333 806 102 L793 0 L1014 0 L1130 942 Z M861 498 C861 406.667 831.333 327.333 772 260 C712.667 194 642.333 161 561 161 C487.667 161 427.667 187.333 381 240 C334.333 292.667 311 360.333 311 443 C311 537.667 339 617.667 395 683 C451 747.667 520.333 780 603 780 C679 780 741 753.667 789 701 C837 649 861 581.333 861 498 L861 498 Z M464 1378 L709 1092 L817 1160 L626 1488 L464 1378 Z " />
<glyph glyph-name="aacute" unicode="&#xe1;" horiz-adv-x="1233" d="M1130 942 L909 942 L894 818 C844 872 795 910 747 932 C699.667 954 642.333 965 575 965 C432.333 965 315.333 915.333 224 816 C134 716.667 89 589.333 89 434 C89 299.333 128.333 189.667 207 105 C285.667 20.3333 387.333 -22 512 -22 C613.333 -22 711.333 19.3333 806 102 L793 0 L1014 0 L1130 942 Z M861 498 C861 406.667 831.333 327.333 772 260 C712.667 194 642.333 161 561 161 C487.667 161 427.667 187.333 381 240 C334.333 292.667 311 360.333 311 443 C311 537.667 339 617.667 395 683 C451 747.667 520.333 780 603 780 C679 780 741 753.667 789 701 C837 649 861 581.333 861 498 L861 498 Z M1011 1383 L846 1488 L578 1157 L691 1092 L1011 1383 Z " />
<glyph glyph-name="acircumflex" unicode="&#xe2;" horiz-adv-x="1233" d="M1130 942 L909 942 L894 818 C844 872 795 910 747 932 C699.667 954 642.333 965 575 965 C432.333 965 315.333 915.333 224 816 C134 716.667 89 589.333 89 434 C89 299.333 128.333 189.667 207 105 C285.667 20.3333 387.333 -22 512 -22 C613.333 -22 711.333 19.3333 806 102 L793 0 L1014 0 L1130 942 Z M861 498 C861 406.667 831.333 327.333 772 260 C712.667 194 642.333 161 561 161 C487.667 161 427.667 187.333 381 240 C334.333 292.667 311 360.333 311 443 C311 537.667 339 617.667 395 683 C451 747.667 520.333 780 603 780 C679 780 741 753.667 789 701 C837 649 861 581.333 861 498 L861 498 Z M713 1282 L870 1095 L970 1192 L734 1488 L402 1192 L495 1092 L713 1282 Z " />
<glyph glyph-name="atilde" unicode="&#xe3;" horiz-adv-x="1233" d="M1130 942 L909 942 L894 818 C844 872 795 910 747 932 C699.667 954 642.333 965 575 965 C432.333 965 315.333 915.333 224 816 C134 716.667 89 589.333 89 434 C89 299.333 128.333 189.667 207 105 C285.667 20.3333 387.333 -22 512 -22 C613.333 -22 711.333 19.3333 806 102 L793 0 L1014 0 L1130 942 Z M861 498 C861 406.667 831.333 327.333 772 260 C712.667 194 642.333 161 561 161 C487.667 161 427.667 187.333 381 240 C334.333 292.667 311 360.333 311 443 C311 537.667 339 617.667 395 683 C451 747.667 520.333 780 603 780 C679 780 741 753.667 789 701 C837 649 861 581.333 861 498 L861 498 Z M1050 1338 L933 1416 C901.667 1348.67 869 1315 835 1315 C818.333 1315 784.667 1329.33 734 1358 C668.667 1394 621.667 1412 593 1412 C525 1412 455 1353.67 383 1237 L497 1157 L507 1172 C509.667 1176 511.667 1178.67 513 1180 L530 1209 C546.667 1239 567.667 1254 593 1254 C605.667 1254 616.667 1251.33 626 1246 L669 1220 C671.667 1218 687.667 1210 717 1196 L768 1172 C788.667 1161.33 811 1156 835 1156 C916.333 1156 988 1216.67 1050 1338 L1050 1338 Z " />
<glyph glyph-name="adieresis" unicode="&#xe4;" horiz-adv-x="1233" d="M1130 942 L909 942 L894 818 C844 872 795 910 747 932 C699.667 954 642.333 965 575 965 C432.333 965 315.333 915.333 224 816 C134 716.667 89 589.333 89 434 C89 299.333 128.333 189.667 207 105 C285.667 20.3333 387.333 -22 512 -22 C613.333 -22 711.333 19.3333 806 102 L793 0 L1014 0 L1130 942 Z M861 498 C861 406.667 831.333 327.333 772 260 C712.667 194 642.333 161 561 161 C487.667 161 427.667 187.333 381 240 C334.333 292.667 311 360.333 311 443 C311 537.667 339 617.667 395 683 C451 747.667 520.333 780 603 780 C679 780 741 753.667 789 701 C837 649 861 581.333 861 498 L861 498 Z M649 1267 C649 1299.67 637 1328.67 613 1354 C589 1378.67 560.667 1391 528 1391 C495.333 1391 467.333 1379.33 444 1356 C421.333 1333.33 410 1305.33 410 1272 C410 1240 421.667 1211.33 445 1186 C469 1162 497.333 1150 530 1150 C563.333 1150 591.333 1161.33 614 1184 C637.333 1207.33 649 1235 649 1267 L649 1267 Z M1010 1267 C1010 1299.67 998 1328.67 974 1354 C950 1378.67 921.333 1391 888 1391 C856 1391 828.333 1379.33 805 1356 C781.667 1332.67 770 1304.67 770 1272 C770 1240 781.667 1211.33 805 1186 C829 1162 857.333 1150 890 1150 C923.333 1150 951.333 1161.33 974 1184 C998 1206.67 1010 1234.33 1010 1267 L1010 1267 Z " />
<glyph glyph-name="aring" unicode="&#xe5;" horiz-adv-x="1233" d="M1130 942 L909 942 L894 818 C844 872 795 910 747 932 C699.667 954 642.333 965 575 965 C432.333 965 315.333 915.333 224 816 C134 716.667 89 589.333 89 434 C89 299.333 128.333 189.667 207 105 C285.667 20.3333 387.333 -22 512 -22 C613.333 -22 711.333 19.3333 806 102 L793 0 L1014 0 L1130 942 Z M861 498 C861 406.667 831.333 327.333 772 260 C712.667 194 642.333 161 561 161 C487.667 161 427.667 187.333 381 240 C334.333 292.667 311 360.333 311 443 C311 537.667 339 617.667 395 683 C451 747.667 520.333 780 603 780 C679 780 741 753.667 789 701 C837 649 861 581.333 861 498 L861 498 Z M935 1286 C935 1347.33 913.333 1399.67 870 1443 C827.333 1485.67 775 1507 713 1507 C651.667 1507 599.667 1485.67 557 1443 C514.333 1400.33 493 1348.67 493 1288 C493 1228 514.667 1175.33 558 1130 C601.333 1086.67 653.333 1065 714 1065 C774.667 1065 826.667 1086.67 870 1130 C913.333 1175.33 935 1227.33 935 1286 L935 1286 Z M808 1286 C808 1273.33 805.5 1261.33 800.5 1250 C795.5 1238.67 788.833 1228.67 780.5 1220 C772.167 1211.33 762.167 1204.5 750.5 1199.5 C738.833 1194.5 726.667 1192 714 1192 C700.667 1192 688.333 1194.5 677 1199.5 C665.667 1204.5 655.667 1211.33 647 1220 C638.333 1228.67 631.5 1238.83 626.5 1250.5 C621.5 1262.17 619 1274.67 619 1288 C619 1300.67 621.5 1312.67 626.5 1324 C631.5 1335.33 638.167 1345.17 646.5 1353.5 C654.833 1361.83 664.667 1368.5 676 1373.5 C687.333 1378.5 699.667 1381 713 1381 C739.667 1381 762.167 1371.83 780.5 1353.5 C798.833 1335.17 808 1312.67 808 1286 L808 1286 Z " />
<glyph glyph-name="ae" unicode="&#xe6;" horiz-adv-x="1798" d="M942 405 L1695 405 C1697 439.667 1698 465.667 1698 483 C1698 627 1655.33 744.667 1570 836 C1484.67 927.333 1374.33 973 1239 973 C1107.67 973 998 923.333 910 824 C838.667 923.333 727.667 973 577 973 C507 973 420 958.667 316 930 L293 736 C389 770.667 472.667 788 544 788 C608.667 788 658.333 775.667 693 751 C727.667 726.333 745 691.667 745 647 C745 619 741 572 733 506 C641.667 576 542.333 611 435 611 C325.667 611 235.667 581.667 165 523 C95 465 60 390.333 60 299 C60 205.667 99.6667 127.333 179 64 C257.667 1.33333 355.667 -30 473 -30 C552.333 -30 618.333 -16.6667 671 10 C699 23.3333 726.333 41.3333 753 64 C779.667 86.6667 807 114.333 835 147 C917 29 1040 -30 1204 -30 C1382.67 -30 1521 36.6667 1619 170 L1469 277 C1403 195 1320.67 154 1222 154 C1138.67 154 1071 177 1019 223 C967.667 270.333 942 331 942 405 L942 405 Z M707 289 C707 249.667 686.333 217.333 645 192 C603.667 166.667 551.333 154 488 154 C428 154 378.667 167.333 340 194 C301.333 220.667 282 254.667 282 296 C282 336 299.833 367.5 335.5 390.5 C371.167 413.5 419.333 425 480 425 C548 425 602.667 412.333 644 387 C686 361.667 707 329 707 289 L707 289 Z M959 567 C981 644.333 1013.5 700.5 1056.5 735.5 C1099.5 770.5 1157.67 788 1231 788 C1305.67 788 1364 768.833 1406 730.5 C1448 692.167 1472 637.667 1478 567 L959 567 Z " />
<glyph glyph-name="ccedilla" unicode="&#xe7;" horiz-adv-x="939" d="M902 851 C798.667 932.333 690.333 973 577 973 C438.333 973 322.333 923.333 229 824 C136.333 725.333 90 602.333 90 455 C90 311.667 133 195 219 105 C305.667 15 418 -30 556 -30 C633.333 -30 714.667 -12.6667 800 22 L829 255 C745.667 187.667 665 154 587 154 C505.667 154 439.333 181.667 388 237 C337.333 291.667 312 364.667 312 456 C312 553.333 339 633 393 695 C447 757 516 788 600 788 C655.333 788 703.333 775.667 744 751 C785.333 725.667 828.667 684 874 626 L902 851 Z M615 -205 L429 -107 L229 -413 L347 -480 L615 -205 Z " />
<glyph glyph-name="egrave" unicode="&#xe8;" horiz-adv-x="1149" d="M316 392 L1044 392 C1046 428 1047 454 1047 470 C1047 623.333 1006 745.667 924 837 C843.333 927.667 733 973 593 973 C448.333 973 328.667 922.667 234 822 C138.667 720.667 91 594.667 91 444 C91 300 134.333 185 221 99 C307.667 13 424 -30 570 -30 C662 -30 738.667 -14.3333 800 17 C860.667 47.6667 919.667 101.667 977 179 L812 270 C756.667 192.667 677.333 154 574 154 C498.667 154 436.667 176.333 388 221 C340 265.667 316 322.667 316 392 L316 392 Z M823 570 L328 570 C367.333 715.333 452 788 582 788 C719.333 788 799.667 715.333 823 570 L823 570 Z M416 1378 L661 1092 L769 1160 L578 1488 L416 1378 Z " />
<glyph glyph-name="eacute" unicode="&#xe9;" horiz-adv-x="1149" d="M316 392 L1044 392 C1046 428 1047 454 1047 470 C1047 623.333 1006 745.667 924 837 C843.333 927.667 733 973 593 973 C448.333 973 328.667 922.667 234 822 C138.667 720.667 91 594.667 91 444 C91 300 134.333 185 221 99 C307.667 13 424 -30 570 -30 C662 -30 738.667 -14.3333 800 17 C860.667 47.6667 919.667 101.667 977 179 L812 270 C756.667 192.667 677.333 154 574 154 C498.667 154 436.667 176.333 388 221 C340 265.667 316 322.667 316 392 L316 392 Z M823 570 L328 570 C367.333 715.333 452 788 582 788 C719.333 788 799.667 715.333 823 570 L823 570 Z M956 1383 L791 1488 L523 1157 L636 1092 L956 1383 Z " />
<glyph glyph-name="ecircumflex" unicode="&#xea;" horiz-adv-x="1149" d="M316 392 L1044 392 C1046 428 1047 454 1047 470 C1047 623.333 1006 745.667 924 837 C843.333 927.667 733 973 593 973 C448.333 973 328.667 922.667 234 822 C138.667 720.667 91 594.667 91 444 C91 300 134.333 185 221 99 C307.667 13 424 -30 570 -30 C662 -30 738.667 -14.3333 800 17 C860.667 47.6667 919.667 101.667 977 179 L812 270 C756.667 192.667 677.333 154 574 154 C498.667 154 436.667 176.333 388 221 C340 265.667 316 322.667 316 392 L316 392 Z M823 570 L328 570 C367.333 715.333 452 788 582 788 C719.333 788 799.667 715.333 823 570 L823 570 Z M674 1282 L831 1095 L931 1192 L695 1488 L363 1192 L456 1092 L674 1282 Z " />
<glyph glyph-name="edieresis" unicode="&#xeb;" horiz-adv-x="1149" d="M316 392 L1044 392 C1046 428 1047 454 1047 470 C1047 623.333 1006 745.667 924 837 C843.333 927.667 733 973 593 973 C448.333 973 328.667 922.667 234 822 C138.667 720.667 91 594.667 91 444 C91 300 134.333 185 221 99 C307.667 13 424 -30 570 -30 C662 -30 738.667 -14.3333 800 17 C860.667 47.6667 919.667 101.667 977 179 L812 270 C756.667 192.667 677.333 154 574 154 C498.667 154 436.667 176.333 388 221 C340 265.667 316 322.667 316 392 L316 392 Z M823 570 L328 570 C367.333 715.333 452 788 582 788 C719.333 788 799.667 715.333 823 570 L823 570 Z M602 1267 C602 1299.67 590 1328.67 566 1354 C542 1378.67 513.667 1391 481 1391 C448.333 1391 420.333 1379.33 397 1356 C374.333 1333.33 363 1305.33 363 1272 C363 1240 374.667 1211.33 398 1186 C422 1162 450.333 1150 483 1150 C516.333 1150 544.333 1161.33 567 1184 C590.333 1207.33 602 1235 602 1267 L602 1267 Z M963 1267 C963 1299.67 951 1328.67 927 1354 C903 1378.67 874.333 1391 841 1391 C809 1391 781.333 1379.33 758 1356 C734.667 1332.67 723 1304.67 723 1272 C723 1240 734.667 1211.33 758 1186 C782 1162 810.333 1150 843 1150 C876.333 1150 904.333 1161.33 927 1184 C951 1206.67 963 1234.33 963 1267 L963 1267 Z " />
<glyph glyph-name="igrave" unicode="&#xec;" horiz-adv-x="529" d="M426 942 L205 942 L89 0 L310 0 L426 942 Z M108 1378 L337 1092 L445 1160 L270 1488 L108 1378 Z " />
<glyph glyph-name="iacute" unicode="&#xed;" horiz-adv-x="529" d="M426 942 L205 942 L89 0 L310 0 L426 942 Z M633 1383 L468 1488 L223 1157 L336 1092 L633 1383 Z " />
<glyph glyph-name="icircumflex" unicode="&#xee;" horiz-adv-x="529" d="M426 942 L205 942 L89 0 L310 0 L426 942 Z M365 1282 L506 1095 L607 1192 L386 1488 L69 1192 L162 1092 L365 1282 Z " />
<glyph glyph-name="idieresis" unicode="&#xef;" horiz-adv-x="529" d="M426 942 L205 942 L89 0 L310 0 L426 942 Z M312 1267 C312 1299.67 300 1328.67 276 1354 C252 1378.67 223.667 1391 191 1391 C158.333 1391 130.333 1379.33 107 1356 C84.3333 1333.33 73 1305.33 73 1272 C73 1240 84.6667 1211.33 108 1186 C132 1162 160.333 1150 193 1150 C226.333 1150 254.333 1161.33 277 1184 C300.333 1207.33 312 1235 312 1267 L312 1267 Z M629 1267 C629 1299.67 617 1328.67 593 1354 C569 1378.67 540.333 1391 507 1391 C475 1391 447.333 1379.33 424 1356 C400.667 1332.67 389 1304.67 389 1272 C389 1240 400.667 1211.33 424 1186 C448 1162 476.333 1150 509 1150 C542.333 1150 570.333 1161.33 593 1184 C617 1206.67 629 1234.33 629 1267 L629 1267 Z " />
<glyph glyph-name="eth" unicode="&#xf0;" horiz-adv-x="1232" d="M283 1570 C331.667 1549.33 376 1528.33 416 1507 C456 1485.67 492.333 1463.67 525 1441 L308 1324 L430 1208 L660 1326 C772.667 1210 853.667 1048.33 903 841 C851 891 803 925.333 759 944 C712.333 963.333 659.667 973 601 973 C481 973 373.667 936 279 862 C155 766 93 633 93 463 C93 318.333 141.667 200 239 108 C337 16 463 -30 617 -30 C779 -30 905.667 24.6667 997 134 C1088.33 243.333 1134 396.333 1134 593 C1134 923.667 1033 1197.67 831 1415 L1064 1531 L939 1656 L710 1535 C598 1612.33 488 1666.67 380 1698 L283 1570 Z M905 491 C905 392.333 877 311.667 821 249 C765 185.667 693.333 154 606 154 C519.333 154 448.667 183 394 241 C340 299 313 374 313 466 C313 558 341.667 634.667 399 696 C457 756.667 530.333 787 619 787 C705 787 774 759.667 826 705 C878.667 652.333 905 581 905 491 L905 491 Z " />
<glyph glyph-name="ntilde" unicode="&#xf1;" horiz-adv-x="1128" d="M426 942 L206 942 L90 0 L311 0 L367 454 C371.667 492 377 525.5 383 554.5 C389 583.5 396.333 608 405 628 C421 667.333 445.667 700.667 479 728 C519.667 762.667 568.333 780 625 780 C717 780 763 737.333 763 652 C763 639.333 762.5 625 761.5 609 C760.5 593 758.667 574.667 756 554 L688 0 L908 0 L971 506 C979 572.667 983 630 983 678 C983 766.667 956 836.667 902 888 C846.667 939.333 773 965 681 965 C591.667 965 503.333 928.333 416 855 L426 942 Z M966 1338 L849 1416 C817.667 1348.67 785 1315 751 1315 C734.333 1315 700.667 1329.33 650 1358 C584.667 1394 537.667 1412 509 1412 C441 1412 371 1353.67 299 1237 L413 1157 L423 1172 C425.667 1176 427.667 1178.67 429 1180 L446 1209 C462.667 1239 483.667 1254 509 1254 C521.667 1254 532.667 1251.33 542 1246 L585 1220 C587.667 1218 603.667 1210 633 1196 L684 1172 C704.667 1161.33 727 1156 751 1156 C832.333 1156 904 1216.67 966 1338 L966 1338 Z " />
<glyph glyph-name="ograve" unicode="&#xf2;" horiz-adv-x="1232" d="M1130 480 C1130 626 1082.67 744.333 988 835 C894 927 772.333 973 623 973 C471 973 344.333 924.333 243 827 C142.333 730.333 92 609 92 463 C92 320.333 140.667 202.333 238 109 C334.667 16.3333 459.333 -30 612 -30 C758 -30 880.667 19 980 117 C1080 215 1130 336 1130 480 L1130 480 Z M907 491 C907 392.333 878.667 311.667 822 249 C766 185.667 694.667 154 608 154 C521.333 154 450.667 183 396 241 C341.333 297.667 314 372.667 314 466 C314 558.667 343 635.667 401 697 C459 757.667 532.333 788 621 788 C706.333 788 775.333 760.667 828 706 C880.667 653.333 907 581.667 907 491 L907 491 Z M450 1378 L695 1092 L803 1160 L612 1488 L450 1378 Z " />
<glyph glyph-name="oacute" unicode="&#xf3;" horiz-adv-x="1232" d="M1130 480 C1130 626 1082.67 744.333 988 835 C894 927 772.333 973 623 973 C471 973 344.333 924.333 243 827 C142.333 730.333 92 609 92 463 C92 320.333 140.667 202.333 238 109 C334.667 16.3333 459.333 -30 612 -30 C758 -30 880.667 19 980 117 C1080 215 1130 336 1130 480 L1130 480 Z M907 491 C907 392.333 878.667 311.667 822 249 C766 185.667 694.667 154 608 154 C521.333 154 450.667 183 396 241 C341.333 297.667 314 372.667 314 466 C314 558.667 343 635.667 401 697 C459 757.667 532.333 788 621 788 C706.333 788 775.333 760.667 828 706 C880.667 653.333 907 581.667 907 491 L907 491 Z M990 1383 L825 1488 L557 1157 L670 1092 L990 1383 Z " />
<glyph glyph-name="ocircumflex" unicode="&#xf4;" horiz-adv-x="1232" d="M1130 480 C1130 626 1082.67 744.333 988 835 C894 927 772.333 973 623 973 C471 973 344.333 924.333 243 827 C142.333 730.333 92 609 92 463 C92 320.333 140.667 202.333 238 109 C334.667 16.3333 459.333 -30 612 -30 C758 -30 880.667 19 980 117 C1080 215 1130 336 1130 480 L1130 480 Z M907 491 C907 392.333 878.667 311.667 822 249 C766 185.667 694.667 154 608 154 C521.333 154 450.667 183 396 241 C341.333 297.667 314 372.667 314 466 C314 558.667 343 635.667 401 697 C459 757.667 532.333 788 621 788 C706.333 788 775.333 760.667 828 706 C880.667 653.333 907 581.667 907 491 L907 491 Z M714 1282 L871 1095 L971 1192 L735 1488 L403 1192 L496 1092 L714 1282 Z " />
<glyph glyph-name="otilde" unicode="&#xf5;" horiz-adv-x="1232" d="M1130 480 C1130 626 1082.67 744.333 988 835 C894 927 772.333 973 623 973 C471 973 344.333 924.333 243 827 C142.333 730.333 92 609 92 463 C92 320.333 140.667 202.333 238 109 C334.667 16.3333 459.333 -30 612 -30 C758 -30 880.667 19 980 117 C1080 215 1130 336 1130 480 L1130 480 Z M907 491 C907 392.333 878.667 311.667 822 249 C766 185.667 694.667 154 608 154 C521.333 154 450.667 183 396 241 C341.333 297.667 314 372.667 314 466 C314 558.667 343 635.667 401 697 C459 757.667 532.333 788 621 788 C706.333 788 775.333 760.667 828 706 C880.667 653.333 907 581.667 907 491 L907 491 Z M1036 1338 L919 1416 C887.667 1348.67 855 1315 821 1315 C804.333 1315 770.667 1329.33 720 1358 C654.667 1394 607.667 1412 579 1412 C511 1412 441 1353.67 369 1237 L483 1157 L493 1172 C495.667 1176 497.667 1178.67 499 1180 L516 1209 C532.667 1239 553.667 1254 579 1254 C591.667 1254 602.667 1251.33 612 1246 L655 1220 C657.667 1218 673.667 1210 703 1196 L754 1172 C774.667 1161.33 797 1156 821 1156 C902.333 1156 974 1216.67 1036 1338 L1036 1338 Z " />
<glyph glyph-name="odieresis" unicode="&#xf6;" horiz-adv-x="1232" d="M1130 480 C1130 626 1082.67 744.333 988 835 C894 927 772.333 973 623 973 C471 973 344.333 924.333 243 827 C142.333 730.333 92 609 92 463 C92 320.333 140.667 202.333 238 109 C334.667 16.3333 459.333 -30 612 -30 C758 -30 880.667 19 980 117 C1080 215 1130 336 1130 480 L1130 480 Z M907 491 C907 392.333 878.667 311.667 822 249 C766 185.667 694.667 154 608 154 C521.333 154 450.667 183 396 241 C341.333 297.667 314 372.667 314 466 C314 558.667 343 635.667 401 697 C459 757.667 532.333 788 621 788 C706.333 788 775.333 760.667 828 706 C880.667 653.333 907 581.667 907 491 L907 491 Z M634 1267 C634 1299.67 622 1328.67 598 1354 C574 1378.67 545.667 1391 513 1391 C480.333 1391 452.333 1379.33 429 1356 C406.333 1333.33 395 1305.33 395 1272 C395 1240 406.667 1211.33 430 1186 C454 1162 482.333 1150 515 1150 C548.333 1150 576.333 1161.33 599 1184 C622.333 1207.33 634 1235 634 1267 L634 1267 Z M995 1267 C995 1299.67 983 1328.67 959 1354 C935 1378.67 906.333 1391 873 1391 C841 1391 813.333 1379.33 790 1356 C766.667 1332.67 755 1304.67 755 1272 C755 1240 766.667 1211.33 790 1186 C814 1162 842.333 1150 875 1150 C908.333 1150 936.333 1161.33 959 1184 C983 1206.67 995 1234.33 995 1267 L995 1267 Z " />
<glyph glyph-name="divide" unicode="&#xf7;" horiz-adv-x="1264" d="M127 695 L1199 695 L1199 880 L127 880 L127 695 Z M796 433 C796 470.333 782 502.667 754 530 C726.667 557.333 693.667 571 655 571 C619.667 571 589.333 558.333 564 533 C539.333 508.333 527 477.333 527 440 C527 400.667 540 367.667 566 341 C592 313.667 623.667 300 661 300 C697 300 728.333 313.333 755 340 C782.333 367.333 796 398.333 796 433 L796 433 Z M801 1136 C801 1174 787 1206.67 759 1234 C731.667 1261.33 698.333 1275 659 1275 C623.667 1275 593.333 1262.33 568 1237 C544 1211.67 532 1180.33 532 1143 C532 1103.67 545 1070.67 571 1044 C597 1017.33 628.667 1004 666 1004 C702 1004 733.333 1017.33 760 1044 C787.333 1071.33 801 1102 801 1136 L801 1136 Z " />
<glyph glyph-name="oslash" unicode="&#xf8;" horiz-adv-x="1232" d="M264 86 C365.333 8.66667 481.667 -30 613 -30 C759 -30 881.667 19 981 117 C1079.67 215 1129 337.333 1129 484 C1129 560.667 1110.67 640 1074 722 L1053 767 L1213 901 L1115 1014 L950 871 C850 939 741.333 973 624 973 C470.667 973 343.667 924.667 243 828 C142.333 731.333 92 610 92 464 C92 372 116.667 282.333 166 195 L1 53 L96 -57 L264 86 Z M417 221 L879 615 C897 579.667 906 540.333 906 497 C906 395 878.333 312.333 823 249 C767.667 185.667 695.667 154 607 154 C539 154 475.667 176.333 417 221 L417 221 Z M336 341 C321.333 379 314 419.667 314 463 C314 557 342.667 634.667 400 696 C457.333 757.333 530.333 788 619 788 C690.333 788 747.667 770 791 734 L336 341 Z " />
<glyph glyph-name="ugrave" unicode="&#xf9;" horiz-adv-x="1121" d="M1017 942 L797 942 L728 383 C718 301 698 243.667 668 211 C638 178.333 591.333 162 528 162 C411.333 162 353 211.667 353 311 C353 322.333 353.667 336.5 355 353.5 C356.333 370.5 358.333 390.333 361 413 L426 942 L205 942 L143 433 C139.667 406.333 137.167 382.667 135.5 362 C133.833 341.333 133 323.333 133 308 C133 207.333 167.667 127 237 67 C306.333 7.66667 399 -22 515 -22 C637 -22 735.333 7.33333 810 66 C854 100.667 885.333 140.333 904 185 C913.333 208.333 922 237.333 930 272 C938 306.667 944.667 347.333 950 394 L1017 942 Z M400 1378 L645 1092 L753 1160 L562 1488 L400 1378 Z " />
<glyph glyph-name="uacute" unicode="&#xfa;" horiz-adv-x="1121" d="M1017 942 L797 942 L728 383 C718 301 698 243.667 668 211 C638 178.333 591.333 162 528 162 C411.333 162 353 211.667 353 311 C353 322.333 353.667 336.5 355 353.5 C356.333 370.5 358.333 390.333 361 413 L426 942 L205 942 L143 433 C139.667 406.333 137.167 382.667 135.5 362 C133.833 341.333 133 323.333 133 308 C133 207.333 167.667 127 237 67 C306.333 7.66667 399 -22 515 -22 C637 -22 735.333 7.33333 810 66 C854 100.667 885.333 140.333 904 185 C913.333 208.333 922 237.333 930 272 C938 306.667 944.667 347.333 950 394 L1017 942 Z M947 1383 L782 1488 L514 1157 L627 1092 L947 1383 Z " />
<glyph glyph-name="ucircumflex" unicode="&#xfb;" horiz-adv-x="1121" d="M1017 942 L797 942 L728 383 C718 301 698 243.667 668 211 C638 178.333 591.333 162 528 162 C411.333 162 353 211.667 353 311 C353 322.333 353.667 336.5 355 353.5 C356.333 370.5 358.333 390.333 361 413 L426 942 L205 942 L143 433 C139.667 406.333 137.167 382.667 135.5 362 C133.833 341.333 133 323.333 133 308 C133 207.333 167.667 127 237 67 C306.333 7.66667 399 -22 515 -22 C637 -22 735.333 7.33333 810 66 C854 100.667 885.333 140.333 904 185 C913.333 208.333 922 237.333 930 272 C938 306.667 944.667 347.333 950 394 L1017 942 Z M661 1282 L818 1095 L918 1192 L682 1488 L350 1192 L443 1092 L661 1282 Z " />
<glyph glyph-name="udieresis" unicode="&#xfc;" horiz-adv-x="1121" d="M1017 942 L797 942 L728 383 C718 301 698 243.667 668 211 C638 178.333 591.333 162 528 162 C411.333 162 353 211.667 353 311 C353 322.333 353.667 336.5 355 353.5 C356.333 370.5 358.333 390.333 361 413 L426 942 L205 942 L143 433 C139.667 406.333 137.167 382.667 135.5 362 C133.833 341.333 133 323.333 133 308 C133 207.333 167.667 127 237 67 C306.333 7.66667 399 -22 515 -22 C637 -22 735.333 7.33333 810 66 C854 100.667 885.333 140.333 904 185 C913.333 208.333 922 237.333 930 272 C938 306.667 944.667 347.333 950 394 L1017 942 Z M593 1267 C593 1299.67 581 1328.67 557 1354 C533 1378.67 504.667 1391 472 1391 C439.333 1391 411.333 1379.33 388 1356 C365.333 1333.33 354 1305.33 354 1272 C354 1240 365.667 1211.33 389 1186 C413 1162 441.333 1150 474 1150 C507.333 1150 535.333 1161.33 558 1184 C581.333 1207.33 593 1235 593 1267 L593 1267 Z M954 1267 C954 1299.67 942 1328.67 918 1354 C894 1378.67 865.333 1391 832 1391 C800 1391 772.333 1379.33 749 1356 C725.667 1332.67 714 1304.67 714 1272 C714 1240 725.667 1211.33 749 1186 C773 1162 801.333 1150 834 1150 C867.333 1150 895.333 1161.33 918 1184 C942 1206.67 954 1234.33 954 1267 L954 1267 Z " />
<glyph glyph-name="yacute" unicode="&#xfd;" horiz-adv-x="1078" d="M1113 942 L860 942 L519 340 L286 942 L50 942 L387 117 L8 -539 L260 -539 L1113 942 Z M915 1383 L750 1488 L482 1157 L595 1092 L915 1383 Z " />
<glyph glyph-name="thorn" unicode="&#xfe;" horiz-adv-x="1254" d="M518 1689 L297 1689 L23 -539 L244 -539 L327 135 C379.667 75.6667 430.667 34.6667 480 12 C526 -10.6667 585.333 -22 658 -22 C798 -22 915.333 28.3333 1010 129 C1106 229.667 1154 354.333 1154 503 C1154 635.667 1112.33 745.667 1029 833 C945.667 921 841 965 715 965 C611.667 965 511.333 924.333 414 843 L518 1689 Z M932 494 C932 402 903.333 323.333 846 258 C788.667 194 718.333 162 635 162 C554.333 162 488.667 188 438 240 C387.333 290.667 362 357.667 362 441 C362 536.333 392 616.667 452 682 C513.333 747.333 588 780 676 780 C750.667 780 812 753 860 699 C908 645.667 932 577.333 932 494 L932 494 Z " />
<glyph glyph-name="ydieresis" unicode="&#xff;" horiz-adv-x="1078" d="M1113 942 L860 942 L519 340 L286 942 L50 942 L387 117 L8 -539 L260 -539 L1113 942 Z M556 1267 C556 1299.67 544 1328.67 520 1354 C496 1378.67 467.667 1391 435 1391 C402.333 1391 374.333 1379.33 351 1356 C328.333 1333.33 317 1305.33 317 1272 C317 1240 328.667 1211.33 352 1186 C376 1162 404.333 1150 437 1150 C470.333 1150 498.333 1161.33 521 1184 C544.333 1207.33 556 1235 556 1267 L556 1267 Z M917 1267 C917 1299.67 905 1328.67 881 1354 C857 1378.67 828.333 1391 795 1391 C763 1391 735.333 1379.33 712 1356 C688.667 1332.67 677 1304.67 677 1272 C677 1240 688.667 1211.33 712 1186 C736 1162 764.333 1150 797 1150 C830.333 1150 858.333 1161.33 881 1184 C905 1206.67 917 1234.33 917 1267 L917 1267 Z " />
<glyph glyph-name="Amacron" unicode="&#x100;" horiz-adv-x="1446" d="M435 363 L1034 363 L1146 0 L1385 0 L852 1654 L-2 0 L247 0 L435 363 Z M534 561 L804 1110 L970 561 L534 561 Z M563 1873 L544 1713 L1185 1713 L1205 1873 L563 1873 Z " />
<glyph glyph-name="amacron" unicode="&#x101;" horiz-adv-x="1233" d="M1130 942 L909 942 L894 818 C844 872 795 910 747 932 C699.667 954 642.333 965 575 965 C432.333 965 315.333 915.333 224 816 C134 716.667 89 589.333 89 434 C89 299.333 128.333 189.667 207 105 C285.667 20.3333 387.333 -22 512 -22 C613.333 -22 711.333 19.3333 806 102 L793 0 L1014 0 L1130 942 Z M861 498 C861 406.667 831.333 327.333 772 260 C712.667 194 642.333 161 561 161 C487.667 161 427.667 187.333 381 240 C334.333 292.667 311 360.333 311 443 C311 537.667 339 617.667 395 683 C451 747.667 520.333 780 603 780 C679 780 741 753.667 789 701 C837 649 861 581.333 861 498 L861 498 Z M354 1341 L335 1181 L976 1181 L996 1341 L354 1341 Z " />
<glyph glyph-name="Abreve" unicode="&#x102;" horiz-adv-x="1446" d="M435 363 L1034 363 L1146 0 L1385 0 L852 1654 L-2 0 L247 0 L435 363 Z M534 561 L804 1110 L970 561 L534 561 Z M575 2010 L574 1969 C574 1889 599.667 1822.33 651 1769 C703 1717 769 1691 849 1691 C1015 1691 1132 1797.33 1200 2010 L1036 2010 C994.667 1904 934.333 1851 855 1851 C776.333 1851 737 1904 737 2010 L575 2010 Z " />
<glyph glyph-name="abreve" unicode="&#x103;" horiz-adv-x="1233" d="M1130 942 L909 942 L894 818 C844 872 795 910 747 932 C699.667 954 642.333 965 575 965 C432.333 965 315.333 915.333 224 816 C134 716.667 89 589.333 89 434 C89 299.333 128.333 189.667 207 105 C285.667 20.3333 387.333 -22 512 -22 C613.333 -22 711.333 19.3333 806 102 L793 0 L1014 0 L1130 942 Z M861 498 C861 406.667 831.333 327.333 772 260 C712.667 194 642.333 161 561 161 C487.667 161 427.667 187.333 381 240 C334.333 292.667 311 360.333 311 443 C311 537.667 339 617.667 395 683 C451 747.667 520.333 780 603 780 C679 780 741 753.667 789 701 C837 649 861 581.333 861 498 L861 498 Z M443 1431 L443 1394 C443 1316.67 468 1251.67 518 1199 C568.667 1147 631.333 1121 706 1121 C780.667 1121 845.833 1147 901.5 1199 C957.167 1251 1001 1328.33 1033 1431 L877 1431 C839 1324.33 784.667 1271 714 1271 C680 1271 652.167 1282.83 630.5 1306.5 C608.833 1330.17 598 1360 598 1396 L598 1431 L443 1431 Z " />
<glyph glyph-name="Aogonek" unicode="&#x104;" horiz-adv-x="1446" d="M435 363 L1034 363 L1146 0 L1385 0 L852 1654 L-2 0 L247 0 L435 363 Z M534 561 L804 1110 L970 561 L534 561 Z M1147 0 C989.667 -81.3333 911 -173 911 -275 C911 -337 933.333 -388.333 978 -429 C1022 -471 1077.67 -492 1145 -492 C1203.67 -492 1260.67 -477 1316 -447 L1358 -286 C1302 -301.333 1261 -309 1235 -309 C1202.33 -309 1175.33 -300.667 1154 -284 C1132.67 -267.333 1122 -245.667 1122 -219 C1122 -156.333 1195 -83.3333 1341 0 L1147 0 Z " />
<glyph glyph-name="aogonek" unicode="&#x105;" horiz-adv-x="1233" d="M1130 942 L909 942 L894 818 C844 872 795 910 747 932 C699.667 954 642.333 965 575 965 C432.333 965 315.333 915.333 224 816 C134 716.667 89 589.333 89 434 C89 299.333 128.333 189.667 207 105 C285.667 20.3333 387.333 -22 512 -22 C613.333 -22 711.333 19.3333 806 102 L793 0 L1014 0 L1130 942 Z M861 498 C861 406.667 831.333 327.333 772 260 C712.667 194 642.333 161 561 161 C487.667 161 427.667 187.333 381 240 C334.333 292.667 311 360.333 311 443 C311 537.667 339 617.667 395 683 C451 747.667 520.333 780 603 780 C679 780 741 753.667 789 701 C837 649 861 581.333 861 498 L861 498 Z M794 0 C636.667 -81.3333 558 -173 558 -275 C558 -337 580.333 -388.333 625 -429 C669 -471 724.667 -492 792 -492 C850.667 -492 907.667 -477 963 -447 L1005 -286 C949 -301.333 908 -309 882 -309 C849.333 -309 822.333 -300.667 801 -284 C779.667 -267.333 769 -245.667 769 -219 C769 -156.333 842 -83.3333 988 0 L794 0 Z " />
<glyph glyph-name="Cacute" unicode="&#x106;" horiz-adv-x="1413" d="M1423 1406 C1250.33 1518.67 1077 1575 903 1575 C682.333 1575 499 1496.33 353 1339 C207.667 1181.67 135 983.667 135 745 C135 511 203.333 323.667 340 183 C476.667 41 657 -30 881 -30 C1003.67 -30 1136 -3.66667 1278 49 L1311 320 C1198.33 229.333 1068.33 184 921 184 C744.333 184 607.667 232.333 511 329 C413.667 426.333 365 561.667 365 735 C365 920.333 415.667 1070.67 517 1186 C617.667 1302 749.667 1360 913 1360 C1098.33 1360 1258 1292 1392 1156 L1423 1406 Z M1311 1966 L1137 2077 L863 1762 L983 1689 L1311 1966 Z " />
<glyph glyph-name="cacute" unicode="&#x107;" horiz-adv-x="939" d="M902 851 C798.667 932.333 690.333 973 577 973 C438.333 973 322.333 923.333 229 824 C136.333 725.333 90 602.333 90 455 C90 311.667 133 195 219 105 C305.667 15 418 -30 556 -30 C633.333 -30 714.667 -12.6667 800 22 L829 255 C745.667 187.667 665 154 587 154 C505.667 154 439.333 181.667 388 237 C337.333 291.667 312 364.667 312 456 C312 553.333 339 633 393 695 C447 757 516 788 600 788 C655.333 788 703.333 775.667 744 751 C785.333 725.667 828.667 684 874 626 L902 851 Z M945 1383 L780 1488 L512 1157 L625 1092 L945 1383 Z " />
<glyph glyph-name="Ccircumflex" unicode="&#x108;" horiz-adv-x="1413" d="M1423 1406 C1250.33 1518.67 1077 1575 903 1575 C682.333 1575 499 1496.33 353 1339 C207.667 1181.67 135 983.667 135 745 C135 511 203.333 323.667 340 183 C476.667 41 657 -30 881 -30 C1003.67 -30 1136 -3.66667 1278 49 L1311 320 C1198.33 229.333 1068.33 184 921 184 C744.333 184 607.667 232.333 511 329 C413.667 426.333 365 561.667 365 735 C365 920.333 415.667 1070.67 517 1186 C617.667 1302 749.667 1360 913 1360 C1098.33 1360 1258 1292 1392 1156 L1423 1406 Z M1041 1887 L1198 1700 L1298 1797 L1062 2093 L730 1797 L823 1697 L1041 1887 Z " />
<glyph glyph-name="ccircumflex" unicode="&#x109;" horiz-adv-x="939" d="M902 851 C798.667 932.333 690.333 973 577 973 C438.333 973 322.333 923.333 229 824 C136.333 725.333 90 602.333 90 455 C90 311.667 133 195 219 105 C305.667 15 418 -30 556 -30 C633.333 -30 714.667 -12.6667 800 22 L829 255 C745.667 187.667 665 154 587 154 C505.667 154 439.333 181.667 388 237 C337.333 291.667 312 364.667 312 456 C312 553.333 339 633 393 695 C447 757 516 788 600 788 C655.333 788 703.333 775.667 744 751 C785.333 725.667 828.667 684 874 626 L902 851 Z M686 1282 L843 1095 L943 1192 L707 1488 L375 1192 L468 1092 L686 1282 Z " />
<glyph glyph-name="Cdotaccent" unicode="&#x10a;" horiz-adv-x="1413" d="M1423 1406 C1250.33 1518.67 1077 1575 903 1575 C682.333 1575 499 1496.33 353 1339 C207.667 1181.67 135 983.667 135 745 C135 511 203.333 323.667 340 183 C476.667 41 657 -30 881 -30 C1003.67 -30 1136 -3.66667 1278 49 L1311 320 C1198.33 229.333 1068.33 184 921 184 C744.333 184 607.667 232.333 511 329 C413.667 426.333 365 561.667 365 735 C365 920.333 415.667 1070.67 517 1186 C617.667 1302 749.667 1360 913 1360 C1098.33 1360 1258 1292 1392 1156 L1423 1406 Z M1137 1809 C1137 1843 1125 1872 1101 1896 C1078.33 1920.67 1050.33 1933 1017 1933 C984.333 1933 956.333 1921.33 933 1898 C909.667 1874.67 898 1846.67 898 1814 C898 1782 909.667 1753.33 933 1728 C957 1704 985.333 1692 1018 1692 C1051.33 1692 1079.33 1703.33 1102 1726 C1125.33 1749.33 1137 1777 1137 1809 L1137 1809 Z " />
<glyph glyph-name="cdotaccent" unicode="&#x10b;" horiz-adv-x="939" d="M902 851 C798.667 932.333 690.333 973 577 973 C438.333 973 322.333 923.333 229 824 C136.333 725.333 90 602.333 90 455 C90 311.667 133 195 219 105 C305.667 15 418 -30 556 -30 C633.333 -30 714.667 -12.6667 800 22 L829 255 C745.667 187.667 665 154 587 154 C505.667 154 439.333 181.667 388 237 C337.333 291.667 312 364.667 312 456 C312 553.333 339 633 393 695 C447 757 516 788 600 788 C655.333 788 703.333 775.667 744 751 C785.333 725.667 828.667 684 874 626 L902 851 Z M789 1267 C789 1301 777 1330 753 1354 C730.333 1378.67 702.333 1391 669 1391 C636.333 1391 608.333 1379.33 585 1356 C561.667 1332.67 550 1304.67 550 1272 C550 1240 561.667 1211.33 585 1186 C609 1162 637.333 1150 670 1150 C703.333 1150 731.333 1161.33 754 1184 C777.333 1207.33 789 1235 789 1267 L789 1267 Z " />
<glyph glyph-name="Ccaron" unicode="&#x10c;" horiz-adv-x="1413" d="M1423 1406 C1250.33 1518.67 1077 1575 903 1575 C682.333 1575 499 1496.33 353 1339 C207.667 1181.67 135 983.667 135 745 C135 511 203.333 323.667 340 183 C476.667 41 657 -30 881 -30 C1003.67 -30 1136 -3.66667 1278 49 L1311 320 C1198.33 229.333 1068.33 184 921 184 C744.333 184 607.667 232.333 511 329 C413.667 426.333 365 561.667 365 735 C365 920.333 415.667 1070.67 517 1186 C617.667 1302 749.667 1360 913 1360 C1098.33 1360 1258 1292 1392 1156 L1423 1406 Z M985 1895 L829 2067 L706 1964 L964 1684 L1326 1963 L1227 2070 L985 1895 Z " />
<glyph glyph-name="ccaron" unicode="&#x10d;" horiz-adv-x="939" d="M902 851 C798.667 932.333 690.333 973 577 973 C438.333 973 322.333 923.333 229 824 C136.333 725.333 90 602.333 90 455 C90 311.667 133 195 219 105 C305.667 15 418 -30 556 -30 C633.333 -30 714.667 -12.6667 800 22 L829 255 C745.667 187.667 665 154 587 154 C505.667 154 439.333 181.667 388 237 C337.333 291.667 312 364.667 312 456 C312 553.333 339 633 393 695 C447 757 516 788 600 788 C655.333 788 703.333 775.667 744 751 C785.333 725.667 828.667 684 874 626 L902 851 Z M645 1297 L489 1485 L388 1388 L624 1092 L956 1387 L863 1488 L645 1297 Z " />
<glyph glyph-name="Dcaron" unicode="&#x10e;" horiz-adv-x="1466" d="M310 1544 L120 0 L511 0 C581.667 0 643.333 1.66667 696 5 C748.667 8.33333 794 13.3333 832 20 C903.333 34 971.667 59.6667 1037 97 C1093 131 1142.67 172.167 1186 220.5 C1229.33 268.833 1267.33 325 1300 389 C1365.33 518.333 1398 659 1398 811 C1398 954.333 1369 1084 1311 1200 C1253 1316 1173.67 1403 1073 1461 C1018.33 1493 958.667 1514.67 894 1526 C830.667 1538 740 1544 622 1544 L310 1544 Z M512 1331 L640 1331 C772 1331 871.667 1314 939 1280 C1009.67 1243.33 1065.67 1184 1107 1102 C1147.67 1021.33 1168 927.333 1168 820 C1168 647.333 1122.67 503.667 1032 389 C980 321.667 919 275.667 849 251 C777 225.667 677 213 549 213 L375 213 L512 1331 Z M744 1895 L588 2067 L465 1964 L723 1684 L1085 1963 L986 2070 L744 1895 Z " />
<glyph glyph-name="dcaron" unicode="&#x10f;" horiz-adv-x="1609" d="M1246 1689 L1025 1689 L916 799 C860.667 859.667 807.667 902.667 757 928 C708.333 952.667 648.333 965 577 965 C437.667 965 322 916 230 818 C138 720 92 597 92 449 C92 310.333 134 197 218 109 C302 21.6667 410 -22 542 -22 C600 -22 648.667 -14 688 2 C728 19.3333 775.333 52.3333 830 101 L818 0 L1038 0 L1246 1689 Z M882 512 C882 413.333 852.667 330.667 794 264 C736 196 665 162 581 162 C500.333 162 435.667 187 387 237 C338.333 287.667 314 354.667 314 438 C314 536.667 342.333 618.333 399 683 C455.667 747.667 527.333 780 614 780 C694 780 758.667 755.333 808 706 C857.333 656.667 882 592 882 512 L882 512 Z M1578 1541 L1353 1541 L1323 1291 L1404 1291 L1403 1245 L1324 1094 L1442 1041 L1536 1192 L1578 1541 Z " />
<glyph glyph-name="Dcroat" unicode="&#x110;" horiz-adv-x="1466" d="M311 1544 L235 931 L96 931 L73 746 L212 746 L120 0 L512 0 C582.667 0 644.167 1.66667 696.5 5 C748.833 8.33333 794 13.3333 832 20 C905.333 33.3333 974 59 1038 97 C1094 131 1143.67 172.167 1187 220.5 C1230.33 268.833 1268.33 325 1301 389 C1365.67 517.667 1398 658.333 1398 811 C1398 954.333 1369 1084 1311 1200 C1254.33 1314.67 1175 1401.67 1073 1461 C1017 1493.67 957.667 1515.33 895 1526 C831.667 1538 740.667 1544 622 1544 L311 1544 Z M513 1331 L641 1331 C773 1331 872.667 1314 940 1280 C1010.67 1243.33 1066.67 1184 1108 1102 C1148.67 1021.33 1169 927.333 1169 820 C1169 650 1123.33 506.333 1032 389 C980 321.667 919 275.667 849 251 C777 225.667 677.333 213 550 213 L376 213 L441 746 L796 746 L819 931 L464 931 L513 1331 Z " />
<glyph glyph-name="dcroat" unicode="&#x111;" horiz-adv-x="1274" d="M882 512 C882 413.333 852.667 330.667 794 264 C736 196 665 162 581 162 C500.333 162 435.667 187 387 237 C338.333 287.667 314 354.667 314 438 C314 536.667 342.333 618.333 399 683 C455.667 747.667 527.333 780 614 780 C694 780 758.667 755.333 808 706 C857.333 656.667 882 592 882 512 L882 512 Z M1205 1360 L1246 1689 L1025 1689 L984 1360 L702 1360 L679 1175 L962 1175 L916 799 C860.667 859.667 807.667 902.667 757 928 C708.333 952.667 648.333 965 577 965 C437.667 965 322 916 230 818 C138 720 92 597 92 449 C92 310.333 134 197 218 109 C302 21.6667 410 -22 542 -22 C600 -22 648.667 -14 688 2 C728 19.3333 775.333 52.3333 830 101 L818 0 L1038 0 L1182 1175 L1377 1175 L1400 1360 L1205 1360 Z " />
<glyph glyph-name="Emacron" unicode="&#x112;" horiz-adv-x="1089" d="M1105 1544 L310 1544 L120 0 L915 0 L942 213 L375 213 L439 733 L1006 733 L1030 931 L463 931 L512 1331 L1079 1331 L1105 1544 Z M415 1873 L396 1713 L1037 1713 L1057 1873 L415 1873 Z " />
<glyph glyph-name="emacron" unicode="&#x113;" horiz-adv-x="1149" d="M316 392 L1044 392 C1046 428 1047 454 1047 470 C1047 623.333 1006 745.667 924 837 C843.333 927.667 733 973 593 973 C448.333 973 328.667 922.667 234 822 C138.667 720.667 91 594.667 91 444 C91 300 134.333 185 221 99 C307.667 13 424 -30 570 -30 C662 -30 738.667 -14.3333 800 17 C860.667 47.6667 919.667 101.667 977 179 L812 270 C756.667 192.667 677.333 154 574 154 C498.667 154 436.667 176.333 388 221 C340 265.667 316 322.667 316 392 L316 392 Z M823 570 L328 570 C367.333 715.333 452 788 582 788 C719.333 788 799.667 715.333 823 570 L823 570 Z M317 1341 L298 1181 L939 1181 L959 1341 L317 1341 Z " />
<glyph glyph-name="Ebreve" unicode="&#x114;" horiz-adv-x="1089" d="M1105 1544 L310 1544 L120 0 L915 0 L942 213 L375 213 L439 733 L1006 733 L1030 931 L463 931 L512 1331 L1079 1331 L1105 1544 Z M501 2001 L501 1964 C501 1886.67 526 1821.67 576 1769 C626.667 1717 689.333 1691 764 1691 C838.667 1691 903.833 1717 959.5 1769 C1015.17 1821 1059 1898.33 1091 2001 L935 2001 C897 1894.33 842.667 1841 772 1841 C738 1841 710.167 1852.83 688.5 1876.5 C666.833 1900.17 656 1930 656 1966 L656 2001 L501 2001 Z " />
<glyph glyph-name="ebreve" unicode="&#x115;" horiz-adv-x="1149" d="M316 392 L1044 392 C1046 428 1047 454 1047 470 C1047 623.333 1006 745.667 924 837 C843.333 927.667 733 973 593 973 C448.333 973 328.667 922.667 234 822 C138.667 720.667 91 594.667 91 444 C91 300 134.333 185 221 99 C307.667 13 424 -30 570 -30 C662 -30 738.667 -14.3333 800 17 C860.667 47.6667 919.667 101.667 977 179 L812 270 C756.667 192.667 677.333 154 574 154 C498.667 154 436.667 176.333 388 221 C340 265.667 316 322.667 316 392 L316 392 Z M823 570 L328 570 C367.333 715.333 452 788 582 788 C719.333 788 799.667 715.333 823 570 L823 570 Z M383 1431 L383 1394 C383 1316.67 408 1251.67 458 1199 C508.667 1147 571.333 1121 646 1121 C720.667 1121 785.833 1147 841.5 1199 C897.167 1251 941 1328.33 973 1431 L817 1431 C779 1324.33 724.667 1271 654 1271 C620 1271 592.167 1282.83 570.5 1306.5 C548.833 1330.17 538 1360 538 1396 L538 1431 L383 1431 Z " />
<glyph glyph-name="Edotaccent" unicode="&#x116;" horiz-adv-x="1089" d="M1105 1544 L310 1544 L120 0 L915 0 L942 213 L375 213 L439 733 L1006 733 L1030 931 L463 931 L512 1331 L1079 1331 L1105 1544 Z M858 1851 C858 1869.67 855 1887.17 849 1903.5 C843 1919.83 834.5 1933.83 823.5 1945.5 C812.5 1957.17 799.5 1966.33 784.5 1973 C769.5 1979.67 753 1983 735 1983 C697 1983 666 1971.33 642 1948 C618 1924.67 606 1894.67 606 1858 C606 1822 618.333 1791.67 643 1767 C667.667 1742.33 698.333 1730 735 1730 C767.667 1730 796.667 1741.67 822 1765 C846 1789 858 1817.67 858 1851 L858 1851 Z " />
<glyph glyph-name="edotaccent" unicode="&#x117;" horiz-adv-x="1149" d="M316 392 L1044 392 C1046 428 1047 454 1047 470 C1047 623.333 1006 745.667 924 837 C843.333 927.667 733 973 593 973 C448.333 973 328.667 922.667 234 822 C138.667 720.667 91 594.667 91 444 C91 300 134.333 185 221 99 C307.667 13 424 -30 570 -30 C662 -30 738.667 -14.3333 800 17 C860.667 47.6667 919.667 101.667 977 179 L812 270 C756.667 192.667 677.333 154 574 154 C498.667 154 436.667 176.333 388 221 C340 265.667 316 322.667 316 392 L316 392 Z M823 570 L328 570 C367.333 715.333 452 788 582 788 C719.333 788 799.667 715.333 823 570 L823 570 Z M803 1267 C803 1301 791 1330 767 1354 C744.333 1378.67 716.333 1391 683 1391 C650.333 1391 622.333 1379.33 599 1356 C575.667 1332.67 564 1304.67 564 1272 C564 1240 575.667 1211.33 599 1186 C623 1162 651.333 1150 684 1150 C717.333 1150 745.333 1161.33 768 1184 C791.333 1207.33 803 1235 803 1267 L803 1267 Z " />
<glyph glyph-name="Eogonek" unicode="&#x118;" horiz-adv-x="1089" d="M1105 1544 L310 1544 L120 0 L915 0 L942 213 L375 213 L439 733 L1006 733 L1030 931 L463 931 L512 1331 L1079 1331 L1105 1544 Z M722 0 C564.667 -81.3333 486 -173 486 -275 C486 -337 508.333 -388.333 553 -429 C597 -471 652.667 -492 720 -492 C778.667 -492 835.667 -477 891 -447 L933 -286 C877 -301.333 836 -309 810 -309 C777.333 -309 750.333 -300.667 729 -284 C707.667 -267.333 697 -245.667 697 -219 C697 -156.333 770 -83.3333 916 0 L722 0 Z " />
<glyph glyph-name="eogonek" unicode="&#x119;" horiz-adv-x="1149" d="M316 392 L1044 392 C1046 428 1047 454 1047 470 C1047 623.333 1006 745.667 924 837 C843.333 927.667 733 973 593 973 C448.333 973 328.667 922.667 234 822 C138.667 720.667 91 594.667 91 444 C91 300 134.333 185 221 99 C307.667 13 424 -30 570 -30 C662 -30 738.667 -14.3333 800 17 C860.667 47.6667 919.667 101.667 977 179 L812 270 C756.667 192.667 677.333 154 574 154 C498.667 154 436.667 176.333 388 221 C340 265.667 316 322.667 316 392 L316 392 Z M823 570 L328 570 C367.333 715.333 452 788 582 788 C719.333 788 799.667 715.333 823 570 L823 570 Z M569 0 C411.667 -81.3333 333 -173 333 -275 C333 -337 355.333 -388.333 400 -429 C444 -471 499.667 -492 567 -492 C625.667 -492 682.667 -477 738 -447 L780 -286 C724 -301.333 683 -309 657 -309 C624.333 -309 597.333 -300.667 576 -284 C554.667 -267.333 544 -245.667 544 -219 C544 -156.333 617 -83.3333 763 0 L569 0 Z " />
<glyph glyph-name="Ecaron" unicode="&#x11a;" horiz-adv-x="1089" d="M1105 1544 L310 1544 L120 0 L915 0 L942 213 L375 213 L439 733 L1006 733 L1030 931 L463 931 L512 1331 L1079 1331 L1105 1544 Z M679 1895 L523 2067 L400 1964 L658 1684 L1020 1963 L921 2070 L679 1895 Z " />
<glyph glyph-name="ecaron" unicode="&#x11b;" horiz-adv-x="1149" d="M316 392 L1044 392 C1046 428 1047 454 1047 470 C1047 623.333 1006 745.667 924 837 C843.333 927.667 733 973 593 973 C448.333 973 328.667 922.667 234 822 C138.667 720.667 91 594.667 91 444 C91 300 134.333 185 221 99 C307.667 13 424 -30 570 -30 C662 -30 738.667 -14.3333 800 17 C860.667 47.6667 919.667 101.667 977 179 L812 270 C756.667 192.667 677.333 154 574 154 C498.667 154 436.667 176.333 388 221 C340 265.667 316 322.667 316 392 L316 392 Z M823 570 L328 570 C367.333 715.333 452 788 582 788 C719.333 788 799.667 715.333 823 570 L823 570 Z M653 1297 L497 1485 L396 1388 L632 1092 L964 1387 L871 1488 L653 1297 Z " />
<glyph glyph-name="Gcircumflex" unicode="&#x11c;" horiz-adv-x="1644" d="M954 718 L929 520 L1312 520 C1290 416 1240.67 334 1164 274 C1086.67 214 993.333 184 884 184 C729.333 184 603.667 236.333 507 341 C410.333 445.667 362 580.667 362 746 C362 926 413.667 1073.67 517 1189 C619.667 1303 753.333 1360 918 1360 C1117.33 1360 1280 1277.33 1406 1112 L1555 1264 C1387.67 1471.33 1176.67 1575 922 1575 C714 1575 539.667 1510.67 399 1382 C315 1306 249.667 1211.33 203 1098 C155.667 982 132 863 132 741 C132 516.333 201.333 331.667 340 187 C478.667 42.3333 655.333 -30 870 -30 C1124.67 -30 1316.67 75.6667 1446 287 C1514.67 399 1556.67 542.667 1572 718 L954 718 Z M1048 1880 L1205 1693 L1305 1790 L1069 2086 L737 1790 L830 1690 L1048 1880 Z " />
<glyph glyph-name="gcircumflex" unicode="&#x11d;" horiz-adv-x="1256" d="M1152 942 L931 942 L917 825 C866.333 877.667 817.333 914 770 934 C726.667 954.667 670 965 600 965 C454 965 332.333 915.333 235 816 C138.333 717.333 90 593 90 443 C90 309.667 131.667 198.333 215 109 C298.333 21.6667 404 -22 532 -22 C634.667 -22 732.667 13.6667 826 85 L810 -44 C797.333 -149.333 767.333 -226.167 720 -274.5 C672.667 -322.833 603.667 -347 513 -347 C429 -347 367 -326.833 327 -286.5 C287 -246.167 264.333 -181.667 259 -93 L45 -93 C45 -175 54.3333 -238.667 73 -284 C91.6667 -333.333 124.333 -377.333 171 -416 C262.333 -493.333 381.667 -532 529 -532 C671.667 -532 787.667 -492 877 -412 C923 -370 957.667 -319.667 981 -261 C992.333 -232.333 1002.5 -197 1011.5 -155 C1020.5 -113 1028.67 -63.6667 1036 -7 L1152 942 Z M898 495 C898 399 868.333 319.333 809 256 C750.333 193.333 675.333 162 584 162 C502 162 436 187.667 386 239 C336.667 292.333 312 361 312 445 C312 541 340.667 620.667 398 684 C456 748 528.667 780 616 780 C700 780 768 753.667 820 701 C872 649 898 580.333 898 495 L898 495 Z M686 1282 L843 1095 L943 1192 L707 1488 L375 1192 L468 1092 L686 1282 Z " />
<glyph glyph-name="Gbreve" unicode="&#x11e;" horiz-adv-x="1644" d="M954 718 L929 520 L1312 520 C1290 416 1240.67 334 1164 274 C1086.67 214 993.333 184 884 184 C729.333 184 603.667 236.333 507 341 C410.333 445.667 362 580.667 362 746 C362 926 413.667 1073.67 517 1189 C619.667 1303 753.333 1360 918 1360 C1117.33 1360 1280 1277.33 1406 1112 L1555 1264 C1387.67 1471.33 1176.67 1575 922 1575 C714 1575 539.667 1510.67 399 1382 C315 1306 249.667 1211.33 203 1098 C155.667 982 132 863 132 741 C132 516.333 201.333 331.667 340 187 C478.667 42.3333 655.333 -30 870 -30 C1124.67 -30 1316.67 75.6667 1446 287 C1514.67 399 1556.67 542.667 1572 718 L954 718 Z M727 2010 L726 1969 C726 1889 751.667 1822.33 803 1769 C855 1717 921 1691 1001 1691 C1167 1691 1284 1797.33 1352 2010 L1188 2010 C1146.67 1904 1086.33 1851 1007 1851 C928.333 1851 889 1904 889 2010 L727 2010 Z " />
<glyph glyph-name="gbreve" unicode="&#x11f;" horiz-adv-x="1256" d="M1152 942 L931 942 L917 825 C866.333 877.667 817.333 914 770 934 C726.667 954.667 670 965 600 965 C454 965 332.333 915.333 235 816 C138.333 717.333 90 593 90 443 C90 309.667 131.667 198.333 215 109 C298.333 21.6667 404 -22 532 -22 C634.667 -22 732.667 13.6667 826 85 L810 -44 C797.333 -149.333 767.333 -226.167 720 -274.5 C672.667 -322.833 603.667 -347 513 -347 C429 -347 367 -326.833 327 -286.5 C287 -246.167 264.333 -181.667 259 -93 L45 -93 C45 -175 54.3333 -238.667 73 -284 C91.6667 -333.333 124.333 -377.333 171 -416 C262.333 -493.333 381.667 -532 529 -532 C671.667 -532 787.667 -492 877 -412 C923 -370 957.667 -319.667 981 -261 C992.333 -232.333 1002.5 -197 1011.5 -155 C1020.5 -113 1028.67 -63.6667 1036 -7 L1152 942 Z M898 495 C898 399 868.333 319.333 809 256 C750.333 193.333 675.333 162 584 162 C502 162 436 187.667 386 239 C336.667 292.333 312 361 312 445 C312 541 340.667 620.667 398 684 C456 748 528.667 780 616 780 C700 780 768 753.667 820 701 C872 649 898 580.333 898 495 L898 495 Z M458 1431 L458 1394 C458 1316.67 483 1251.67 533 1199 C583.667 1147 646.333 1121 721 1121 C795.667 1121 860.833 1147 916.5 1199 C972.167 1251 1016 1328.33 1048 1431 L892 1431 C854 1324.33 799.667 1271 729 1271 C695 1271 667.167 1282.83 645.5 1306.5 C623.833 1330.17 613 1360 613 1396 L613 1431 L458 1431 Z " />
<glyph glyph-name="Gdotaccent" unicode="&#x120;" horiz-adv-x="1644" d="M954 718 L929 520 L1312 520 C1290 416 1240.67 334 1164 274 C1086.67 214 993.333 184 884 184 C729.333 184 603.667 236.333 507 341 C410.333 445.667 362 580.667 362 746 C362 926 413.667 1073.67 517 1189 C619.667 1303 753.333 1360 918 1360 C1117.33 1360 1280 1277.33 1406 1112 L1555 1264 C1387.67 1471.33 1176.67 1575 922 1575 C714 1575 539.667 1510.67 399 1382 C315 1306 249.667 1211.33 203 1098 C155.667 982 132 863 132 741 C132 516.333 201.333 331.667 340 187 C478.667 42.3333 655.333 -30 870 -30 C1124.67 -30 1316.67 75.6667 1446 287 C1514.67 399 1556.67 542.667 1572 718 L954 718 Z M1060 1809 C1060 1843 1048 1872 1024 1896 C1001.33 1920.67 973.333 1933 940 1933 C907.333 1933 879.333 1921.33 856 1898 C832.667 1874.67 821 1846.67 821 1814 C821 1782 832.667 1753.33 856 1728 C880 1704 908.333 1692 941 1692 C974.333 1692 1002.33 1703.33 1025 1726 C1048.33 1749.33 1060 1777 1060 1809 L1060 1809 Z " />
<glyph glyph-name="gdotaccent" unicode="&#x121;" horiz-adv-x="1256" d="M1152 942 L931 942 L917 825 C866.333 877.667 817.333 914 770 934 C726.667 954.667 670 965 600 965 C454 965 332.333 915.333 235 816 C138.333 717.333 90 593 90 443 C90 309.667 131.667 198.333 215 109 C298.333 21.6667 404 -22 532 -22 C634.667 -22 732.667 13.6667 826 85 L810 -44 C797.333 -149.333 767.333 -226.167 720 -274.5 C672.667 -322.833 603.667 -347 513 -347 C429 -347 367 -326.833 327 -286.5 C287 -246.167 264.333 -181.667 259 -93 L45 -93 C45 -175 54.3333 -238.667 73 -284 C91.6667 -333.333 124.333 -377.333 171 -416 C262.333 -493.333 381.667 -532 529 -532 C671.667 -532 787.667 -492 877 -412 C923 -370 957.667 -319.667 981 -261 C992.333 -232.333 1002.5 -197 1011.5 -155 C1020.5 -113 1028.67 -63.6667 1036 -7 L1152 942 Z M898 495 C898 399 868.333 319.333 809 256 C750.333 193.333 675.333 162 584 162 C502 162 436 187.667 386 239 C336.667 292.333 312 361 312 445 C312 541 340.667 620.667 398 684 C456 748 528.667 780 616 780 C700 780 768 753.667 820 701 C872 649 898 580.333 898 495 L898 495 Z M789 1267 C789 1301 777 1330 753 1354 C730.333 1378.67 702.333 1391 669 1391 C636.333 1391 608.333 1379.33 585 1356 C561.667 1332.67 550 1304.67 550 1272 C550 1240 561.667 1211.33 585 1186 C609 1162 637.333 1150 670 1150 C703.333 1150 731.333 1161.33 754 1184 C777.333 1207.33 789 1235 789 1267 L789 1267 Z " />
<glyph glyph-name="Gcedilla" unicode="&#x122;" horiz-adv-x="1644" d="M954 718 L929 520 L1312 520 C1290 416 1240.67 334 1164 274 C1086.67 214 993.333 184 884 184 C729.333 184 603.667 236.333 507 341 C410.333 445.667 362 580.667 362 746 C362 926 413.667 1073.67 517 1189 C619.667 1303 753.333 1360 918 1360 C1117.33 1360 1280 1277.33 1406 1112 L1555 1264 C1387.67 1471.33 1176.67 1575 922 1575 C714 1575 539.667 1510.67 399 1382 C315 1306 249.667 1211.33 203 1098 C155.667 982 132 863 132 741 C132 516.333 201.333 331.667 340 187 C478.667 42.3333 655.333 -30 870 -30 C1124.67 -30 1316.67 75.6667 1446 287 C1514.67 399 1556.67 542.667 1572 718 L954 718 Z M950 -112 L725 -112 L695 -362 L776 -362 L775 -408 L696 -559 L814 -612 L908 -461 L950 -112 Z " />
<glyph glyph-name="gcedilla" unicode="&#x123;" horiz-adv-x="1256" d="M1152 942 L931 942 L917 825 C866.333 877.667 817.333 914 770 934 C726.667 954.667 670 965 600 965 C454 965 332.333 915.333 235 816 C138.333 717.333 90 593 90 443 C90 309.667 131.667 198.333 215 109 C298.333 21.6667 404 -22 532 -22 C634.667 -22 732.667 13.6667 826 85 L810 -44 C797.333 -149.333 767.333 -226.167 720 -274.5 C672.667 -322.833 603.667 -347 513 -347 C429 -347 367 -326.833 327 -286.5 C287 -246.167 264.333 -181.667 259 -93 L45 -93 C45 -175 54.3333 -238.667 73 -284 C91.6667 -333.333 124.333 -377.333 171 -416 C262.333 -493.333 381.667 -532 529 -532 C671.667 -532 787.667 -492 877 -412 C923 -370 957.667 -319.667 981 -261 C992.333 -232.333 1002.5 -197 1011.5 -155 C1020.5 -113 1028.67 -63.6667 1036 -7 L1152 942 Z M898 495 C898 399 868.333 319.333 809 256 C750.333 193.333 675.333 162 584 162 C502 162 436 187.667 386 239 C336.667 292.333 312 361 312 445 C312 541 340.667 620.667 398 684 C456 748 528.667 780 616 780 C700 780 768 753.667 820 701 C872 649 898 580.333 898 495 L898 495 Z M574 1084 L799 1084 L829 1334 L748 1334 L749 1380 L828 1531 L710 1584 L616 1433 L574 1084 Z " />
<glyph glyph-name="Hcircumflex" unicode="&#x124;" horiz-adv-x="1466" d="M1405 1544 L1176 1544 L1102 939 L464 939 L538 1544 L310 1544 L120 0 L349 0 L441 754 L1079 754 L986 0 L1215 0 L1405 1544 Z M909 1873 L1066 1686 L1166 1783 L930 2079 L598 1783 L691 1683 L909 1873 Z " />
<glyph glyph-name="hcircumflex" unicode="&#x125;" horiz-adv-x="1131" d="M519 1689 L298 1689 L90 0 L311 0 L372 493 C395.333 684.333 477.667 780 619 780 C717.667 780 767 738 767 654 C767 629.333 765 601.667 761 571 L691 0 L912 0 L981 559 C984.333 589 987 615.833 989 639.5 C991 663.167 992 684.333 992 703 C992 781 963.667 844 907 892 C852.333 940.667 779 965 687 965 C595.667 965 505.667 930.667 417 862 L519 1689 Z M444 1880 L601 1693 L701 1790 L465 2086 L133 1790 L226 1690 L444 1880 Z " />
<glyph glyph-name="Hbar" unicode="&#x126;" horiz-adv-x="1759" d="M1481 1544 L1252 1544 L1178 939 L540 939 L614 1544 L386 1544 L196 0 L425 0 L517 754 L1155 754 L1062 0 L1291 0 L1481 1544 Z M-18 1358 L-18 1148 L1719 1148 L1719 1358 L-18 1358 Z " />
<glyph glyph-name="hbar" unicode="&#x127;" horiz-adv-x="1131" d="M519 1689 L298 1689 L90 0 L311 0 L372 493 C395.333 684.333 477.667 780 619 780 C717.667 780 767 738 767 654 C767 629.333 765 601.667 761 571 L691 0 L912 0 L981 559 C984.333 589 987 615.833 989 639.5 C991 663.167 992 684.333 992 703 C992 781 963.667 844 907 892 C852.333 940.667 779 965 687 965 C595.667 965 505.667 930.667 417 862 L519 1689 Z M749.048 1477 L99.0723 1477 L69.0508 1302 L716.024 1302 L749.048 1477 Z " />
<glyph glyph-name="Itilde" unicode="&#x128;" horiz-adv-x="827" d="M829 1880 L712 1958 C680.667 1890.67 648 1857 614 1857 C597.333 1857 563.667 1871.33 513 1900 C447.667 1936 400.667 1954 372 1954 C304 1954 234 1895.67 162 1779 L276 1699 L286 1714 C288.667 1718 290.667 1720.67 292 1722 L309 1751 C325.667 1781 346.667 1796 372 1796 C384.667 1796 395.667 1793.33 405 1788 L448 1762 C450.667 1760 466.667 1752 496 1738 L547 1714 C567.667 1703.33 590 1698 614 1698 C695.333 1698 767 1758.67 829 1880 L829 1880 Z M539 1544 L310 1544 L120 0 L349 0 L539 1544 Z " />
<glyph glyph-name="itilde" unicode="&#x129;" horiz-adv-x="716" d="M718 1345 L601 1423 C569.667 1355.67 537 1322 503 1322 C486.333 1322 452.667 1336.33 402 1365 C336.667 1401 289.667 1419 261 1419 C193 1419 123 1360.67 51 1244 L165 1164 L175 1179 C177.667 1183 179.667 1185.67 181 1187 L198 1216 C214.667 1246 235.667 1261 261 1261 C273.667 1261 284.667 1258.33 294 1253 L337 1227 C339.667 1225 355.667 1217 385 1203 L436 1179 C456.667 1168.33 479 1163 503 1163 C584.333 1163 656 1223.67 718 1345 L718 1345 Z M426 942 L205 942 L89 0 L310 0 L426 942 Z " />
<glyph glyph-name="Imacron" unicode="&#x12a;" horiz-adv-x="600" d="M539 1544 L310 1544 L120 0 L349 0 L539 1544 Z M195 1873 L176 1713 L723 1713 L743 1873 L195 1873 Z " />
<glyph glyph-name="imacron" unicode="&#x12b;" horiz-adv-x="529" d="M426 942 L205 942 L89 0 L310 0 L426 942 Z M81 1341 L62 1181 L610 1181 L630 1341 L81 1341 Z " />
<glyph glyph-name="Ibreve" unicode="&#x12c;" horiz-adv-x="758" d="M203 1973 L203 1936 C203 1858.67 228 1793.67 278 1741 C328.667 1689 391.333 1663 466 1663 C540.667 1663 605.833 1689 661.5 1741 C717.167 1793 761 1870.33 793 1973 L637 1973 C599 1866.33 544.667 1813 474 1813 C440 1813 412.167 1824.83 390.5 1848.5 C368.833 1872.17 358 1902 358 1938 L358 1973 L203 1973 Z M539 1544 L310 1544 L120 0 L349 0 L539 1544 Z " />
<glyph glyph-name="ibreve" unicode="&#x12d;" horiz-adv-x="681" d="M71 1431 L71 1394 C71 1316.67 96 1251.67 146 1199 C196.667 1147 259.333 1121 334 1121 C408.667 1121 473.833 1147 529.5 1199 C585.167 1251 629 1328.33 661 1431 L505 1431 C467 1324.33 412.667 1271 342 1271 C308 1271 280.167 1282.83 258.5 1306.5 C236.833 1330.17 226 1360 226 1396 L226 1431 L71 1431 Z M426 942 L205 942 L89 0 L310 0 L426 942 Z " />
<glyph glyph-name="Iogonek" unicode="&#x12e;" horiz-adv-x="600" d="M539 1544 L310 1544 L120 0 L349 0 L539 1544 Z M121 0 C-36.3333 -81.3333 -115 -173 -115 -275 C-115 -337 -92.6667 -388.333 -48 -429 C-4 -471 51.6667 -492 119 -492 C177.667 -492 234.667 -477 290 -447 L332 -286 C276 -301.333 235 -309 209 -309 C176.333 -309 149.333 -300.667 128 -284 C106.667 -267.333 96 -245.667 96 -219 C96 -156.333 169 -83.3333 315 0 L121 0 Z " />
<glyph glyph-name="iogonek" unicode="&#x12f;" horiz-adv-x="529" d="M495 1390 C495 1423.33 482.667 1452 458 1476 C434 1500.67 405.667 1513 373 1513 C341 1513 313.333 1501.33 290 1478 C267.333 1455.33 256 1427.67 256 1395 C256 1362.33 267.667 1333.33 291 1308 C315 1284 343.333 1272 376 1272 C408.667 1272 436.667 1283.67 460 1307 C483.333 1330.33 495 1358 495 1390 L495 1390 Z M426 942 L205 942 L89 0 L310 0 L426 942 Z M93 0 C-64.3333 -81.3333 -143 -173 -143 -275 C-143 -337 -120.667 -388.333 -76 -429 C-32 -471 23.6667 -492 91 -492 C149.667 -492 206.667 -477 262 -447 L304 -286 C248 -301.333 207 -309 181 -309 C148.333 -309 121.333 -300.667 100 -284 C78.6667 -267.333 68 -245.667 68 -219 C68 -156.333 141 -83.3333 287 0 L93 0 Z " />
<glyph glyph-name="Idotaccent" unicode="&#x130;" horiz-adv-x="600" d="M539 1544 L310 1544 L120 0 L349 0 L539 1544 Z M586 1851 C586 1869.67 583 1887.17 577 1903.5 C571 1919.83 562.5 1933.83 551.5 1945.5 C540.5 1957.17 527.5 1966.33 512.5 1973 C497.5 1979.67 481 1983 463 1983 C425 1983 394 1971.33 370 1948 C346 1924.67 334 1894.67 334 1858 C334 1822 346.333 1791.67 371 1767 C395.667 1742.33 426.333 1730 463 1730 C495.667 1730 524.667 1741.67 550 1765 C574 1789 586 1817.67 586 1851 L586 1851 Z " />
<glyph glyph-name="dotlessi" unicode="&#x131;" horiz-adv-x="529" d="M426 942 L205 942 L89 0 L310 0 L426 942 Z " />
<glyph glyph-name="IJ" unicode="&#x132;" horiz-adv-x="1376" d="M539 1544 L310 1544 L120 0 L349 0 L539 1544 Z M1306 1564 L1078 1564 L961 615 C941 451 917.667 342 891 288 C865 231.333 824.667 203 770 203 C710.667 203 646.333 237.667 577 307 L460 139 C554 39.6667 660.333 -10 779 -10 C878.333 -10 959.667 17 1023 71 C1044.33 89.6667 1062.83 110.5 1078.5 133.5 C1094.17 156.5 1107.33 182 1118 210 C1129.33 238.667 1139.17 273.333 1147.5 314 C1155.83 354.667 1163.33 401.333 1170 454 L1306 1564 Z " />
<glyph glyph-name="ij" unicode="&#x133;" horiz-adv-x="1036" d="M495 1390 C495 1423.33 482.667 1452 458 1476 C434 1500.67 405.667 1513 373 1513 C341 1513 313.333 1501.33 290 1478 C267.333 1455.33 256 1427.67 256 1395 C256 1362.33 267.667 1333.33 291 1308 C315 1284 343.333 1272 376 1272 C408.667 1272 436.667 1283.67 460 1307 C483.333 1330.33 495 1358 495 1390 L495 1390 Z M426 942 L205 942 L89 0 L310 0 L426 942 Z M1027 1389 C1027 1423 1014.67 1452 990 1476 C966 1500.67 937.333 1513 904 1513 C872 1513 844.333 1501.33 821 1478 C797.667 1454.67 786 1427 786 1395 C786 1361.67 798 1332.67 822 1308 C846 1284 874.333 1272 907 1272 C940.333 1272 968.667 1283.67 992 1307 C1015.33 1330.33 1027 1357.67 1027 1389 L1027 1389 Z M961 942 L740 942 L558 -539 L779 -539 L961 942 Z " />
<glyph glyph-name="Jcircumflex" unicode="&#x134;" horiz-adv-x="873" d="M812 1544 L584 1544 L467 595 C447 431 423.667 322 397 268 C371 211.333 330.667 183 276 183 C216.667 183 152.333 217.667 83 287 L-34 119 C60 19.6667 166.333 -30 285 -30 C384.333 -30 465.667 -3 529 51 C550.333 69.6667 568.833 90.5 584.5 113.5 C600.167 136.5 613.333 162 624 190 C635.333 218.667 645.167 253.333 653.5 294 C661.833 334.667 669.333 381.333 676 434 L812 1544 Z M756 1859 L913 1672 L1013 1769 L777 2065 L445 1769 L538 1669 L756 1859 Z " />
<glyph glyph-name="jcircumflex" unicode="&#x135;" horiz-adv-x="626" d="M368 1269 L525 1082 L625 1179 L389 1475 L57 1179 L150 1079 L368 1269 Z M426 942 L205 942 L23 -539 L244 -539 L426 942 Z " />
<glyph glyph-name="Kcedilla" unicode="&#x136;" horiz-adv-x="1380" d="M538 1544 L310 1544 L120 0 L349 0 L441 753 L1023 0 L1299 0 L651 826 L1371 1544 L1082 1544 L458 888 L538 1544 Z M710 -112 L485 -112 L455 -362 L536 -362 L535 -408 L456 -559 L574 -612 L668 -461 L710 -112 Z " />
<glyph glyph-name="kcedilla" unicode="&#x137;" horiz-adv-x="1056" d="M519 1689 L298 1689 L90 0 L311 0 L366 448 L709 0 L976 0 L579 512 L1073 942 L778 942 L382 576 L519 1689 Z M600 -112 L375 -112 L345 -362 L426 -362 L425 -408 L346 -559 L464 -612 L558 -461 L600 -112 Z " />
<glyph glyph-name="kgreenlandic" unicode="&#x138;" horiz-adv-x="1056" d="M465 945 L244 945 L90 0 L311 0 L366 448 L709 0 L976 0 L579 512 L1073 942 L778 942 L382 576 L465 945 Z " />
<glyph glyph-name="Lacute" unicode="&#x139;" horiz-adv-x="882" d="M538 1544 L310 1544 L120 0 L786 0 L812 213 L375 213 L538 1544 Z M861 1966 L687 2077 L413 1762 L533 1689 L861 1966 Z " />
<glyph glyph-name="lacute" unicode="&#x13a;" horiz-adv-x="530" d="M518 1689 L298 1689 L90 0 L311 0 L518 1689 Z M755 2057 L581 2168 L307 1853 L427 1780 L755 2057 Z " />
<glyph glyph-name="Lcedilla" unicode="&#x13b;" horiz-adv-x="882" d="M538 1544 L310 1544 L120 0 L786 0 L812 213 L375 213 L538 1544 Z M592 -112 L367 -112 L337 -362 L418 -362 L417 -408 L338 -559 L456 -612 L550 -461 L592 -112 Z " />
<glyph glyph-name="lcedilla" unicode="&#x13c;" horiz-adv-x="530" d="M518 1689 L298 1689 L90 0 L311 0 L518 1689 Z M309 -112 L84 -112 L54 -362 L135 -362 L134 -408 L55 -559 L173 -612 L267 -461 L309 -112 Z " />
<glyph glyph-name="Lcaron" unicode="&#x13d;" horiz-adv-x="882" d="M538 1544 L310 1544 L120 0 L786 0 L812 213 L375 213 L538 1544 Z M925 1541 L700 1541 L670 1291 L751 1291 L750 1245 L671 1094 L789 1041 L883 1192 L925 1541 Z " />
<glyph glyph-name="lcaron" unicode="&#x13e;" horiz-adv-x="851" d="M518 1689 L298 1689 L90 0 L311 0 L518 1689 Z M812 1541 L587 1541 L557 1291 L638 1291 L637 1245 L558 1094 L676 1041 L770 1192 L812 1541 Z " />
<glyph glyph-name="Ldotaccent" unicode="&#x13f;" horiz-adv-x="1043" d="M538 1544 L310 1544 L120 0 L786 0 L812 213 L375 213 L538 1544 Z M1019 1267 C1019 1301 1007 1330 983 1354 C960.333 1378.67 932.333 1391 899 1391 C866.333 1391 838.333 1379.33 815 1356 C791.667 1332.67 780 1304.67 780 1272 C780 1240 791.667 1211.33 815 1186 C839 1162 867.333 1150 900 1150 C933.333 1150 961.333 1161.33 984 1184 C1007.33 1207.33 1019 1235 1019 1267 L1019 1267 Z " />
<glyph glyph-name="ldotaccent" unicode="&#x140;" horiz-adv-x="911" d="M518 1689 L298 1689 L90 0 L311 0 L518 1689 Z M894 1267 C894 1301 882 1330 858 1354 C835.333 1378.67 807.333 1391 774 1391 C741.333 1391 713.333 1379.33 690 1356 C666.667 1332.67 655 1304.67 655 1272 C655 1240 666.667 1211.33 690 1186 C714 1162 742.333 1150 775 1150 C808.333 1150 836.333 1161.33 859 1184 C882.333 1207.33 894 1235 894 1267 L894 1267 Z " />
<glyph glyph-name="Lslash" unicode="&#x141;" horiz-adv-x="883" d="M752 1093 L461 914 L539 1544 L310 1544 L221 821 L70 725 L43 504 L194 600 L120 0 L787 0 L813 213 L375 213 L434 694 L725 873 L752 1093 Z " />
<glyph glyph-name="lslash" unicode="&#x142;" horiz-adv-x="530" d="M592 1103 L434 1003 L518 1689 L297 1689 L201 907 L43 804 L15 576 L173 678 L89 0 L310 0 L406 775 L564 874 L592 1103 Z " />
<glyph glyph-name="Nacute" unicode="&#x143;" horiz-adv-x="1684" d="M1622 1544 L1394 1544 L1258 434 L321 1628 L120 0 L349 0 L483 1090 L1420 -106 L1622 1544 Z M1306 1966 L1132 2077 L858 1762 L978 1689 L1306 1966 Z " />
<glyph glyph-name="nacute" unicode="&#x144;" horiz-adv-x="1127" d="M426 942 L206 942 L90 0 L311 0 L367 454 C371.667 492 377 525.5 383 554.5 C389 583.5 396.333 608 405 628 C421 667.333 445.667 700.667 479 728 C519.667 762.667 568.333 780 625 780 C717 780 763 737.333 763 652 C763 639.333 762.5 625 761.5 609 C760.5 593 758.667 574.667 756 554 L688 0 L908 0 L971 506 C979 572.667 983 630 983 678 C983 766.667 956 836.667 902 888 C846.667 939.333 773 965 681 965 C591.667 965 503.333 928.333 416 855 L426 942 Z M986 1383 L821 1488 L553 1157 L666 1092 L986 1383 Z " />
<glyph glyph-name="Ncedilla" unicode="&#x145;" horiz-adv-x="1684" d="M1622 1544 L1394 1544 L1258 434 L321 1628 L120 0 L349 0 L483 1090 L1420 -106 L1622 1544 Z M913 -112 L688 -112 L658 -362 L739 -362 L738 -408 L659 -559 L777 -612 L871 -461 L913 -112 Z " />
<glyph glyph-name="ncedilla" unicode="&#x146;" horiz-adv-x="1127" d="M426 942 L206 942 L90 0 L311 0 L367 454 C371.667 492 377 525.5 383 554.5 C389 583.5 396.333 608 405 628 C421 667.333 445.667 700.667 479 728 C519.667 762.667 568.333 780 625 780 C717 780 763 737.333 763 652 C763 639.333 762.5 625 761.5 609 C760.5 593 758.667 574.667 756 554 L688 0 L908 0 L971 506 C979 572.667 983 630 983 678 C983 766.667 956 836.667 902 888 C846.667 939.333 773 965 681 965 C591.667 965 503.333 928.333 416 855 L426 942 Z M607 -112 L382 -112 L352 -362 L433 -362 L432 -408 L353 -559 L471 -612 L565 -461 L607 -112 Z " />
<glyph glyph-name="Ncaron" unicode="&#x147;" horiz-adv-x="1684" d="M1622 1544 L1394 1544 L1258 434 L321 1628 L120 0 L349 0 L483 1090 L1420 -106 L1622 1544 Z M997 1895 L841 2067 L718 1964 L976 1684 L1338 1963 L1239 2070 L997 1895 Z " />
<glyph glyph-name="ncaron" unicode="&#x148;" horiz-adv-x="1127" d="M426 942 L206 942 L90 0 L311 0 L367 454 C371.667 492 377 525.5 383 554.5 C389 583.5 396.333 608 405 628 C421 667.333 445.667 700.667 479 728 C519.667 762.667 568.333 780 625 780 C717 780 763 737.333 763 652 C763 639.333 762.5 625 761.5 609 C760.5 593 758.667 574.667 756 554 L688 0 L908 0 L971 506 C979 572.667 983 630 983 678 C983 766.667 956 836.667 902 888 C846.667 939.333 773 965 681 965 C591.667 965 503.333 928.333 416 855 L426 942 Z M653 1297 L497 1485 L396 1388 L632 1092 L964 1387 L871 1488 L653 1297 Z " />
<glyph glyph-name="quoterightn" unicode="&#x149;" horiz-adv-x="1494" d="M767 942 L547 942 L431 0 L652 0 L708 454 C712.667 492 718 525.5 724 554.5 C730 583.5 737.333 608 746 628 C762 667.333 786.667 700.667 820 728 C860.667 762.667 909.333 780 966 780 C1058 780 1104 737.333 1104 652 C1104 639.333 1103.5 625 1102.5 609 C1101.5 593 1099.67 574.667 1097 554 L1029 0 L1249 0 L1312 506 C1320 572.667 1324 630 1324 678 C1324 766.667 1297 836.667 1243 888 C1187.67 939.333 1114 965 1022 965 C932.667 965 844.333 928.333 757 855 L767 942 Z M624 1490 L470 1575 L185 1026 L308 959 L624 1490 Z " />
<glyph glyph-name="Omacron" unicode="&#x14c;" horiz-adv-x="1816" d="M1746 802 C1746 1034 1673.33 1220.67 1528 1362 C1382.67 1504 1191.67 1575 955 1575 C718.333 1575 522.333 1498.33 367 1345 C212.333 1192.33 135 999 135 765 C135 530.333 208 339 354 191 C500 43.6667 688.667 -30 920 -30 C1064.67 -30 1196.67 0.666672 1316 62 C1435.33 123.333 1532 210.333 1606 323 C1699.33 466.333 1746 626 1746 802 L1746 802 Z M1516 804 C1516 625.333 1459.67 477.667 1347 361 C1235 243 1094.67 184 926 184 C764 184 630 238.667 524 348 C418 458 365 597 365 765 C365 935 422 1076.67 536 1190 C651.333 1303.33 793.667 1360 963 1360 C1131.67 1360 1266 1309.67 1366 1209 C1466 1107.67 1516 972.667 1516 804 L1516 804 Z M785 1933 L766 1773 L1407 1773 L1427 1933 L785 1933 Z " />
<glyph glyph-name="omacron" unicode="&#x14d;" horiz-adv-x="1232" d="M1130 480 C1130 626 1082.67 744.333 988 835 C894 927 772.333 973 623 973 C471 973 344.333 924.333 243 827 C142.333 730.333 92 609 92 463 C92 320.333 140.667 202.333 238 109 C334.667 16.3333 459.333 -30 612 -30 C758 -30 880.667 19 980 117 C1080 215 1130 336 1130 480 L1130 480 Z M907 491 C907 392.333 878.667 311.667 822 249 C766 185.667 694.667 154 608 154 C521.333 154 450.667 183 396 241 C341.333 297.667 314 372.667 314 466 C314 558.667 343 635.667 401 697 C459 757.667 532.333 788 621 788 C706.333 788 775.333 760.667 828 706 C880.667 653.333 907 581.667 907 491 L907 491 Z M371 1341 L352 1181 L993 1181 L1013 1341 L371 1341 Z " />
<glyph glyph-name="Obreve" unicode="&#x14e;" horiz-adv-x="1816" d="M1746 802 C1746 1034 1673.33 1220.67 1528 1362 C1382.67 1504 1191.67 1575 955 1575 C718.333 1575 522.333 1498.33 367 1345 C212.333 1192.33 135 999 135 765 C135 530.333 208 339 354 191 C500 43.6667 688.667 -30 920 -30 C1064.67 -30 1196.67 0.666672 1316 62 C1435.33 123.333 1532 210.333 1606 323 C1699.33 466.333 1746 626 1746 802 L1746 802 Z M1516 804 C1516 625.333 1459.67 477.667 1347 361 C1235 243 1094.67 184 926 184 C764 184 630 238.667 524 348 C418 458 365 597 365 765 C365 935 422 1076.67 536 1190 C651.333 1303.33 793.667 1360 963 1360 C1131.67 1360 1266 1309.67 1366 1209 C1466 1107.67 1516 972.667 1516 804 L1516 804 Z M752 1987 L752 1950 C752 1872.67 777 1807.67 827 1755 C877.667 1703 940.333 1677 1015 1677 C1089.67 1677 1154.83 1703 1210.5 1755 C1266.17 1807 1310 1884.33 1342 1987 L1186 1987 C1148 1880.33 1093.67 1827 1023 1827 C989 1827 961.167 1838.83 939.5 1862.5 C917.833 1886.17 907 1916 907 1952 L907 1987 L752 1987 Z " />
<glyph glyph-name="obreve" unicode="&#x14f;" horiz-adv-x="1232" d="M1130 480 C1130 626 1082.67 744.333 988 835 C894 927 772.333 973 623 973 C471 973 344.333 924.333 243 827 C142.333 730.333 92 609 92 463 C92 320.333 140.667 202.333 238 109 C334.667 16.3333 459.333 -30 612 -30 C758 -30 880.667 19 980 117 C1080 215 1130 336 1130 480 L1130 480 Z M907 491 C907 392.333 878.667 311.667 822 249 C766 185.667 694.667 154 608 154 C521.333 154 450.667 183 396 241 C341.333 297.667 314 372.667 314 466 C314 558.667 343 635.667 401 697 C459 757.667 532.333 788 621 788 C706.333 788 775.333 760.667 828 706 C880.667 653.333 907 581.667 907 491 L907 491 Z M383 1431 L383 1394 C383 1316.67 408 1251.67 458 1199 C508.667 1147 571.333 1121 646 1121 C720.667 1121 785.833 1147 841.5 1199 C897.167 1251 941 1328.33 973 1431 L817 1431 C779 1324.33 724.667 1271 654 1271 C620 1271 592.167 1282.83 570.5 1306.5 C548.833 1330.17 538 1360 538 1396 L538 1431 L383 1431 Z " />
<glyph glyph-name="Ohungarumlaut" unicode="&#x150;" horiz-adv-x="1816" d="M1746 802 C1746 1034 1673.33 1220.67 1528 1362 C1382.67 1504 1191.67 1575 955 1575 C718.333 1575 522.333 1498.33 367 1345 C212.333 1192.33 135 999 135 765 C135 530.333 208 339 354 191 C500 43.6667 688.667 -30 920 -30 C1064.67 -30 1196.67 0.666672 1316 62 C1435.33 123.333 1532 210.333 1606 323 C1699.33 466.333 1746 626 1746 802 L1746 802 Z M1516 804 C1516 625.333 1459.67 477.667 1347 361 C1235 243 1094.67 184 926 184 C764 184 630 238.667 524 348 C418 458 365 597 365 765 C365 935 422 1076.67 536 1190 C651.333 1303.33 793.667 1360 963 1360 C1131.67 1360 1266 1309.67 1366 1209 C1466 1107.67 1516 972.667 1516 804 L1516 804 Z M1094 1966 L920 2077 L646 1762 L766 1689 L1094 1966 Z M1444 1966 L1270 2077 L996 1762 L1116 1689 L1444 1966 Z " />
<glyph glyph-name="ohungarumlaut" unicode="&#x151;" horiz-adv-x="1232" d="M1130 480 C1130 626 1082.67 744.333 988 835 C894 927 772.333 973 623 973 C471 973 344.333 924.333 243 827 C142.333 730.333 92 609 92 463 C92 320.333 140.667 202.333 238 109 C334.667 16.3333 459.333 -30 612 -30 C758 -30 880.667 19 980 117 C1080 215 1130 336 1130 480 L1130 480 Z M907 491 C907 392.333 878.667 311.667 822 249 C766 185.667 694.667 154 608 154 C521.333 154 450.667 183 396 241 C341.333 297.667 314 372.667 314 466 C314 558.667 343 635.667 401 697 C459 757.667 532.333 788 621 788 C706.333 788 775.333 760.667 828 706 C880.667 653.333 907 581.667 907 491 L907 491 Z M759 1383 L612 1488 L375 1160 L473 1092 L759 1383 Z M1109 1383 L962 1488 L725 1160 L823 1092 L1109 1383 Z " />
<glyph glyph-name="OE" unicode="&#x152;" horiz-adv-x="2433" d="M2440 1544 L1619 1544 L1583 1252 C1497 1364.67 1405 1446.67 1307 1498 C1207.67 1549.33 1092.67 1575 962 1575 C723.333 1575 525.333 1496.33 368 1339 C210.667 1181.67 132 984 132 746 C132 522 205.333 336.667 352 190 C498.667 43.3333 683.667 -30 907 -30 C1019 -30 1116.67 -12 1200 24 C1284.67 61.3333 1369.67 122.667 1455 208 L1429 0 L2260 0 L2286 213 L1684 213 L1747 729 L2349 729 L2374 926 L1771 926 L1821 1331 L2415 1331 L2440 1544 Z M1525 788 C1525 615.333 1468.33 471.333 1355 356 C1242.33 241.333 1100.67 184 930 184 C764.667 184 628.667 236.333 522 341 C415.333 445.667 362 579.667 362 743 C362 917.667 418 1064 530 1182 C642.667 1300.67 782.333 1360 949 1360 C1119.67 1360 1258.67 1307.33 1366 1202 C1472 1096.67 1525 958.667 1525 788 L1525 788 Z " />
<glyph glyph-name="oe" unicode="&#x153;" horiz-adv-x="2007" d="M1153 398 L1903 398 L1904 480 C1904 634 1862.67 754.333 1780 841 C1696.67 929 1583 973 1439 973 C1279 973 1147.67 910 1045 784 C935.667 910 797.333 973 630 973 C472.667 973 343.667 925.667 243 831 C142.333 736.333 92 615.667 92 469 C92 323 141.667 203.333 241 110 C340.333 16.6667 467.333 -30 622 -30 C710 -30 785.333 -16.3333 848 11 C906.667 39 965.667 87.6667 1025 157 C1123.67 32.3333 1257.33 -30 1426 -30 C1594 -30 1730.67 42 1836 186 L1670 290 C1617.33 199.333 1535 154 1423 154 C1342.33 154 1279 174.5 1233 215.5 C1187 256.5 1160.33 317.333 1153 398 L1153 398 Z M931 477 C931 383 901.667 305.667 843 245 C784.333 184.333 709.667 154 619 154 C530.333 154 457.333 182.667 400 240 C342.667 299.333 314 373 314 461 C314 555.667 343.667 633.667 403 695 C461.667 757 536.667 788 628 788 C720 788 793.333 759.667 848 703 C903.333 645.667 931 570.333 931 477 L931 477 Z M1156 561 C1191.33 712.333 1285 788 1437 788 C1587 788 1666.67 712.333 1676 561 L1156 561 Z " />
<glyph glyph-name="Racute" unicode="&#x154;" horiz-adv-x="1220" d="M730 651 C989.333 714.333 1119 865.667 1119 1105 C1119 1235.67 1078.67 1342.33 998 1425 C955.333 1469.67 905.333 1500.33 848 1517 C790 1535 711.667 1544 613 1544 L310 1544 L120 0 L349 0 L427 635 L510 635 L876 0 L1118 0 L730 651 Z M512 1331 L608 1331 C704.667 1331 775.5 1313 820.5 1277 C865.5 1241 888 1184 888 1106 C888 1039.33 869.333 981.333 832 932 C804.667 896.667 770.667 871.667 730 857 C692 842.333 634.333 835 557 835 L452 835 L512 1331 Z M948 1966 L774 2077 L500 1762 L620 1689 L948 1966 Z " />
<glyph glyph-name="racute" unicode="&#x155;" horiz-adv-x="783" d="M427 942 L206 942 L90 0 L311 0 L369 470 C375 522 383.167 566.667 393.5 604 C403.833 641.333 416.833 671.833 432.5 695.5 C448.167 719.167 466.667 736.5 488 747.5 C509.333 758.5 534 764 562 764 C602.667 764 643.333 746.667 684 712 L825 894 C770.333 942.667 709.667 967 643 967 C567 967 491.667 931.667 417 861 L427 942 Z M827 1383 L662 1488 L394 1157 L507 1092 L827 1383 Z " />
<glyph glyph-name="Rcedilla" unicode="&#x156;" horiz-adv-x="1220" d="M730 651 C989.333 714.333 1119 865.667 1119 1105 C1119 1235.67 1078.67 1342.33 998 1425 C955.333 1469.67 905.333 1500.33 848 1517 C790 1535 711.667 1544 613 1544 L310 1544 L120 0 L349 0 L427 635 L510 635 L876 0 L1118 0 L730 651 Z M512 1331 L608 1331 C704.667 1331 775.5 1313 820.5 1277 C865.5 1241 888 1184 888 1106 C888 1039.33 869.333 981.333 832 932 C804.667 896.667 770.667 871.667 730 857 C692 842.333 634.333 835 557 835 L452 835 L512 1331 Z M686 -112 L461 -112 L431 -362 L512 -362 L511 -408 L432 -559 L550 -612 L644 -461 L686 -112 Z " />
<glyph glyph-name="rcedilla" unicode="&#x157;" horiz-adv-x="783" d="M427 942 L206 942 L90 0 L311 0 L369 470 C375 522 383.167 566.667 393.5 604 C403.833 641.333 416.833 671.833 432.5 695.5 C448.167 719.167 466.667 736.5 488 747.5 C509.333 758.5 534 764 562 764 C602.667 764 643.333 746.667 684 712 L825 894 C770.333 942.667 709.667 967 643 967 C567 967 491.667 931.667 417 861 L427 942 Z M564 -112 L339 -112 L309 -362 L390 -362 L389 -408 L310 -559 L428 -612 L522 -461 L564 -112 Z " />
<glyph glyph-name="Rcaron" unicode="&#x158;" horiz-adv-x="1220" d="M730 651 C989.333 714.333 1119 865.667 1119 1105 C1119 1235.67 1078.67 1342.33 998 1425 C955.333 1469.67 905.333 1500.33 848 1517 C790 1535 711.667 1544 613 1544 L310 1544 L120 0 L349 0 L427 635 L510 635 L876 0 L1118 0 L730 651 Z M512 1331 L608 1331 C704.667 1331 775.5 1313 820.5 1277 C865.5 1241 888 1184 888 1106 C888 1039.33 869.333 981.333 832 932 C804.667 896.667 770.667 871.667 730 857 C692 842.333 634.333 835 557 835 L452 835 L512 1331 Z M664 1895 L508 2067 L385 1964 L643 1684 L1005 1963 L906 2070 L664 1895 Z " />
<glyph glyph-name="rcaron" unicode="&#x159;" horiz-adv-x="783" d="M427 942 L206 942 L90 0 L311 0 L369 470 C375 522 383.167 566.667 393.5 604 C403.833 641.333 416.833 671.833 432.5 695.5 C448.167 719.167 466.667 736.5 488 747.5 C509.333 758.5 534 764 562 764 C602.667 764 643.333 746.667 684 712 L825 894 C770.333 942.667 709.667 967 643 967 C567 967 491.667 931.667 417 861 L427 942 Z M504 1297 L348 1485 L247 1388 L483 1092 L815 1387 L722 1488 L504 1297 Z " />
<glyph glyph-name="Sacute" unicode="&#x15a;" horiz-adv-x="1145" d="M1121 1347 C1055.67 1430.33 992 1489.33 930 1524 C869.333 1558.67 796 1576 710 1576 C578 1576 468.667 1534.67 382 1452 C295.333 1370 252 1266.67 252 1142 C252 1048.67 274 971 318 909 C364 847 445 781.667 561 713 C611.667 683 653.5 656 686.5 632 C719.5 608 744.333 586.333 761 567 C794.333 529.667 811 484 811 430 C811 351.333 788.167 290.667 742.5 248 C696.833 205.333 633.667 184 553 184 C480.333 184 421.333 199.667 376 231 C330.667 262.333 284.333 319.667 237 403 L63 285 C95 228.333 128.333 180.167 163 140.5 C197.667 100.833 235 68.6667 275 44 C354.333 -5.33333 451.333 -30 566 -30 C708 -30 822.333 11.3333 909 94 C997 176.667 1041 284.667 1041 418 C1041 520.667 1018.33 603.667 973 667 C928.333 729.667 839.667 799.667 707 877 C662.333 903.667 625.167 928 595.5 950 C565.833 972 543.333 991.667 528 1009 C497.333 1045.67 482 1089.33 482 1140 C482 1203.33 504.333 1256 549 1298 C593.667 1340 650 1361 718 1361 C812 1361 895.333 1307.67 968 1201 L1121 1347 Z M1058 1966 L884 2077 L610 1762 L730 1689 L1058 1966 Z " />
<glyph glyph-name="sacute" unicode="&#x15b;" horiz-adv-x="827" d="M767 838 C677 928 578.667 973 472 973 C375.333 973 295.667 945 233 889 C170.333 833 139 762.333 139 677 C139 620.333 152.667 572.333 180 533 C207.333 495.667 256.333 457.333 327 418 C367 396.667 398.667 378.333 422 363 C445.333 347.667 461.667 335.667 471 327 C490.333 309.667 500 287 500 259 C500 227 488.5 201 465.5 181 C442.5 161 412 151 374 151 C306.667 151 243.333 186.667 184 258 L39 157 C129.667 32.3333 244 -30 382 -30 C483.333 -30 565.667 -3.33333 629 50 C691 104 722 175.667 722 265 C722 327 706.667 377.333 676 416 C647.333 455.333 590.667 498.667 506 546 C446.667 578.667 407.667 604.667 389 624 C370.333 642.667 361 665.667 361 693 C361 721 372.167 744.5 394.5 763.5 C416.833 782.5 445 792 479 792 C529 792 583.333 765.667 642 713 L767 838 Z M772 1383 L607 1488 L339 1157 L452 1092 L772 1383 Z " />
<glyph glyph-name="Scircumflex" unicode="&#x15c;" horiz-adv-x="1145" d="M1121 1347 C1055.67 1430.33 992 1489.33 930 1524 C869.333 1558.67 796 1576 710 1576 C578 1576 468.667 1534.67 382 1452 C295.333 1370 252 1266.67 252 1142 C252 1048.67 274 971 318 909 C364 847 445 781.667 561 713 C611.667 683 653.5 656 686.5 632 C719.5 608 744.333 586.333 761 567 C794.333 529.667 811 484 811 430 C811 351.333 788.167 290.667 742.5 248 C696.833 205.333 633.667 184 553 184 C480.333 184 421.333 199.667 376 231 C330.667 262.333 284.333 319.667 237 403 L63 285 C95 228.333 128.333 180.167 163 140.5 C197.667 100.833 235 68.6667 275 44 C354.333 -5.33333 451.333 -30 566 -30 C708 -30 822.333 11.3333 909 94 C997 176.667 1041 284.667 1041 418 C1041 520.667 1018.33 603.667 973 667 C928.333 729.667 839.667 799.667 707 877 C662.333 903.667 625.167 928 595.5 950 C565.833 972 543.333 991.667 528 1009 C497.333 1045.67 482 1089.33 482 1140 C482 1203.33 504.333 1256 549 1298 C593.667 1340 650 1361 718 1361 C812 1361 895.333 1307.67 968 1201 L1121 1347 Z M742 1859 L899 1672 L999 1769 L763 2065 L431 1769 L524 1669 L742 1859 Z " />
<glyph glyph-name="scircumflex" unicode="&#x15d;" horiz-adv-x="827" d="M767 838 C677 928 578.667 973 472 973 C375.333 973 295.667 945 233 889 C170.333 833 139 762.333 139 677 C139 620.333 152.667 572.333 180 533 C207.333 495.667 256.333 457.333 327 418 C367 396.667 398.667 378.333 422 363 C445.333 347.667 461.667 335.667 471 327 C490.333 309.667 500 287 500 259 C500 227 488.5 201 465.5 181 C442.5 161 412 151 374 151 C306.667 151 243.333 186.667 184 258 L39 157 C129.667 32.3333 244 -30 382 -30 C483.333 -30 565.667 -3.33333 629 50 C691 104 722 175.667 722 265 C722 327 706.667 377.333 676 416 C647.333 455.333 590.667 498.667 506 546 C446.667 578.667 407.667 604.667 389 624 C370.333 642.667 361 665.667 361 693 C361 721 372.167 744.5 394.5 763.5 C416.833 782.5 445 792 479 792 C529 792 583.333 765.667 642 713 L767 838 Z M548 1276 L705 1089 L805 1186 L569 1482 L237 1186 L330 1086 L548 1276 Z " />
<glyph glyph-name="Scedilla" unicode="&#x15e;" horiz-adv-x="1145" d="M1121 1347 C1055.67 1430.33 992 1489.33 930 1524 C869.333 1558.67 796 1576 710 1576 C578 1576 468.667 1534.67 382 1452 C295.333 1370 252 1266.67 252 1142 C252 1048.67 274 971 318 909 C364 847 445 781.667 561 713 C611.667 683 653.5 656 686.5 632 C719.5 608 744.333 586.333 761 567 C794.333 529.667 811 484 811 430 C811 351.333 788.167 290.667 742.5 248 C696.833 205.333 633.667 184 553 184 C480.333 184 421.333 199.667 376 231 C330.667 262.333 284.333 319.667 237 403 L63 285 C95 228.333 128.333 180.167 163 140.5 C197.667 100.833 235 68.6667 275 44 C354.333 -5.33333 451.333 -30 566 -30 C708 -30 822.333 11.3333 909 94 C997 176.667 1041 284.667 1041 418 C1041 520.667 1018.33 603.667 973 667 C928.333 729.667 839.667 799.667 707 877 C662.333 903.667 625.167 928 595.5 950 C565.833 972 543.333 991.667 528 1009 C497.333 1045.67 482 1089.33 482 1140 C482 1203.33 504.333 1256 549 1298 C593.667 1340 650 1361 718 1361 C812 1361 895.333 1307.67 968 1201 L1121 1347 Z M662 -209 L467 -107 L262 -421 L387 -492 L662 -209 Z " />
<glyph glyph-name="scedilla" unicode="&#x15f;" horiz-adv-x="827" d="M767 838 C677 928 578.667 973 472 973 C375.333 973 295.667 945 233 889 C170.333 833 139 762.333 139 677 C139 620.333 152.667 572.333 180 533 C207.333 495.667 256.333 457.333 327 418 C367 396.667 398.667 378.333 422 363 C445.333 347.667 461.667 335.667 471 327 C490.333 309.667 500 287 500 259 C500 227 488.5 201 465.5 181 C442.5 161 412 151 374 151 C306.667 151 243.333 186.667 184 258 L39 157 C129.667 32.3333 244 -30 382 -30 C483.333 -30 565.667 -3.33333 629 50 C691 104 722 175.667 722 265 C722 327 706.667 377.333 676 416 C647.333 455.333 590.667 498.667 506 546 C446.667 578.667 407.667 604.667 389 624 C370.333 642.667 361 665.667 361 693 C361 721 372.167 744.5 394.5 763.5 C416.833 782.5 445 792 479 792 C529 792 583.333 765.667 642 713 L767 838 Z M484 -205 L298 -107 L98 -413 L216 -480 L484 -205 Z " />
<glyph glyph-name="Scaron" unicode="&#x160;" horiz-adv-x="1145" d="M1121 1347 C1055.67 1430.33 992 1489.33 930 1524 C869.333 1558.67 796 1576 710 1576 C578 1576 468.667 1534.67 382 1452 C295.333 1370 252 1266.67 252 1142 C252 1048.67 274 971 318 909 C364 847 445 781.667 561 713 C611.667 683 653.5 656 686.5 632 C719.5 608 744.333 586.333 761 567 C794.333 529.667 811 484 811 430 C811 351.333 788.167 290.667 742.5 248 C696.833 205.333 633.667 184 553 184 C480.333 184 421.333 199.667 376 231 C330.667 262.333 284.333 319.667 237 403 L63 285 C95 228.333 128.333 180.167 163 140.5 C197.667 100.833 235 68.6667 275 44 C354.333 -5.33333 451.333 -30 566 -30 C708 -30 822.333 11.3333 909 94 C997 176.667 1041 284.667 1041 418 C1041 520.667 1018.33 603.667 973 667 C928.333 729.667 839.667 799.667 707 877 C662.333 903.667 625.167 928 595.5 950 C565.833 972 543.333 991.667 528 1009 C497.333 1045.67 482 1089.33 482 1140 C482 1203.33 504.333 1256 549 1298 C593.667 1340 650 1361 718 1361 C812 1361 895.333 1307.67 968 1201 L1121 1347 Z M756 1895 L600 2067 L477 1964 L735 1684 L1097 1963 L998 2070 L756 1895 Z " />
<glyph glyph-name="scaron" unicode="&#x161;" horiz-adv-x="827" d="M767 838 C677 928 578.667 973 472 973 C375.333 973 295.667 945 233 889 C170.333 833 139 762.333 139 677 C139 620.333 152.667 572.333 180 533 C207.333 495.667 256.333 457.333 327 418 C367 396.667 398.667 378.333 422 363 C445.333 347.667 461.667 335.667 471 327 C490.333 309.667 500 287 500 259 C500 227 488.5 201 465.5 181 C442.5 161 412 151 374 151 C306.667 151 243.333 186.667 184 258 L39 157 C129.667 32.3333 244 -30 382 -30 C483.333 -30 565.667 -3.33333 629 50 C691 104 722 175.667 722 265 C722 327 706.667 377.333 676 416 C647.333 455.333 590.667 498.667 506 546 C446.667 578.667 407.667 604.667 389 624 C370.333 642.667 361 665.667 361 693 C361 721 372.167 744.5 394.5 763.5 C416.833 782.5 445 792 479 792 C529 792 583.333 765.667 642 713 L767 838 Z M520 1297 L364 1485 L263 1388 L499 1092 L831 1387 L738 1488 L520 1297 Z " />
<glyph glyph-name="&amp;#x162;" unicode="&#x162;" horiz-adv-x="982" d="M712 1331 L1065 1331 L1091 1544 L140 1544 L114 1331 L483 1331 L319 0 L548 0 L712 1331 Z M533 -112 L308 -112 L278 -362 L359 -362 L358 -408 L279 -559 L397 -612 L491 -461 L533 -112 Z " />
<glyph glyph-name="&amp;#x21a;" unicode="&#x21a;" horiz-adv-x="982" d="M712 1331 L1065 1331 L1091 1544 L140 1544 L114 1331 L483 1331 L319 0 L548 0 L712 1331 Z M533 -112 L308 -112 L278 -362 L359 -362 L358 -408 L279 -559 L397 -612 L491 -461 L533 -112 Z " />
<glyph glyph-name="&amp;#x163;" unicode="&#x163;" horiz-adv-x="601" d="M417 737 L621 737 L646 942 L442 942 L496 1379 L275 1379 L221 942 L96 942 L71 737 L196 737 L105 0 L326 0 L417 737 Z M409 -112 L184 -112 L154 -362 L235 -362 L234 -408 L155 -559 L273 -612 L367 -461 L409 -112 Z " />
<glyph glyph-name="&amp;#x21b;" unicode="&#x21b;" horiz-adv-x="601" d="M417 737 L621 737 L646 942 L442 942 L496 1379 L275 1379 L221 942 L96 942 L71 737 L196 737 L105 0 L326 0 L417 737 Z M409 -112 L184 -112 L154 -362 L235 -362 L234 -408 L155 -559 L273 -612 L367 -461 L409 -112 Z " />
<glyph glyph-name="Tcaron" unicode="&#x164;" horiz-adv-x="982" d="M712 1331 L1065 1331 L1091 1544 L140 1544 L114 1331 L483 1331 L319 0 L548 0 L712 1331 Z M648 1895 L492 2067 L369 1964 L627 1684 L989 1963 L890 2070 L648 1895 Z " />
<glyph glyph-name="tcaron" unicode="&#x165;" horiz-adv-x="878" d="M417 737 L621 737 L646 942 L442 942 L496 1379 L275 1379 L221 942 L96 942 L71 737 L196 737 L105 0 L326 0 L417 737 Z M854 1541 L629 1541 L599 1291 L680 1291 L679 1245 L600 1094 L718 1041 L812 1192 L854 1541 Z " />
<glyph glyph-name="Tbar" unicode="&#x166;" horiz-adv-x="982" d="M712 1331 L1065 1331 L1091 1544 L140 1544 L114 1331 L483 1331 L319 0 L548 0 L712 1331 Z M785 949 L352 949 L332 774 L763 774 L785 949 Z " />
<glyph glyph-name="tbar" unicode="&#x167;" horiz-adv-x="601" d="M417 737 L621 737 L646 942 L442 942 L496 1379 L275 1379 L221 942 L96 942 L71 737 L196 737 L105 0 L326 0 L417 737 Z M501 568 L68 568 L48 393 L479 393 L501 568 Z " />
<glyph glyph-name="Utilde" unicode="&#x168;" horiz-adv-x="1524" d="M1463 1544 L1235 1544 L1127 662 C1105.67 492.667 1065 370.333 1005 295 C945 220.333 857 183 741 183 C641.667 183 563 212.667 505 272 C447.667 331.333 419 412.333 419 515 C419 534.333 419.833 555.333 421.5 578 C423.167 600.667 425.667 625.333 429 652 L538 1544 L310 1544 L204 681 C199.333 643 195.833 607 193.5 573 C191.167 539 190 506.667 190 476 C190 332 242.667 211.333 348 114 C454 18 586.333 -30 745 -30 C943 -30 1097.67 42.6667 1209 188 C1278.33 281.333 1325.67 428.667 1351 630 L1463 1544 Z M1279 1852 L1162 1930 C1130.67 1862.67 1098 1829 1064 1829 C1047.33 1829 1013.67 1843.33 963 1872 C897.667 1908 850.667 1926 822 1926 C754 1926 684 1867.67 612 1751 L726 1671 L736 1686 C738.667 1690 740.667 1692.67 742 1694 L759 1723 C775.667 1753 796.667 1768 822 1768 C834.667 1768 845.667 1765.33 855 1760 L898 1734 C900.667 1732 916.667 1724 946 1710 L997 1686 C1017.67 1675.33 1040 1670 1064 1670 C1145.33 1670 1217 1730.67 1279 1852 L1279 1852 Z " />
<glyph glyph-name="utilde" unicode="&#x169;" horiz-adv-x="1121" d="M1017 942 L797 942 L728 383 C718 301 698 243.667 668 211 C638 178.333 591.333 162 528 162 C411.333 162 353 211.667 353 311 C353 322.333 353.667 336.5 355 353.5 C356.333 370.5 358.333 390.333 361 413 L426 942 L205 942 L143 433 C139.667 406.333 137.167 382.667 135.5 362 C133.833 341.333 133 323.333 133 308 C133 207.333 167.667 127 237 67 C306.333 7.66667 399 -22 515 -22 C637 -22 735.333 7.33333 810 66 C854 100.667 885.333 140.333 904 185 C913.333 208.333 922 237.333 930 272 C938 306.667 944.667 347.333 950 394 L1017 942 Z M1008 1338 L891 1416 C859.667 1348.67 827 1315 793 1315 C776.333 1315 742.667 1329.33 692 1358 C626.667 1394 579.667 1412 551 1412 C483 1412 413 1353.67 341 1237 L455 1157 L465 1172 C467.667 1176 469.667 1178.67 471 1180 L488 1209 C504.667 1239 525.667 1254 551 1254 C563.667 1254 574.667 1251.33 584 1246 L627 1220 C629.667 1218 645.667 1210 675 1196 L726 1172 C746.667 1161.33 769 1156 793 1156 C874.333 1156 946 1216.67 1008 1338 L1008 1338 Z " />
<glyph glyph-name="Umacron" unicode="&#x16a;" horiz-adv-x="1524" d="M1463 1544 L1235 1544 L1127 662 C1105.67 492.667 1065 370.333 1005 295 C945 220.333 857 183 741 183 C641.667 183 563 212.667 505 272 C447.667 331.333 419 412.333 419 515 C419 534.333 419.833 555.333 421.5 578 C423.167 600.667 425.667 625.333 429 652 L538 1544 L310 1544 L204 681 C199.333 643 195.833 607 193.5 573 C191.167 539 190 506.667 190 476 C190 332 242.667 211.333 348 114 C454 18 586.333 -30 745 -30 C943 -30 1097.67 42.6667 1209 188 C1278.33 281.333 1325.67 428.667 1351 630 L1463 1544 Z M615 1873 L596 1713 L1237 1713 L1257 1873 L615 1873 Z " />
<glyph glyph-name="umacron" unicode="&#x16b;" horiz-adv-x="1121" d="M1017 942 L797 942 L728 383 C718 301 698 243.667 668 211 C638 178.333 591.333 162 528 162 C411.333 162 353 211.667 353 311 C353 322.333 353.667 336.5 355 353.5 C356.333 370.5 358.333 390.333 361 413 L426 942 L205 942 L143 433 C139.667 406.333 137.167 382.667 135.5 362 C133.833 341.333 133 323.333 133 308 C133 207.333 167.667 127 237 67 C306.333 7.66667 399 -22 515 -22 C637 -22 735.333 7.33333 810 66 C854 100.667 885.333 140.333 904 185 C913.333 208.333 922 237.333 930 272 C938 306.667 944.667 347.333 950 394 L1017 942 Z M332 1341 L313 1181 L954 1181 L974 1341 L332 1341 Z " />
<glyph glyph-name="Ubreve" unicode="&#x16c;" horiz-adv-x="1524" d="M1463 1544 L1235 1544 L1127 662 C1105.67 492.667 1065 370.333 1005 295 C945 220.333 857 183 741 183 C641.667 183 563 212.667 505 272 C447.667 331.333 419 412.333 419 515 C419 534.333 419.833 555.333 421.5 578 C423.167 600.667 425.667 625.333 429 652 L538 1544 L310 1544 L204 681 C199.333 643 195.833 607 193.5 573 C191.167 539 190 506.667 190 476 C190 332 242.667 211.333 348 114 C454 18 586.333 -30 745 -30 C943 -30 1097.67 42.6667 1209 188 C1278.33 281.333 1325.67 428.667 1351 630 L1463 1544 Z M647 1987 L647 1950 C647 1872.67 672 1807.67 722 1755 C772.667 1703 835.333 1677 910 1677 C984.667 1677 1049.83 1703 1105.5 1755 C1161.17 1807 1205 1884.33 1237 1987 L1081 1987 C1043 1880.33 988.667 1827 918 1827 C884 1827 856.167 1838.83 834.5 1862.5 C812.833 1886.17 802 1916 802 1952 L802 1987 L647 1987 Z " />
<glyph glyph-name="ubreve" unicode="&#x16d;" horiz-adv-x="1121" d="M1017 942 L797 942 L728 383 C718 301 698 243.667 668 211 C638 178.333 591.333 162 528 162 C411.333 162 353 211.667 353 311 C353 322.333 353.667 336.5 355 353.5 C356.333 370.5 358.333 390.333 361 413 L426 942 L205 942 L143 433 C139.667 406.333 137.167 382.667 135.5 362 C133.833 341.333 133 323.333 133 308 C133 207.333 167.667 127 237 67 C306.333 7.66667 399 -22 515 -22 C637 -22 735.333 7.33333 810 66 C854 100.667 885.333 140.333 904 185 C913.333 208.333 922 237.333 930 272 C938 306.667 944.667 347.333 950 394 L1017 942 Z M383 1431 L383 1394 C383 1316.67 408 1251.67 458 1199 C508.667 1147 571.333 1121 646 1121 C720.667 1121 785.833 1147 841.5 1199 C897.167 1251 941 1328.33 973 1431 L817 1431 C779 1324.33 724.667 1271 654 1271 C620 1271 592.167 1282.83 570.5 1306.5 C548.833 1330.17 538 1360 538 1396 L538 1431 L383 1431 Z " />
<glyph glyph-name="Uring" unicode="&#x16e;" horiz-adv-x="1524" d="M1463 1544 L1235 1544 L1127 662 C1105.67 492.667 1065 370.333 1005 295 C945 220.333 857 183 741 183 C641.667 183 563 212.667 505 272 C447.667 331.333 419 412.333 419 515 C419 534.333 419.833 555.333 421.5 578 C423.167 600.667 425.667 625.333 429 652 L538 1544 L310 1544 L204 681 C199.333 643 195.833 607 193.5 573 C191.167 539 190 506.667 190 476 C190 332 242.667 211.333 348 114 C454 18 586.333 -30 745 -30 C943 -30 1097.67 42.6667 1209 188 C1278.33 281.333 1325.67 428.667 1351 630 L1463 1544 Z M1160 1904 C1160 1965.33 1138.33 2017.67 1095 2061 C1051.67 2104.33 999.333 2126 938 2126 C877.333 2126 825.333 2104.33 782 2061 C739.333 2018.33 718 1966.67 718 1906 C718 1844.67 739.667 1792.33 783 1749 C826.333 1705.67 878.333 1684 939 1684 C999.667 1684 1051.67 1705.67 1095 1749 C1138.33 1792.33 1160 1844 1160 1904 L1160 1904 Z M1030 1905 C1030 1879 1021.17 1857.17 1003.5 1839.5 C985.833 1821.83 964.333 1813 939 1813 C926.333 1813 914.5 1815.5 903.5 1820.5 C892.5 1825.5 882.833 1832.17 874.5 1840.5 C866.167 1848.83 859.667 1858.67 855 1870 C850.333 1881.33 848 1893.33 848 1906 C848 1930.67 856.833 1951.83 874.5 1969.5 C892.167 1987.17 913.333 1996 938 1996 C964 1996 985.833 1987.17 1003.5 1969.5 C1021.17 1951.83 1030 1930.33 1030 1905 L1030 1905 Z " />
<glyph glyph-name="uring" unicode="&#x16f;" horiz-adv-x="1121" d="M1017 942 L797 942 L728 383 C718 301 698 243.667 668 211 C638 178.333 591.333 162 528 162 C411.333 162 353 211.667 353 311 C353 322.333 353.667 336.5 355 353.5 C356.333 370.5 358.333 390.333 361 413 L426 942 L205 942 L143 433 C139.667 406.333 137.167 382.667 135.5 362 C133.833 341.333 133 323.333 133 308 C133 207.333 167.667 127 237 67 C306.333 7.66667 399 -22 515 -22 C637 -22 735.333 7.33333 810 66 C854 100.667 885.333 140.333 904 185 C913.333 208.333 922 237.333 930 272 C938 306.667 944.667 347.333 950 394 L1017 942 Z M870 1286 C870 1347.33 848.333 1399.67 805 1443 C762.333 1485.67 710 1507 648 1507 C586.667 1507 534.667 1485.67 492 1443 C449.333 1400.33 428 1348.67 428 1288 C428 1228 449.667 1175.33 493 1130 C536.333 1086.67 588.333 1065 649 1065 C709.667 1065 761.667 1086.67 805 1130 C848.333 1175.33 870 1227.33 870 1286 L870 1286 Z M743 1286 C743 1273.33 740.5 1261.33 735.5 1250 C730.5 1238.67 723.833 1228.67 715.5 1220 C707.167 1211.33 697.167 1204.5 685.5 1199.5 C673.833 1194.5 661.667 1192 649 1192 C635.667 1192 623.333 1194.5 612 1199.5 C600.667 1204.5 590.667 1211.33 582 1220 C573.333 1228.67 566.5 1238.83 561.5 1250.5 C556.5 1262.17 554 1274.67 554 1288 C554 1300.67 556.5 1312.67 561.5 1324 C566.5 1335.33 573.167 1345.17 581.5 1353.5 C589.833 1361.83 599.667 1368.5 611 1373.5 C622.333 1378.5 634.667 1381 648 1381 C674.667 1381 697.167 1371.83 715.5 1353.5 C733.833 1335.17 743 1312.67 743 1286 L743 1286 Z " />
<glyph glyph-name="Uhungarumlaut" unicode="&#x170;" horiz-adv-x="1524" d="M1463 1544 L1235 1544 L1127 662 C1105.67 492.667 1065 370.333 1005 295 C945 220.333 857 183 741 183 C641.667 183 563 212.667 505 272 C447.667 331.333 419 412.333 419 515 C419 534.333 419.833 555.333 421.5 578 C423.167 600.667 425.667 625.333 429 652 L538 1544 L310 1544 L204 681 C199.333 643 195.833 607 193.5 573 C191.167 539 190 506.667 190 476 C190 332 242.667 211.333 348 114 C454 18 586.333 -30 745 -30 C943 -30 1097.67 42.6667 1209 188 C1278.33 281.333 1325.67 428.667 1351 630 L1463 1544 Z M1082 1966 L908 2077 L634 1762 L754 1689 L1082 1966 Z M1432 1966 L1258 2077 L984 1762 L1104 1689 L1432 1966 Z " />
<glyph glyph-name="uhungarumlaut" unicode="&#x171;" horiz-adv-x="1121" d="M1017 942 L797 942 L728 383 C718 301 698 243.667 668 211 C638 178.333 591.333 162 528 162 C411.333 162 353 211.667 353 311 C353 322.333 353.667 336.5 355 353.5 C356.333 370.5 358.333 390.333 361 413 L426 942 L205 942 L143 433 C139.667 406.333 137.167 382.667 135.5 362 C133.833 341.333 133 323.333 133 308 C133 207.333 167.667 127 237 67 C306.333 7.66667 399 -22 515 -22 C637 -22 735.333 7.33333 810 66 C854 100.667 885.333 140.333 904 185 C913.333 208.333 922 237.333 930 272 C938 306.667 944.667 347.333 950 394 L1017 942 Z M697 1383 L550 1488 L313 1160 L411 1092 L697 1383 Z M1047 1383 L900 1488 L663 1160 L761 1092 L1047 1383 Z " />
<glyph glyph-name="Uogonek" unicode="&#x172;" horiz-adv-x="1524" d="M1463 1544 L1235 1544 L1127 662 C1105.67 492.667 1065 370.333 1005 295 C945 220.333 857 183 741 183 C641.667 183 563 212.667 505 272 C447.667 331.333 419 412.333 419 515 C419 534.333 419.833 555.333 421.5 578 C423.167 600.667 425.667 625.333 429 652 L538 1544 L310 1544 L204 681 C199.333 643 195.833 607 193.5 573 C191.167 539 190 506.667 190 476 C190 332 242.667 211.333 348 114 C454 18 586.333 -30 745 -30 C943 -30 1097.67 42.6667 1209 188 C1278.33 281.333 1325.67 428.667 1351 630 L1463 1544 Z M748 0 C590.667 -81.3333 512 -173 512 -275 C512 -337 534.333 -388.333 579 -429 C623 -471 678.667 -492 746 -492 C804.667 -492 861.667 -477 917 -447 L959 -286 C903 -301.333 862 -309 836 -309 C803.333 -309 776.333 -300.667 755 -284 C733.667 -267.333 723 -245.667 723 -219 C723 -156.333 796 -83.3333 942 0 L748 0 Z " />
<glyph glyph-name="uogonek" unicode="&#x173;" horiz-adv-x="1121" d="M1017 942 L797 942 L728 383 C718 301 698 243.667 668 211 C638 178.333 591.333 162 528 162 C411.333 162 353 211.667 353 311 C353 322.333 353.667 336.5 355 353.5 C356.333 370.5 358.333 390.333 361 413 L426 942 L205 942 L143 433 C139.667 406.333 137.167 382.667 135.5 362 C133.833 341.333 133 323.333 133 308 C133 207.333 167.667 127 237 67 C306.333 7.66667 399 -22 515 -22 C637 -22 735.333 7.33333 810 66 C854 100.667 885.333 140.333 904 185 C913.333 208.333 922 237.333 930 272 C938 306.667 944.667 347.333 950 394 L1017 942 Z M486 0 C328.667 -81.3333 250 -173 250 -275 C250 -337 272.333 -388.333 317 -429 C361 -471 416.667 -492 484 -492 C542.667 -492 599.667 -477 655 -447 L697 -286 C641 -301.333 600 -309 574 -309 C541.333 -309 514.333 -300.667 493 -284 C471.667 -267.333 461 -245.667 461 -219 C461 -156.333 534 -83.3333 680 0 L486 0 Z " />
<glyph glyph-name="Wcircumflex" unicode="&#x174;" horiz-adv-x="2130" d="M2239 1544 L1994 1544 L1489 517 L1178 1597 L635 489 L346 1544 L112 1544 L586 -84 L1125 1014 L1431 -66 L2239 1544 Z M1187 1859 L1344 1672 L1444 1769 L1208 2065 L876 1769 L969 1669 L1187 1859 Z " />
<glyph glyph-name="wcircumflex" unicode="&#x175;" horiz-adv-x="1490" d="M1526 942 L1275 942 L966 367 L786 968 L450 367 L284 942 L51 942 L393 -99 L730 509 L920 -99 L1526 942 Z M825 1276 L982 1089 L1082 1186 L846 1482 L514 1186 L607 1086 L825 1276 Z " />
<glyph glyph-name="Ycircumflex" unicode="&#x176;" horiz-adv-x="1195" d="M732 691 L1304 1544 L1041 1544 L636 930 L351 1544 L105 1544 L506 707 L418 0 L647 0 L732 691 Z M749 1859 L906 1672 L1006 1769 L770 2065 L438 1769 L531 1669 L749 1859 Z " />
<glyph glyph-name="ycircumflex" unicode="&#x177;" horiz-adv-x="1078" d="M1113 942 L860 942 L519 340 L286 942 L50 942 L387 117 L8 -539 L260 -539 L1113 942 Z M686 1282 L843 1095 L943 1192 L707 1488 L375 1192 L468 1092 L686 1282 Z " />
<glyph glyph-name="Ydieresis" unicode="&#x178;" horiz-adv-x="1195" d="M732 691 L1304 1544 L1041 1544 L636 930 L351 1544 L105 1544 L506 707 L418 0 L647 0 L732 691 Z M1050 1854 C1050 1890.67 1037.67 1921.33 1013 1946 C989 1971.33 959.333 1984 924 1984 C888.667 1984 858.667 1971.67 834 1947 C809.333 1923 797 1893.33 797 1858 C797 1822 809.333 1791.67 834 1767 C859.333 1741.67 889.333 1729 924 1729 C958.667 1729 988.333 1741.33 1013 1766 C1037.67 1790.67 1050 1820 1050 1854 L1050 1854 Z M673 1851 C673 1869.67 670 1887.17 664 1903.5 C658 1919.83 649.5 1933.83 638.5 1945.5 C627.5 1957.17 614.5 1966.33 599.5 1973 C584.5 1979.67 568 1983 550 1983 C512 1983 481 1971.33 457 1948 C433 1924.67 421 1895 421 1859 C421 1841 424.333 1824 431 1808 C437.667 1792 446.667 1778.33 458 1767 C469.333 1755.67 483 1746.67 499 1740 C515 1733.33 532 1730 550 1730 C584.667 1730 613.667 1741.67 637 1765 C661 1789 673 1817.67 673 1851 L673 1851 Z " />
<glyph glyph-name="Zacute" unicode="&#x179;" horiz-adv-x="1277" d="M1176 213 L412 213 L1323 1544 L301 1544 L275 1331 L925 1331 L12 0 L1149 0 L1176 213 Z M1188 1966 L1014 2077 L740 1762 L860 1689 L1188 1966 Z " />
<glyph glyph-name="zacute" unicode="&#x17a;" horiz-adv-x="1062" d="M975 205 L418 205 L1053 942 L165 942 L140 737 L613 737 L-18 0 L950 0 L975 205 Z M937 1383 L772 1488 L504 1157 L617 1092 L937 1383 Z " />
<glyph glyph-name="Zdotaccent" unicode="&#x17b;" horiz-adv-x="1277" d="M1176 213 L412 213 L1323 1544 L301 1544 L275 1331 L925 1331 L12 0 L1149 0 L1176 213 Z M979 1851 C979 1869.67 976 1887.17 970 1903.5 C964 1919.83 955.5 1933.83 944.5 1945.5 C933.5 1957.17 920.5 1966.33 905.5 1973 C890.5 1979.67 874 1983 856 1983 C818 1983 787 1971.33 763 1948 C739 1924.67 727 1894.67 727 1858 C727 1822 739.333 1791.67 764 1767 C788.667 1742.33 819.333 1730 856 1730 C888.667 1730 917.667 1741.67 943 1765 C967 1789 979 1817.67 979 1851 L979 1851 Z " />
<glyph glyph-name="zdotaccent" unicode="&#x17c;" horiz-adv-x="1062" d="M975 205 L418 205 L1053 942 L165 942 L140 737 L613 737 L-18 0 L950 0 L975 205 Z M748 1267 C748 1301 736 1330 712 1354 C689.333 1378.67 661.333 1391 628 1391 C595.333 1391 567.333 1379.33 544 1356 C520.667 1332.67 509 1304.67 509 1272 C509 1240 520.667 1211.33 544 1186 C568 1162 596.333 1150 629 1150 C662.333 1150 690.333 1161.33 713 1184 C736.333 1207.33 748 1235 748 1267 L748 1267 Z " />
<glyph glyph-name="Zcaron" unicode="&#x17d;" horiz-adv-x="1277" d="M1176 213 L412 213 L1323 1544 L301 1544 L275 1331 L925 1331 L12 0 L1149 0 L1176 213 Z M810 1895 L654 2067 L531 1964 L789 1684 L1151 1963 L1052 2070 L810 1895 Z " />
<glyph glyph-name="zcaron" unicode="&#x17e;" horiz-adv-x="1062" d="M975 205 L418 205 L1053 942 L165 942 L140 737 L613 737 L-18 0 L950 0 L975 205 Z M630 1297 L474 1485 L373 1388 L609 1092 L941 1387 L848 1488 L630 1297 Z " />
<glyph glyph-name="florin" unicode="&#x192;" horiz-adv-x="1313" d="M802 1057 L847 1292 C864.333 1379.33 887 1439.67 915 1473 C943 1507 984.667 1524 1040 1524 C1072 1524 1103 1518.67 1133 1508 L1168 1696 C1118.67 1708 1075.33 1714 1038 1714 C924.667 1714 835.667 1681.83 771 1617.5 C706.333 1553.17 662.333 1453 639 1317 L594 1057 L396 1057 L376 900 L564 900 L449 242 C425.667 112.667 395 24 357 -24 C331.667 -56 305 -76.6667 277 -86 C247.667 -97.3333 197.333 -104.333 126 -107 L93 -296 C119.667 -298 140 -299 154 -299 C218.667 -299 284 -287.333 350 -264 C412.667 -241.333 463.667 -210.333 503 -171 C541.667 -132.333 571.333 -84.3333 592 -27 C612.667 29.6667 634.667 121.667 658 249 L775 900 L1035 900 L1057 1057 L802 1057 Z " />
<glyph glyph-name="Scommaaccent" unicode="&#x218;" horiz-adv-x="1145" d="M1121 1347 C1055.67 1430.33 992 1489.33 930 1524 C869.333 1558.67 796 1576 710 1576 C578 1576 468.667 1534.67 382 1452 C295.333 1370 252 1266.67 252 1142 C252 1048.67 274 971 318 909 C364 847 445 781.667 561 713 C611.667 683 653.5 656 686.5 632 C719.5 608 744.333 586.333 761 567 C794.333 529.667 811 484 811 430 C811 351.333 788.167 290.667 742.5 248 C696.833 205.333 633.667 184 553 184 C480.333 184 421.333 199.667 376 231 C330.667 262.333 284.333 319.667 237 403 L63 285 C95 228.333 128.333 180.167 163 140.5 C197.667 100.833 235 68.6667 275 44 C354.333 -5.33333 451.333 -30 566 -30 C708 -30 822.333 11.3333 909 94 C997 176.667 1041 284.667 1041 418 C1041 520.667 1018.33 603.667 973 667 C928.333 729.667 839.667 799.667 707 877 C662.333 903.667 625.167 928 595.5 950 C565.833 972 543.333 991.667 528 1009 C497.333 1045.67 482 1089.33 482 1140 C482 1203.33 504.333 1256 549 1298 C593.667 1340 650 1361 718 1361 C812 1361 895.333 1307.67 968 1201 L1121 1347 Z M693 -112 L468 -112 L438 -362 L519 -362 L518 -408 L439 -559 L557 -612 L651 -461 L693 -112 Z " />
<glyph glyph-name="scommaaccent" unicode="&#x219;" horiz-adv-x="827" d="M767 838 C677 928 578.667 973 472 973 C375.333 973 295.667 945 233 889 C170.333 833 139 762.333 139 677 C139 620.333 152.667 572.333 180 533 C207.333 495.667 256.333 457.333 327 418 C367 396.667 398.667 378.333 422 363 C445.333 347.667 461.667 335.667 471 327 C490.333 309.667 500 287 500 259 C500 227 488.5 201 465.5 181 C442.5 161 412 151 374 151 C306.667 151 243.333 186.667 184 258 L39 157 C129.667 32.3333 244 -30 382 -30 C483.333 -30 565.667 -3.33333 629 50 C691 104 722 175.667 722 265 C722 327 706.667 377.333 676 416 C647.333 455.333 590.667 498.667 506 546 C446.667 578.667 407.667 604.667 389 624 C370.333 642.667 361 665.667 361 693 C361 721 372.167 744.5 394.5 763.5 C416.833 782.5 445 792 479 792 C529 792 583.333 765.667 642 713 L767 838 Z M511 -112 L286 -112 L256 -362 L337 -362 L336 -408 L257 -559 L375 -612 L469 -461 L511 -112 Z " />
<glyph glyph-name="&amp;#x2bb;" unicode="&#x2bb;" horiz-adv-x="630" d="M187 1045 L341 959 L626 1508 L504 1575 L187 1045 Z " />
<glyph glyph-name="&amp;#x2018;" unicode="&#x2018;" horiz-adv-x="630" d="M187 1045 L341 959 L626 1508 L504 1575 L187 1045 Z " />
<glyph glyph-name="&amp;#x2bc;" unicode="&#x2bc;" horiz-adv-x="630" d="M624 1490 L470 1575 L185 1026 L308 959 L624 1490 Z " />
<glyph glyph-name="&amp;#x2019;" unicode="&#x2019;" horiz-adv-x="630" d="M624 1490 L470 1575 L185 1026 L308 959 L624 1490 Z " />
<glyph glyph-name="circumflex" unicode="&#x2c6;" horiz-adv-x="1158" d="M686 1282 L843 1095 L943 1192 L707 1488 L375 1192 L468 1092 L686 1282 Z " />
<glyph glyph-name="caron" unicode="&#x2c7;" horiz-adv-x="1158" d="M653 1297 L497 1485 L396 1388 L632 1092 L964 1387 L871 1488 L653 1297 Z " />
<glyph glyph-name="breve" unicode="&#x2d8;" horiz-adv-x="1158" d="M383 1431 L383 1394 C383 1316.67 408 1251.67 458 1199 C508.667 1147 571.333 1121 646 1121 C720.667 1121 785.833 1147 841.5 1199 C897.167 1251 941 1328.33 973 1431 L817 1431 C779 1324.33 724.667 1271 654 1271 C620 1271 592.167 1282.83 570.5 1306.5 C548.833 1330.17 538 1360 538 1396 L538 1431 L383 1431 Z " />
<glyph glyph-name="dotaccent" unicode="&#x2d9;" horiz-adv-x="1158" d="M789 1267 C789 1301 777 1330 753 1354 C730.333 1378.67 702.333 1391 669 1391 C636.333 1391 608.333 1379.33 585 1356 C561.667 1332.67 550 1304.67 550 1272 C550 1240 561.667 1211.33 585 1186 C609 1162 637.333 1150 670 1150 C703.333 1150 731.333 1161.33 754 1184 C777.333 1207.33 789 1235 789 1267 L789 1267 Z " />
<glyph glyph-name="ring" unicode="&#x2da;" horiz-adv-x="1158" d="M895 1286 C895 1347.33 873.333 1399.67 830 1443 C787.333 1485.67 735 1507 673 1507 C611.667 1507 559.667 1485.67 517 1443 C474.333 1400.33 453 1348.67 453 1288 C453 1228 474.667 1175.33 518 1130 C561.333 1086.67 613.333 1065 674 1065 C734.667 1065 786.667 1086.67 830 1130 C873.333 1175.33 895 1227.33 895 1286 L895 1286 Z M768 1286 C768 1273.33 765.5 1261.33 760.5 1250 C755.5 1238.67 748.833 1228.67 740.5 1220 C732.167 1211.33 722.167 1204.5 710.5 1199.5 C698.833 1194.5 686.667 1192 674 1192 C660.667 1192 648.333 1194.5 637 1199.5 C625.667 1204.5 615.667 1211.33 607 1220 C598.333 1228.67 591.5 1238.83 586.5 1250.5 C581.5 1262.17 579 1274.67 579 1288 C579 1300.67 581.5 1312.67 586.5 1324 C591.5 1335.33 598.167 1345.17 606.5 1353.5 C614.833 1361.83 624.667 1368.5 636 1373.5 C647.333 1378.5 659.667 1381 673 1381 C699.667 1381 722.167 1371.83 740.5 1353.5 C758.833 1335.17 768 1312.67 768 1286 L768 1286 Z " />
<glyph glyph-name="ogonek" unicode="&#x2db;" horiz-adv-x="1047" d="M636 0 C478.667 -81.3333 400 -173 400 -275 C400 -337 422.333 -388.333 467 -429 C511 -471 566.667 -492 634 -492 C692.667 -492 749.667 -477 805 -447 L847 -286 C791 -301.333 750 -309 724 -309 C691.333 -309 664.333 -300.667 643 -284 C621.667 -267.333 611 -245.667 611 -219 C611 -156.333 684 -83.3333 830 0 L636 0 Z " />
<glyph glyph-name="tilde" unicode="&#x2dc;" horiz-adv-x="1158" d="M1008 1338 L891 1416 C859.667 1348.67 827 1315 793 1315 C776.333 1315 742.667 1329.33 692 1358 C626.667 1394 579.667 1412 551 1412 C483 1412 413 1353.67 341 1237 L455 1157 L465 1172 C467.667 1176 469.667 1178.67 471 1180 L488 1209 C504.667 1239 525.667 1254 551 1254 C563.667 1254 574.667 1251.33 584 1246 L627 1220 C629.667 1218 645.667 1210 675 1196 L726 1172 C746.667 1161.33 769 1156 793 1156 C874.333 1156 946 1216.67 1008 1338 L1008 1338 Z " />
<glyph glyph-name="hungarumlaut" unicode="&#x2dd;" horiz-adv-x="1158" d="M793 1383 L646 1488 L409 1160 L507 1092 L793 1383 Z M1143 1383 L996 1488 L759 1160 L857 1092 L1143 1383 Z " />
<glyph glyph-name="gravecmb" unicode="&#x300;" d="M-676 1378 L-431 1092 L-323 1160 L-514 1488 L-676 1378 Z " />
<glyph glyph-name="acutecmb" unicode="&#x301;" d="M-153 1383 L-318 1488 L-586 1157 L-473 1092 L-153 1383 Z " />
<glyph glyph-name="circumflexcmb" unicode="&#x302;" d="M-471 1282 L-314 1095 L-214 1192 L-450 1488 L-782 1192 L-689 1092 L-471 1282 Z " />
<glyph glyph-name="tildecmb" unicode="&#x303;" d="M-149 1338 L-266 1416 C-297.333 1348.67 -330 1315 -364 1315 C-380.667 1315 -414.333 1329.33 -465 1358 C-530.333 1394 -577.333 1412 -606 1412 C-674 1412 -744 1353.67 -816 1237 L-702 1157 L-692 1172 C-689.333 1176 -687.333 1178.67 -686 1180 L-669 1209 C-652.333 1239 -631.333 1254 -606 1254 C-593.333 1254 -582.333 1251.33 -573 1246 L-530 1220 C-527.333 1218 -511.333 1210 -482 1196 L-431 1172 C-410.333 1161.33 -388 1156 -364 1156 C-282.667 1156 -211 1216.67 -149 1338 L-149 1338 Z " />
<glyph glyph-name="macroncmb" unicode="&#x304;" d="M-808 1341 L-827 1181 L-186 1181 L-166 1341 L-808 1341 Z " />
<glyph glyph-name="brevecmb" unicode="&#x306;" d="M-774 1431 L-774 1394 C-774 1316.67 -749 1251.67 -699 1199 C-648.333 1147 -585.667 1121 -511 1121 C-436.333 1121 -371.167 1147 -315.5 1199 C-259.833 1251 -216 1328.33 -184 1431 L-340 1431 C-378 1324.33 -432.333 1271 -503 1271 C-537 1271 -564.833 1282.83 -586.5 1306.5 C-608.167 1330.17 -619 1360 -619 1396 L-619 1431 L-774 1431 Z " />
<glyph glyph-name="dotaccentcmb" unicode="&#x307;" d="M-368 1267 C-368 1301 -380 1330 -404 1354 C-426.667 1378.67 -454.667 1391 -488 1391 C-520.667 1391 -548.667 1379.33 -572 1356 C-595.333 1332.67 -607 1304.67 -607 1272 C-607 1240 -595.333 1211.33 -572 1186 C-548 1162 -519.667 1150 -487 1150 C-453.667 1150 -425.667 1161.33 -403 1184 C-379.667 1207.33 -368 1235 -368 1267 L-368 1267 Z " />
<glyph glyph-name="dieresiscmb" unicode="&#x308;" d="M-552 1267 C-552 1299.67 -564 1328.67 -588 1354 C-612 1378.67 -640.333 1391 -673 1391 C-705.667 1391 -733.667 1379.33 -757 1356 C-779.667 1333.33 -791 1305.33 -791 1272 C-791 1240 -779.333 1211.33 -756 1186 C-732 1162 -703.667 1150 -671 1150 C-637.667 1150 -609.667 1161.33 -587 1184 C-563.667 1207.33 -552 1235 -552 1267 L-552 1267 Z M-191 1267 C-191 1299.67 -203 1328.67 -227 1354 C-251 1378.67 -279.667 1391 -313 1391 C-345 1391 -372.667 1379.33 -396 1356 C-419.333 1332.67 -431 1304.67 -431 1272 C-431 1240 -419.333 1211.33 -396 1186 C-372 1162 -343.667 1150 -311 1150 C-277.667 1150 -249.667 1161.33 -227 1184 C-203 1206.67 -191 1234.33 -191 1267 L-191 1267 Z " />
<glyph glyph-name="ringcmb" unicode="&#x30a;" d="M-262 1286 C-262 1347.33 -283.667 1399.67 -327 1443 C-369.667 1485.67 -422 1507 -484 1507 C-545.333 1507 -597.333 1485.67 -640 1443 C-682.667 1400.33 -704 1348.67 -704 1288 C-704 1228 -682.333 1175.33 -639 1130 C-595.667 1086.67 -543.667 1065 -483 1065 C-422.333 1065 -370.333 1086.67 -327 1130 C-283.667 1175.33 -262 1227.33 -262 1286 L-262 1286 Z M-389 1286 C-389 1273.33 -391.5 1261.33 -396.5 1250 C-401.5 1238.67 -408.167 1228.67 -416.5 1220 C-424.833 1211.33 -434.833 1204.5 -446.5 1199.5 C-458.167 1194.5 -470.333 1192 -483 1192 C-496.333 1192 -508.667 1194.5 -520 1199.5 C-531.333 1204.5 -541.333 1211.33 -550 1220 C-558.667 1228.67 -565.5 1238.83 -570.5 1250.5 C-575.5 1262.17 -578 1274.67 -578 1288 C-578 1300.67 -575.5 1312.67 -570.5 1324 C-565.5 1335.33 -558.833 1345.17 -550.5 1353.5 C-542.167 1361.83 -532.333 1368.5 -521 1373.5 C-509.667 1378.5 -497.333 1381 -484 1381 C-457.333 1381 -434.833 1371.83 -416.5 1353.5 C-398.167 1335.17 -389 1312.67 -389 1286 L-389 1286 Z " />
<glyph glyph-name="hungarumlautcmb" unicode="&#x30b;" d="M-364 1383 L-511 1488 L-748 1160 L-650 1092 L-364 1383 Z M-14 1383 L-161 1488 L-398 1160 L-300 1092 L-14 1383 Z " />
<glyph glyph-name="caroncmb" unicode="&#x30c;" d="M-504 1297 L-660 1485 L-761 1388 L-525 1092 L-193 1387 L-286 1488 L-504 1297 Z " />
<glyph glyph-name="commaaccent" unicode="&#x326;" d="M-298 -112 L-523 -112 L-553 -362 L-472 -362 L-473 -408 L-552 -559 L-434 -612 L-340 -461 L-298 -112 Z " />
<glyph glyph-name="cedillacmb" unicode="&#x327;" d="M-467 -205 L-653 -107 L-853 -413 L-735 -480 L-467 -205 Z " />
<glyph glyph-name="ogonekcmb" unicode="&#x328;" d="M-410 0 C-567.333 -81.3333 -646 -173 -646 -275 C-646 -337 -623.667 -388.333 -579 -429 C-535 -471 -479.333 -492 -412 -492 C-353.333 -492 -296.333 -477 -241 -447 L-199 -286 C-255 -301.333 -296 -309 -322 -309 C-354.667 -309 -381.667 -300.667 -403 -284 C-424.333 -267.333 -435 -245.667 -435 -219 C-435 -156.333 -362 -83.3333 -216 0 L-410 0 Z " />
<glyph glyph-name="soliduslongoverlaycmb" unicode="&#x338;" d="M60 1644 L-95 1712 L-1049 -377 L-895 -448 L60 1644 Z " />
<glyph glyph-name="&amp;#x394;" unicode="&#x394;" horiz-adv-x="1544" d="M79 0 L1520 0 L921 1544 L671 1544 L79 0 Z M410 216 L797 1262 L1184 216 L410 216 Z " />
<glyph glyph-name="&amp;#x2206;" unicode="&#x2206;" horiz-adv-x="1544" d="M79 0 L1520 0 L921 1544 L671 1544 L79 0 Z M410 216 L797 1262 L1184 216 L410 216 Z " />
<glyph glyph-name="Omegagreek" unicode="&#x3a9;" horiz-adv-x="1544" d="M93 0 L709 0 L709 186 C459 326.667 334 535 334 811 C334 972.333 378.333 1106.33 467 1213 C556.333 1320.33 667.667 1374 801 1374 C945 1374 1065 1305.67 1161 1169 C1229.67 1072.33 1264 956.333 1264 821 C1264 538.333 1139.67 326.667 891 186 L891 0 L1505 0 L1505 208 L1139 208 C1266.33 286 1359.33 375.333 1418 476 C1476.67 576.667 1506 698.333 1506 841 C1506 1051.67 1438.33 1227.67 1303 1369 C1167.67 1511 1000 1582 800 1582 C598 1582 429.667 1511 295 1369 C160.333 1228.33 93 1052 93 840 C93 698 122.333 576.667 181 476 C239.667 375.333 333 286 461 208 L93 208 L93 0 Z " />
<glyph glyph-name="pi" unicode="&#x3c0;" horiz-adv-x="1439" d="M279 0 L510 0 L510 902 L988 902 L988 0 L1220 0 L1220 902 L1392 902 L1392 1111 L104 1111 L104 902 L279 902 L279 0 Z " />
<glyph glyph-name="zerowidthjoiner" unicode="&#x200d;" d="" />
<glyph glyph-name="endash" unicode="&#x2013;" horiz-adv-x="1313" d="M1188 574 L135 574 L114 399 L1166 399 L1188 574 Z " />
<glyph glyph-name="emdash" unicode="&#x2014;" horiz-adv-x="1299" d="M1305 574 L5 574 L-15 399 L1283 399 L1305 574 Z " />
<glyph glyph-name="quotesinglbase" unicode="&#x201a;" horiz-adv-x="630" d="M434 193 L280 278 L-4 -270 L118 -337 L434 193 Z " />
<glyph glyph-name="quotedblleft" unicode="&#x201c;" horiz-adv-x="1012" d="M569 1045 L724 959 L1009 1508 L886 1575 L569 1045 Z M187 1045 L341 959 L626 1508 L504 1575 L187 1045 Z " />
<glyph glyph-name="quotedblright" unicode="&#x201d;" horiz-adv-x="1012" d="M624 1490 L470 1575 L185 1026 L308 959 L624 1490 Z M1007 1490 L853 1575 L567 1026 L690 959 L1007 1490 Z " />
<glyph glyph-name="quotedblbase" unicode="&#x201e;" horiz-adv-x="1012" d="M434 193 L280 278 L-4 -270 L118 -337 L434 193 Z M817 193 L663 278 L377 -270 L500 -337 L817 193 Z " />
<glyph glyph-name="dagger" unicode="&#x2020;" horiz-adv-x="1313" d="M904 1689 L704 1689 L654 1278 L277 1278 L254 1087 L630 1087 L446 -410 L646 -410 L830 1087 L1197 1087 L1220 1278 L854 1278 L904 1689 Z " />
<glyph glyph-name="daggerdbl" unicode="&#x2021;" horiz-adv-x="1313" d="M904 1689 L704 1689 L654 1278 L277 1278 L254 1087 L630 1087 L563 539 L186 539 L163 348 L539 348 L446 -410 L646 -410 L739 348 L1106 348 L1129 539 L763 539 L830 1087 L1197 1087 L1220 1278 L853 1278 L904 1689 Z " />
<glyph glyph-name="bullet" unicode="&#x2022;" horiz-adv-x="1544" d="M805 1112 C715.667 1112 639.333 1080.33 576 1017 C513.333 954.333 482 877.667 482 787 C482 698.333 513 622 575 558 C638.333 494.667 713.333 463 800 463 C888 463 963 494.667 1025 558 C1087 620.667 1118 697.333 1118 788 C1118 876.667 1087 952.667 1025 1016 C963.667 1080 890.333 1112 805 1112 L805 1112 Z " />
<glyph glyph-name="ellipsis" unicode="&#x2026;" horiz-adv-x="1713" d="M366 109 C366 147 352 179.667 324 207 C296.667 234.333 263.333 248 224 248 C188.667 248 158.333 235.333 133 210 C109 184.667 97 153.333 97 116 C97 77.3333 110 44.6667 136 18 C162 -8.66667 193.333 -22 230 -22 C266 -22 297.667 -9 325 17 C352.333 43 366 73.6667 366 109 L366 109 Z M941 109 C941 147 927 179.667 899 207 C871.667 234.333 838.667 248 800 248 C764.667 248 734.333 235.333 709 210 C685 184.667 673 153.333 673 116 C673 77.3333 686 44.6667 712 18 C738 -8.66667 769.333 -22 806 -22 C841.333 -22 872.667 -9 900 17 C927.333 43 941 73.6667 941 109 L941 109 Z M1517 109 C1517 147 1503 179.667 1475 207 C1447.67 234.333 1414.67 248 1376 248 C1340.67 248 1310.33 235.333 1285 210 C1261 184.667 1249 153.333 1249 116 C1249 77.3333 1262 44.6667 1288 18 C1314 -8.66667 1345.33 -22 1382 -22 C1417.33 -22 1448.67 -9 1476 17 C1503.33 43 1517 73.6667 1517 109 L1517 109 Z " />
<glyph glyph-name="perthousand" unicode="&#x2030;" horiz-adv-x="2352" d="M724 1224 C724 1326.67 701 1409.67 655 1473 C610.333 1535.67 550 1567 474 1567 C386 1567 312 1522.67 252 1434 C192 1344.67 162 1235 162 1105 C162 997.667 185 912.667 231 850 C277 788 339.333 757 418 757 C506.667 757 579.667 801 637 889 C695 977.667 724 1089.33 724 1224 L724 1224 Z M593 1229 C593 1129.67 575.667 1046.67 541 980 C506.333 913.333 463.667 880 413 880 C375 880 345.5 898.833 324.5 936.5 C303.5 974.167 293 1026.33 293 1093 C293 1189.67 310.667 1272.67 346 1342 C380.667 1410.67 423.667 1445 475 1445 C511.667 1445 540.5 1425.67 561.5 1387 C582.5 1348.33 593 1295.67 593 1229 L593 1229 Z M1448 1525 L1354 1590 L254 20 L347 -45 L1448 1525 Z M1536 444 C1536 546.667 1513 629.667 1467 693 C1421 755.667 1360.33 787 1285 787 C1197 787 1123 742.333 1063 653 C1003 563.667 973 454.333 973 325 C973 217.667 996 133 1042 71 C1088 9 1150.67 -22 1230 -22 C1318.67 -22 1391.67 21.6667 1449 109 C1507 197 1536 308.667 1536 444 L1536 444 Z M1405 448 C1405 349.333 1387.67 266.667 1353 200 C1318.33 133.333 1275.67 100 1225 100 C1187 100 1157.5 118.667 1136.5 156 C1115.5 193.333 1105 245.333 1105 312 C1105 409.333 1122.67 492.667 1158 562 C1192.67 630.667 1235.67 665 1287 665 C1323.67 665 1352.5 646 1373.5 608 C1394.5 570 1405 516.667 1405 448 L1405 448 Z M2246 444 C2246 546.667 2223 629.667 2177 693 C2132.33 755.667 2072 787 1996 787 C1908 787 1834 742.333 1774 653 C1714 563.667 1684 454.333 1684 325 C1684 217.667 1707 133 1753 71 C1799 9 1861.33 -22 1940 -22 C2028.67 -22 2101.67 21.6667 2159 109 C2217 197 2246 308.667 2246 444 L2246 444 Z M2115 448 C2115 349.333 2097.67 266.667 2063 200 C2028.33 133.333 1985.67 100 1935 100 C1897 100 1867.5 118.667 1846.5 156 C1825.5 193.333 1815 245.333 1815 312 C1815 409.333 1832.67 492.667 1868 562 C1902.67 630.667 1945.67 665 1997 665 C2033.67 665 2062.5 646 2083.5 608 C2104.5 570 2115 516.667 2115 448 L2115 448 Z " />
<glyph glyph-name="guilsinglleft" unicode="&#x2039;" horiz-adv-x="596" d="M335 61 L452 133 L242 480 L542 843 L436 934 L72 486 L335 61 Z " />
<glyph glyph-name="guilsinglright" unicode="&#x203a;" horiz-adv-x="596" d="M251 912 L133 840 L344 493 L44 130 L150 39 L514 486 L251 912 Z " />
<glyph glyph-name="fraction" unicode="&#x2044;" horiz-adv-x="392" d="M823 1525 L729 1590 L-370 20 L-276 -45 L823 1525 Z " />
<glyph glyph-name="Euro" unicode="&#x20ac;" horiz-adv-x="1264" d="M1138 1574 C896 1574 683.667 1479.67 501 1291 C375.667 1161.67 294.667 1018.33 258 861 L931 861 L952 1024 L561 1024 C595 1082 638.333 1135.33 691 1184 C814.333 1297.33 954.333 1354 1111 1354 L1138 1574 Z M968 190 C811.333 190 685.333 245.667 590 357 C550.667 402.333 521.667 451 503 503 L887 503 L907 666 L235 666 L235 659 C235 483.667 292 331.667 406 203 C542.667 49 721 -28 941 -28 L968 190 Z " />
<glyph glyph-name="trademark" unicode="&#x2122;" horiz-adv-x="1760" d="M490 1396 L702 1396 L720 1544 L118 1544 L100 1396 L322 1396 L231 664 L399 664 L490 1396 Z M1638 1657 L1215 931 L969 1636 L637 664 L810 664 L977 1172 L1178 583 L1524 1172 L1568 664 L1731 664 L1638 1657 Z " />
<glyph glyph-name="Omega" unicode="&#x2126;" horiz-adv-x="1544" d="M93 0 L709 0 L709 186 C459 326.667 334 535 334 811 C334 972.333 378.333 1106.33 467 1213 C556.333 1320.33 667.667 1374 801 1374 C945 1374 1065 1305.67 1161 1169 C1229.67 1072.33 1264 956.333 1264 821 C1264 538.333 1139.67 326.667 891 186 L891 0 L1505 0 L1505 208 L1139 208 C1266.33 286 1359.33 375.333 1418 476 C1476.67 576.667 1506 698.333 1506 841 C1506 1051.67 1438.33 1227.67 1303 1369 C1167.67 1511 1000 1582 800 1582 C598 1582 429.667 1511 295 1369 C160.333 1228.33 93 1052 93 840 C93 698 122.333 576.667 181 476 C239.667 375.333 333 286 461 208 L93 208 L93 0 Z " />
<glyph glyph-name="partialdiff" unicode="&#x2202;" horiz-adv-x="1158" d="M201 1343 C343 1325.67 471.667 1283.33 587 1216 C621.667 1196 652.5 1174.83 679.5 1152.5 C706.5 1130.17 730.333 1106.67 751 1082 C792.333 1032.67 834.333 960.333 877 865 C829.667 915 782 950.667 734 972 C683.333 993.333 626.333 1004 563 1004 C429 1004 315.333 955.333 222 858 C129.333 761.333 83 643 83 503 C83 358.333 134 234.667 236 132 C338.667 29.3333 462.333 -22 607 -22 C765 -22 891.667 34 987 146 C1083 258.667 1131 407.667 1131 593 C1131 861 1048.67 1082.33 884 1257 C804.667 1341 714.667 1405 614 1449 C516 1493.67 388.333 1526 231 1546 L201 1343 Z M613 833 C693.667 833 760.667 801.333 814 738 C867.333 674.667 894 596 894 502 C894 403.333 866.333 320.333 811 253 C755.667 185.667 687.667 152 607 152 C527 152 458.667 185 402 251 C346 317.667 318 398 318 492 C318 588.667 346.333 669.333 403 734 C459.667 800 529.667 833 613 833 L613 833 Z " />
</font>
</svg>
